/* XPM */
static char *result[] = {
/* columns rows colors chars-per-pixel */
"64 64 144 2 ",
"   c #51790E",
".  c #59840C",
"X  c #5E8B0C",
"o  c #5B8314",
"O  c #5E851B",
"+  c #618E0A",
"@  c #64940A",
"#  c #67990A",
"$  c #68990A",
"%  c #64871F",
"&  c #688F1D",
"*  c #6C9612",
"=  c #6D921D",
"-  c #72961D",
";  c #759A1C",
":  c #789F1B",
">  c #71A00F",
",  c #75A311",
"<  c #7AA613",
"1  c #7EA915",
"2  c #7CA31B",
"3  c #648923",
"4  c #6A8F23",
"5  c #62852C",
"6  c #6B8D2D",
"7  c #719523",
"8  c #73952F",
"9  c #76992B",
"0  c #7A9C2F",
"q  c #739536",
"w  c #779933",
"e  c #7B9C35",
"r  c #759638",
"t  c #7C9C3B",
"y  c #8DB500",
"u  c #8EBC00",
"i  c #90B607",
"p  c #92BE01",
"a  c #98BF01",
"s  c #92B50B",
"d  c #90BC08",
"f  c #81AC17",
"g  c #80A71B",
"h  c #84AD1A",
"j  c #87B11A",
"k  c #8CB41D",
"l  c #9ABD1A",
"z  c #8FB621",
"x  c #90B721",
"c  c #92B924",
"v  c #9BBF24",
"b  c #96BB28",
"n  c #9ABE2D",
"m  c #81A235",
"M  c #84A53C",
"N  c #8AAB3C",
"B  c #9DBF34",
"V  c #8FC300",
"C  c #92C400",
"Z  c #99C501",
"A  c #96C900",
"S  c #9ACA01",
"D  c #94C50A",
"F  c #98C60E",
"G  c #9DCA0C",
"H  c #96C513",
"J  c #99C714",
"K  c #9AC518",
"L  c #9BC91B",
"P  c #A2CD02",
"I  c #A8CF01",
"U  c #A5D101",
"Y  c #ABD402",
"T  c #A3CE13",
"R  c #A3CD1E",
"E  c #9DC126",
"W  c #9DC924",
"Q  c #9EC32C",
"!  c #9FCA29",
"~  c #9EC133",
"^  c #A4CC2C",
"/  c #A2C436",
"(  c #A1C934",
")  c #A5C63A",
"_  c #A4CA3C",
"`  c #A9C93F",
"'  c #809E41",
"]  c #86A545",
"[  c #89A746",
"{  c #8DAC44",
"}  c #87A54A",
"|  c #8AA74B",
" . c #8DAB4C",
".. c #8FB045",
"X. c #93B244",
"o. c #9CBD44",
"O. c #9AB64B",
"+. c #9BBB4C",
"@. c #97B252",
"#. c #9BB653",
"$. c #9DBB53",
"%. c #9BB659",
"&. c #A0BF53",
"*. c #9EC144",
"=. c #A3C643",
"-. c #A7C940",
";. c #ACCB43",
":. c #A2C24B",
">. c #A7C84E",
",. c #B0CD47",
"<. c #B2CE49",
"1. c #B6D24E",
"2. c #B8D34F",
"3. c #A2C252",
"4. c #B7D250",
"5. c #BED757",
"6. c #BED758",
"7. c #C2D95E",
"8. c #C5DB64",
"9. c #C9DD6C",
"0. c #CDDF73",
"q. c #CEE175",
"w. c #D2E27B",
"e. c #F69B9C",
"r. c #F6A09E",
"t. c #F9BAAB",
"y. c #D6E481",
"u. c #DBE78B",
"i. c #DCE88E",
"p. c #DEE991",
"a. c #E1EB97",
"s. c #E6ED9E",
"d. c #FAC8B2",
"f. c #FCD4B8",
"g. c #E6EEA0",
"h. c #EAF0A6",
"j. c #EEF2AD",
"k. c #F5E9B6",
"l. c #F1F4B3",
"z. c #F5F6BA",
"x. c #FDE7C1",
"c. c #FEEDC4",
"v. c #FBF9C4",
"b. c #FFFBCB",
/* pixels */
"C C A C V V C A C V C p P A C Z A A A C A A V V V V V V V C Z Z Z C C V V V V V V V V V S A A A A A A P C A A C A C u Z Z C C p ",
"C V V V V V V C u Y U S S S C C A A C A A C V V V V V V V V p Z Z A A C V V V V V V V V A C A A V A A A C A A V V V V u S C V V ",
"V V V V V V V u P S S A C C A C C V V A C V V V V C A V C u Z P S C A A C V V C V C V V V V V A V A A A C C V V V C A A A A V V ",
"V V V V V V V u A A A S A C A C V V V C V V V J :.#. .|  .$.W V C D W J V V C A C S C V V V V V V V A V C V V V u u C A A A V V ",
"V V V V V V V V C A A A A V C V V A C V C L @.- h z k k k h = *.! r : = =.*._ S S C C p C V V V V V V V V V V V C A A A A A V V ",
"C V V V V V V V V u A A C V V V V A Z V L e h k k c n b z k k ; 9 k k k = h 2 +.A A A p C C C V V V u u u V V V C Z A A V V V V ",
"P C Z V Z C V V V V V V V V V V C C V V e k k b ,.6.5.5.6.;.c k z ~ c k k k k ; 7 7 0 o.L A A V y u y u u V V C u C S C V V V V ",
"Z A u S C A C V V u u u V V V V D >.%.%.2 k B 5.6.6.5.5.6.6.4.n 4.5.4.c k k k k k k k h e L C u u V V V V V V V C i u p u p P A ",
"C S S C A A C V y y y y y y y D e g k : z b 5.5.5.5.5.5.5.5.5.5.5.5.5._ / ,.` c k k k k k  .V C V V V V C V u V u V V V u Z C Z ",
"C C C C V V V V V y y y y y Q $.2 k Q ,.5.5.5.5.5.5.5.5.5.5.5.5.5.5.5.6.5.5.7.5.n k k k k - t 0 N _ A A C p y y y y y y u C p C ",
"C V V S V S C V V C V C =.9 2 : k / 5.5.5.5.5.5.5.5.5.5.5.5.5.7.6.5.5.5.5.7.5.5.4.k k k k k k k k 2 _ A V V V u u u y u p C Z C ",
"C C V S S C A C a S C +.: k k / ;.5.5.5.5.5.5.5.5.5.5.5.5.5.5.5.5.5.5.5.5.5.5.5.7.b k k k k k k k k [ J A A C V V V V V V V C S ",
"C C V C S A A C C A F - k ~ 4.5.5.5.5.5.5.5.5.5.5.5.5.5.5.5.5.5.5.5.5.5.5.5.5.5.5.` ,.2.<./ k k k j - = *.A A C A C V C C C V u ",
"A C V V Z A A A C A O.k c 5.5.5.5.5.5.5.5.5.5.5.5.5.5.5.5.5.5.5.5.5.5.5.5.5.5.5.5.7.5.5.5.5./ k k k k k h =.C C A A V C S A A C ",
"V V V p S A C C A A { k ,.6.5.5.5.7.5.5.5.5.5.5.7.8.v.9.5.5.5.5.5.5.7.5.5.5.5.5.5.5.5.7.,./ n k k k k k k 8 / A A A C S S A A V ",
"V V V V V u V u p D ' z 5.5.5.5.5.5.5.5.5.5.5.5.5.w.b.a.s.0.5.5.5.6.5.5.5.5.5.5.5.5.5.` v k k k k k k k k j 2 m _ A C S S S S C ",
"V V V u y y y s O.; : c ) b ` 7.5.5.2.7.2.2.7.7.w.v.r.c.v.w.5.5.5.5.5.5.5.5.5.5.5.5.5.7.5.1.b k k b ~ n c k k k 7 -.a S C S S C ",
"V V C V u y y t h k x x x 2.5.5.5.5.7.7.7.7.7.2.7.s.c.b.q.7.5.5.5.5.5.5.5.5.5.5.5.5.5.,.` 5.5.b _ 5.5.5.6.,.c k z 2 o.S S Z Z V ",
"A A A A S C +.h k ) 7.b ,.5.5.5.5.5.7.2.7.2.2.7.5.z.s.j.8.5.5.5.5.5.5.7.5.5.5.5.5.5.5.c k ;.5.,.b 5.5.5.5.5.5.Q k k - Q p u u V ",
"I P S A A L = k / 2.7.k 5.7.5.5.5.5.2.7.7.7.2.7.5.7.7.5.7.5.5.5.5.5.5.5.5.5.5.5.5.5.5.c k ;.5.7.Q 5.5.5.5.5.5.4.z k k } u C C C ",
"Z P C C C _ 2 c 1.7.2.n 5.7.5.5.7.7.2.7.2.2.7.2.5.5.5.5.5.5.5.5.5.5.5.5.5.5.5.5.5.5.5.) / 1.,.5.;.6.5.6.5.5.5.5./ k k - J A C A ",
"S p C A u +.k n 5.5.7.^ 5.2.7.5.2.2.7.2.7.7.7.7.5.5.5.5.5.5.5.5.5.5.5.5.5.5.5.5.5.5.5.7.7.` 2.5.6.6.5.5.5.7.5.5.,.k k g =.A C A ",
"C u C S l - k / 7.5.7.2.5.5.5.5.7.2.2.7.7.2.` 7.7.5.5.5.5.5.5.5.5.5.5.5.5.5.5.5.5.5.5.5.5.5.5.5.6.6.5.5.5.5.5.5.2.k k k #.S S C ",
"V C V S E : k _ 5.5.5.5.5.5.5.5.2.7.7.7.2.7.7.7.5.5.5.5.5.5.5.5.5.5.5.5.5.7.5.5.5.5.5.5.5.5.5.5.5.5.5.5.5.5.5.5.5.k k k @.S C C ",
"C V V =.M = k / 5.5.5.5.5.5.5.5.2.5.5.5.5.5.5.5.5.5.5.5.5.5.5.5.5.5.5.5.5.5.5.5.5.5.5.5.5.5.5.5.5.5.5.5.5.5.5.5.,.k k k @.p C C ",
"S A _ ; k k k k 2.5.7.4.5.5.5.5.5.5.5.5.5.5.5.5.5.5.5.5.5.5.5.5.5.7.5.5.5.5.5.5.5.5.5.5.5.5.5.5.7.5.5.6.5.5.5.5.;.k k j &.C C A ",
"Z C { k k k c Q c 2.5.c ,.7.5.5.5.5.5.5.5.5.2./ 1.5.5.5.5.7.5.5.5.5.5.5.5.5.5.5.5.5.5.5.5.7.5.5.5.5.5.5.5.5.5.5.c k k : _ V V C ",
"u V { j k k 1.5.5.2.7.) 2.5.5.5.5.5.5.5.5.5./ s c 5.5.2.2.5.5.5.5.5.5.5.5.5.5.5.5.5.5.5.5.5.5.5.5.5.5.5.5.5.5.5./ k k t V V V C ",
"V V L % k k 5.5.5.5.5.5.5.5.5.5.5.5.5.5.5.5.^ l b 7.5.` 2.7.5.5.5.5.5.5.5.5.5.5.5.5.5.5.5.5.5.5.5.5.5.5.5.5.5.5.4.k g t 3.V V V ",
"S S =.2 k k 4.7.5.5.5.5.5.5.5.5.5.5.5.5.5.5.5.2.4.5.5.5.5.5.5.5.5.5.5.5.7.5.5.5.7.5.5.5.5.5.u.s.5.5.5.5.5.5.5.5.4.k k k 7 H C A ",
"A A | j k k ;.5.5.5.4.7.5.5.5.5.5.5.5.5.5.5.5.5.7.5.5.5.5.5.5.5.5.5.5.5.5.5.5.5.5.5.6.5.5.9.b.b.9.5.5.5.5.5.5.5.n k k k 6 V A A ",
"A A 6 j k k b 5.5.;.k ,.5.7.5.5.5.5.5.5.5.5.5.5.5.5.5.5.5.5.5.5.5.5.5.5.5.5.5.5.5.5.5.5.6.8.b.b.y.i.h.9.5.5.1.k k k k k 2 >.A C ",
"C A 6 h k k k ` 5.;.x 1.5.5.7.5.5.5.5.5.5.5.5.5.5.5.5.5.5.5.7.2.7.2.2.7.2.2.7.2.2.7.2.2.w.s.x.t.b.b.b.p.5.5.5.c k k k k h 3.C C ",
"p A ] < k k k z ;.5.7.5.5.5.5.5.5.5.5.5.5.5.5.5.5.5.5.5.5.` 7.7.2.7.7.7.7.7.7.7.7.7.7.7.j.v.t.e.b.z.g.8.5.5.4.k k k k k t L C C ",
"C C -.X k k k k k / 2.5.5.5.5.5.5.5.5.5.5.7.5.5.5.5.5.5.5.5.2.7.7.7.2.2.5.5.2.7.7.2.2.7.7.i.v.v.b.p.5.5.5.5.;.k k k k k  .V V V ",
"V V =.X > k k k k k ` 5.5.5.5.5.5.5.5.5.5.5.5.5.5.5.5.5.5.5.7.2.7.2.7.7.5.5.` 7.7.2.7.7.7.z.b.l.b.j.5.5.5.1.c k k k k k 7 ! V V ",
"V V t # $ 1 k k k c 5.5.5.5.5.5.5.5.5.5.5.5.5.5.5.5.5.5.7.2.7.7.5.5.5.5.5.5.5.5.2.7.7.2.8.v.z.8.p.9.5.5.1.c k k k k k k h >.V V ",
"V V r # h k k k k Q 5.5.5.5.q.i.5.5.5.5.5.5.5.5.5.5.5.5.7.2.2.7.5.5.5.5.5.5.5.5.7.7.2.7.7.7.1.) 5.6.1._ k k k k k k k k z #.C V ",
"V L . $ h k k k k ~ 5.5.5.5.j.z.8.q.5.5.5.5.5.5.5.5.5.5.7.7.7.7.5.5.5.5.5.5.5.5.7.2.2.7.7.5.;.k k k k k k k k k k k k k k #.A V ",
"P ^ . $ h k k k k n 5.5.5.u.k.d.v.v.7.5.5.5.5.5.5.5.5.5.2.7.2.2.5.5.5.5.5.5.5.5.2.7.7.2.7.1.c k k k k k k k k k k k k k j #.A V ",
"C R . # , k k k k k 5.5.5.w.k.f.z.q.5.5.5.5.5.5.5.5.5.7.2.7.2.7.5.5.5.5.7.7.7.2.7.7.2.) ` c k k k k k k k k k k k k k k * B A A ",
"A A e # # < k k k k / 5.7.q.b.l.l.7.5.5.5.5.5.5.5.5.5.5.7.2.7.5.5.5.5.5.,.) 2.7.7.2.;.s k k k k k k k < 1 k k k k k z j O T C A ",
"A A ! o @ # , k k k k / 2.8.u.5.2.^ 5.5.5.5.5.) ) 7.5.5.7.5.5.5.2.7.5.7.k k / ,.2.) x k k k k k k k j # > f f k k k j @ X.a C A ",
"C C V L 6 # > k k k k k k n ~ c k k ) 5.5.5./ k k / 5.7.2.7.5.5.7.7.( d k k k k k k k k k k k k k k k > j k k k k j > o K p C A ",
"A C V u 4 $ $ k k k k k k k k k k k k c c x k k k k b _ ,.1.2.,.^ k k k k k k k k k k k k k k k k k k k k k k k < $ X +.A Z A A ",
"A A V C w $ $ k k k k k k k k k k k k k k k k k k k k k k k k k k k k k k k k k k k k k k k k k k k k k k f < $ $ X o.V P Y Z A ",
"P C V V ..$ $ 1 k k , k k k k k k k k k k k k k k k k k k k k k k k k j f k k k k k k k k k k k k k < $ $ # # # X *.V C p u p S ",
"p V V C / + $ $ k k $ f k k k k k k k k k k k k k k k k k k k $ $ f k f @ f k k k k k k k k k k k k > $ # # # # . E y y u p C U ",
"V V V S C N @ $ # > $ $ 1 j k k k k k k k k k k k k k k k k k $ $ < k j j k k k k k k k k k k k k j # # # $ # # 4 i y y y u V V ",
"V V u C C L M o . # # > , j k k k k k k k k k k k k k k k k k > $ k k k k k k k k k k k k k k k k $ # # # $ $ . B u y u V V V V ",
"V V V V u C C T )   * , k k k k k k k k k k k k k k k k k k k k k k k k k k k k k k k h k k k f $ $ # $ $ # $ w u V V V V V V V ",
"V V C C V V u C S 6 * $ < k k k k k k k k k k k k k k k k k k k k k k k k k k k k k k > > , $ $ $ $ # $ # $ # N p C C C V V V V ",
"V V p S S C u C Z o.X # # , h j k k k k k k k k k k k k k k k k k k k k k k k k k k k @ # $ $ $ $ $ # # # @ & H Y P C A A A C V ",
"V V C Z S A V A u S =.o o . $ $ $ , k k k k k k k k k k k k k k k k k k k k k k k k > $ $ $ $ # $ $ + % 4 X.H V C A S A A A A V ",
"C P A A A A A A A P P G D 3 $ # $ $ f k k k k h , k k k k k k k k k k k k k k k k < $ # $ # $ $ $ @ 8 s y y y u Y P A A A A A A ",
"V C Z A A C C A A S A V V +.@ @ $ $ # , f 1 < $ $ > j k k k k k k k f > < f f < # # $ $ $ # $ $ @ w H p p u u C a P A A A U A A ",
"V V C V C u y p C V V V V V *.5 # # # # $ $ # $ # $ $ > 1 1 1 < > @ # $ # # $ $ $ $ $ # # @ . 3 =.p u V V V V V C u u A U A A A ",
"V V V V V u y y u V V V V V V *.@ # # # $ # $ $ $ $ # $ # $ $ # # $ $ # $ $ # $ $ $ + M X.o.^ Z y y y V V V V V V u a A C y G A ",
"V V V V V V V u V V V V V V V D r @ # @ $ X   $ $ # $ # $ # $ $ $ @ $ $ $ $ $ $ @ o o.Z y Z a p y y y V u y u u u u u V V u Z Y ",
"V V V y y y y C V u u u u V V V V :.t q } ( +.@ # X + $ $ $ $ . + @ # $ $ @ @ . ] v y y y p p y y y y V y y y y y y u V V C y C ",
"u C C C p u C C V u y y y u V V C u P u V V V 3. .*.3 # # @ o =.^ +.| t t  .*.i u C u y y y y y y u u C V u u V V V V V V V V V ",
"Z a S Z S C a C V V V V V V V u C C P Z C V V V C V ( | } 3.^ A V V S C C C V V V V V V u V u V C V V u y V V V V V V V V V V V ",
"Z S Z C S P P S C C V u V C V p S C S P P Y V V V V V V V V V V V V C C V V V V V V V C C S C V A C C u V C S S V V V V V V C V ",
"Z S S C A C A C S C C S Y S V a S C S S U S A V V V V V V V V S S C C A C V A V V V V C P C P C S U U A V U P S P A V C A V p P "
};
