/* XPM */
static char *result[] = {
/* columns rows colors chars-per-pixel */
"64 64 148 2 ",
"   c #2C6305",
".  c #2D6309",
"X  c #316705",
"o  c #31660C",
"O  c #366D08",
"+  c #386F0A",
"@  c #3C740B",
"#  c #346911",
"$  c #396C16",
"%  c #3C6E19",
"&  c #437B0E",
"*  c #467F10",
"=  c #42741D",
"-  c #497A1E",
";  c #437422",
":  c #477820",
">  c #4A7925",
",  c #4C7C2A",
"<  c #527F2B",
"1  c #46800E",
"2  c #49820F",
"3  c #478010",
"4  c #4E8712",
"5  c #4F8812",
"6  c #508712",
"7  c #538B14",
"8  c #588F16",
"9  c #558C1B",
"0  c #5A8F1A",
"q  c #5C931C",
"w  c #61961E",
"e  c #538126",
"r  c #598F22",
"t  c #54832C",
"y  c #58842E",
"u  c #5E8C2E",
"i  c #5C9124",
"p  c #598630",
"a  c #598738",
"s  c #639720",
"d  c #659A22",
"f  c #6A9D26",
"g  c #64952C",
"h  c #6B9C2C",
"j  c #628D34",
"k  c #669337",
"l  c #6A973E",
"z  c #6D993A",
"x  c #6DA027",
"c  c #6EA129",
"v  c #73A42D",
"b  c #78A52D",
"n  c #77A82F",
"m  c #7FAD2C",
"M  c #75A730",
"N  c #77AA32",
"B  c #7BAB33",
"V  c #76A13B",
"C  c #7CA53E",
"Z  c #769E42",
"A  c #789E4D",
"S  c #77A141",
"D  c #7DA64A",
"F  c #8DB500",
"G  c #8EBC00",
"H  c #8FB608",
"J  c #92BE01",
"K  c #98BF01",
"L  c #90B608",
"P  c #91BA0D",
"I  c #94B913",
"U  c #81AE36",
"Y  c #81B037",
"T  c #85B33B",
"R  c #89B63E",
"E  c #8CB93F",
"W  c #90BC32",
"Q  c #9AB934",
"!  c #94BC3E",
"~  c #98BF3D",
"^  c #8FC300",
"/  c #92C401",
"(  c #99C501",
")  c #96C900",
"_  c #9BCA01",
"`  c #93C40B",
"'  c #9BC709",
"]  c #9CCB0E",
"[  c #97C514",
"{  c #9CCA14",
"}  c #97C119",
"|  c #99C61A",
" . c #9BC91B",
".. c #A2CD02",
"X. c #A8CF01",
"o. c #A4D101",
"O. c #ABD402",
"+. c #A0CB1A",
"@. c #A6D119",
"#. c #9CC624",
"$. c #9CC923",
"%. c #9DC62C",
"&. c #9FCA2C",
"*. c #9DC634",
"=. c #9FC934",
"-. c #9CC33D",
";. c #A0CD24",
":. c #A9CE26",
">. c #A4CD2D",
",. c #A4CB35",
"<. c #A2C93B",
"1. c #82A743",
"2. c #83AC43",
"3. c #88AD42",
"4. c #85AD4B",
"5. c #8DB344",
"6. c #8EBA41",
"7. c #8EB54A",
"8. c #92BC43",
"9. c #98BC41",
"0. c #95BB4B",
"q. c #99BF4A",
"w. c #95C047",
"e. c #9BC245",
"r. c #96C148",
"t. c #9CC44C",
"y. c #9EC84F",
"u. c #9FC750",
"i. c #A5CB45",
"p. c #A8CD42",
"a. c #A3C74A",
"s. c #A3C94F",
"d. c #A5CC54",
"f. c #A8CC55",
"g. c #A8CF58",
"h. c #ABD25A",
"j. c #B1D65E",
"k. c #B3D85F",
"l. c #B4D762",
"z. c #B4D961",
"x. c #BCDE66",
"c. c #BDDF68",
"v. c #BDE169",
"b. c #C2E46D",
"n. c #C6E86F",
"m. c #C6E770",
"M. c #C7E972",
"N. c #CCEC74",
/* pixels */
"/ / ) / ^ ^ / / / ^ / J o.) ) ( ) ) ) ) ) ) ^ ^ ^ ^ ^ ^ ^ ^ ( _ ( ( ) / ^ ^ ^ ^ ^ ^ ^ ^ _ ) ) ) ^ ) _ o./ ) ) / / / G ( _ / / G ",
"/ ^ ^ ^ ^ ^ ^ / / O.o./ _ _ / / ) ) / / ) / ^ ^ ^ ^ ^ ^ ^ ^ J _ ( / / / ^ ^ ^ ^ ^ ^ ^ ^ / / ) ) ^ ) ) ) ) ) / ^ ^ ^ ^ J ( ) ^ ^ ",
"^ ^ ^ ^ ^ ^ ^ G _ _ _ _ / ) ) / / ^ ^ / / ^ ^ ^ ^ / / ^ / G ( ..) / / ) ^ ^ ^ / ^ / ^ ^ ^ ^ / ) ^ ) ) ) / / ^ ^ ^ ) ) ) ) ) ^ ^ ",
"^ ^ ^ ^ ^ ^ ^ G _ ) ) _ ) / / / / ^ ^ / ^  .<.^ / _ _ ^ ..) ^ G / / ^ ^ <.s.&._ / _ / ^ ^ ^ ^ ^ ^ ^ ) ^ ^ ^ ^ ^ ^ G / / ) / ^ ^ ",
"^ ^ ^ ^ ^ ^ ^ ^ J ) ) ) ) ^ ^ / ^ ) / ^ ,.8 7 e.^ F s.4.D d./ ^ ^ / t.s 5 5 9 p._ / / ^ / ^ ^ ^ ^ ^ ^ ^ ^ ^ ^ / / / _ ) ) ) ^ ^ ",
"/ ^ ^ ^ ^ ^ ^ ^ ^ ^ ) / / ^ ^ ^ ^ ) ( ^ v 5 5 D @.h 6 4 4 4 7./ $.g 5 5 5 5 5 4.) ) ' #.>.&.^ ^ ^ ^ G ^ G ^ ^ ^ / _ / / / ^ ^ ^ ",
"../ ( ^ ( / ^ ^ ^ ^ ^ ^ ^ ^ ^ ^ r.i.[ ` 5 5 4 g g 5 5 4 4 4 6 t.r 4 2 6 4 4 5 D @.0.9 5 4 4 5.^ F F F G G ^ ^ ^ G ( _ / ^ ^ ^ ^ ",
"( ) G _ / ) / ^ ^ G ^ G G ^ / 6.4 5 h i.4 5 4 4 5 5 5 4 4 4 4 4 4 4 4 4 4 4 4 i r 5 5 4 4 4 4 t.e.7.7.-./ ^ ^ ^ / F ^ / F J ..) ",
") _ _ / / / / ^ F F F F F L P 6 4 4 4 5 4 4 4 4 4 4 4 5 5 c B v 5 4 5 4 4 4 4 4 4 4 4 4 4 5 4 4 2 @     , [ ^ ^ ^ ^ ^ ^ ^ ( / ) ",
"/ / / / ^ ^ ^ ^ / F F I 0 7 5.6 q v 5 4 5 4 4 4 5 4 4 4 N 6.6.6.c 4 5 7 4 4 4 4 4 4 4 4 4 4 4 4 5 4 O     z F F F F F F F / / / ",
"^ ^ G _ / _ / W b B T 3.4 5 2 6 N 6.d 4 9 5 4 4 4 4 5 q 6.6.6.6.R 9 B 6.x 4 5 4 4 4 4 4 4 4 4 4 5 5 @       | F F F G G / J ( / ",
"/ ^ / _ _ ) m 8 4 4 4 4 T N 8 6 B 6.N N 6.5.q 4 5 7 5 d 6.6.6.6.6.B 6.6.T 5 4 4 4 4 4 5 4 5 4 4 4 5 +       q.^ ^ / ^ ^ ^ ^ / _ ",
") / ^ / ..$.7 4 4 4 4 4 B 6.R 0 v 6.6.6.6.6.c c 6.6.6.N 6.6.6.6.6.6.6.6.B 4 4 4 4 4 5 q 5 5 4 4 4 5 X       8./ ) / ^ ^ / / / G ",
"/ / ^ / ( e.6 6 9 B T B N 6.6.T M 6.6.6.6.6.5.6.6.6.6.6.6.6.6.6.6.6.6.6.x q 4 5 i N R w.R i 4 5 4 @         *.) ) / ^ ) _ / ) / ",
"^ ^ ^ G _ 8.6 4 s 8.6.6.6.6.6.6.6.6.6.6.g.v.r.6.6.6.6.6.6.6.6.6.6.6.6.6.R 6.B N w.w.E E w.N 5 4 4 X         , k ;.) / _ _ ) ) ^ ",
"^ ^ ^ ^ / q.4 6 s 6.6.6.6.6.6.6.6.6.6.y.N.N.h.6.6.6.6.6.6.6.6.6.6.6.6.6.E 6.w.E E E E E E B 5 4 5 4 &           o +./ _ _ _ _ / ",
"^ ^ ^ ` 5.4.4 4 7 6.6.6.6.d.v.z.8.6.6.d.N.N.l.6.6.6.6.6.6.6.6.6.6.6.6.6.6.6.6.w.d.y.6.6.6.c 4 4 5 4 4 X           C ( ) / _ _ / ",
"^ / ^ 0.4 4 4 4 6 c 6.6.6.m.N.N.x.6.6.r.N.N.f.6.6.6.6.6.6.6.6.6.6.6.6.6.6.6.w.M.N.c.6.6.6.9 5 4 4 4 5 o           > G _ _ ( ( ^ ",
"/ ) ) 7.4 4 4 4 4 6 B 6.6.v.N.N.N.d.6.6.n.n.q.E 6.h.v.q.6.6.6.6.6.6.6.6.6.6.z.N.N.s.! 6.f 4 4 4 4 5 2             ; / F J F G ^ ",
"O..._ a.4 4 4 4 5 5 9 R 6.8.b.N.N.x.6.6.s.r.6.6.z.N.n.8.6.6.6.6.6.6.6.6.6.6.u.k.t.E E T 6 5 4 5 4 5 5 4 @         u ^ ^ ^ / / / ",
"( ../ / 2.4 4 4 4 4 s 6.6.6.w.k.n.d.6.6.6.6.6.8.M.M.r.6.6.6.6.6.6.6.6.6.6.6.6.6.6.6.6.6.T 9 5 5 4 4 4 4 4         Z <.-. .) / ) ",
"_ J / _ #.9 4 4 4 4 h 6.6.6.6.6.E 6.6.6.6.6.6.6.8.8.6.6.6.6.6.6.6.6.6.6.6.6.6.6.6.6.6.6.6.c 5 5 4 4 4 4 4           .   # $.) _ ",
"/ G / ] h 4 4 4 5 5 8 E 6.6.6.6.6.6.6.6.6.6.6.6.6.6.6.6.6.6.6.6.6.6.d.v.8.6.t.b.t.6.6.6.6.b 4 4 5 4 4 4 &               . ,._ / ",
"^ / ^ q.4 4 4 9 Y T B B 6.6.6.6.6.6.r.6.6.6.6.6.6.6.6.6.w.6.6.6.6.6.z.j.E 6.u.x.r.6.6.6.6.q 5 4 4 4 4 4 X             . j _ / ^ ",
"/ ^ / g 4 4 4 v 6.6.6.6.6.6.6.6.6.r.f.6.6.6.6.6.6.6.6.y.N.k.6.6.6.6.8.E 6.6.6.6.6.6.6.E n 6 4 4 4 4 4 @               . 1.%./ / ",
"_ / / 2.4 4 4 N 6.6.6.6.6.6.6.6.6.6.6.6.6.6.6.6.6.6.E t.N.v.6.6.6.6.6.6.6.6.6.6.6.6.Y d 5 5 5 5 4 4 2 & & @ X             . &./ ",
"( / _ ,.9 4 4 v 6.6.6.6.6.6.w.d.d.6.6.6.6.6.6.6.6.6.6.6.y.w.6.6.6.6.6.6.6.6.6.6.6.6.E v 6 5 5 5 4 5 4 4 6 5 &               &./ ",
"G ^ ^ <.4 4 4 9 6.6.6.6.6.h.N.N.N.k.6.6.6.6.6.6.6.6.6.6.6.6.6.6.6.6.6.6.6.6.6.6.E 8.E E 8 6 5 5 4 4 4 5 5 5 4 +           S ^ / ",
"/ ^ / a.6 5 5 4 d 6.6.6.6.N.N.N.M.t.6.6.6.6.6.6.6.6.6.6.6.6.6.6.6.6.6.6.6.6.6.6.6.6.6.E 7 4 4 4 4 4 5 4 4 4 4 @         j ` ^ ^ ",
"_ _ /  .i 5 4 4 i B 6.6.6.d.h.h.r.E 6.6.6.6.6.g.k.6.6.6.6.6.6.6.6.6.6.6.6.6.6.6.6.6.T w 6 4 4 5 4 4 4 4 4 5 3           o 8./ / ",
") ) >.i 5 4 4 4 E 6.6.6.6.6.6.6.8.6.6.6.6.E g.N.N.r.6.6.6.6.6.6.6.6.6.6.6.E 6.T n w 6 4 5 4 4 4 4 4 4 4 5 4 O               8._ ",
") >.9 5 4 4 4 4 n 6.6.6.6.6.6.6.6.6.6.6.6.8.b.N.N.r.6.6.6.6.6.6.6.6.6.6.6.8.E U 6 5 5 4 4 4 4 4 4 5 6 4 2 o                   -.",
"` h 5 5 4 5 4 4 5 f 6.6.6.8.6.6.6.6.6.6.E 8.n.N.v.! 6.6.6.6.6.6.6.6.6.6.6.6.6.6.q 5 5 5 4 4 5 4 4 4 4 5 4 3 X                 l ",
"t.5 5 5 4 4 4 4 9 Y 6.6.6.6.6.6.6.6.h.d.! E b.N.d.E 6.6.6.6.6.6.6.6.6.6.6.6.6.6.f 4 4 4 4 4 4 4 4 4 4 4 4 4 @               . > ",
"A & 3 & @ 5 5 4 b 6.8.8.h.f.6.6.6.d.N.d.6.6.t.d.6.6.6.6.6.6.6.6.6.E 8.6.6.6.6.6.f 4 4 4 4 4 4 4 4 4 4 4 4 4 @                 a ",
"D   . . @ 4 4 5 6.6.8.l.N.g.6.6.6.h.v.8.6.6.E 8.6.6.6.6.6.6.6.6.6.6.E 6.6.6.E R 9 5 4 4 4 5 4 4 4 5 4 4 4 4 O                 D ",
"0.      * 4 4 8 6.6.6.g.g.6.6.6.6.6.6.6.6.6.6.6.6.6.6.6.6.6.6.6.6.6.6.6.6.E E q 4 4 4 4 4 4 4 4 4 4 4 4 4 *                   #.",
"` y     @ 5 4 4 N 6.6.6.6.6.6.6.6.6.6.6.6.6.6.6.6.6.6.6.U 6.6.6.6.6.6.6.n v 8 5 4 4 5 4 4 4 5 4 4 4 4 4 4 X                 5.^ ",
"^ ` 9.Z   + & 4 5 w c v U 6.6.E 6.6.6.6.8.E 6.E 6.6.6.6.w b T E 6.6.6.6.s 5 5 5 4 4 4 4 4 4 4 4 5 4 4 & X                 p [ ^ ",
"X./ / 0.    3 5 5 4 4 5 T 6.6.8.b N 6.6.E 6.6.v E 6.6.6.q 6 4 v 6.6.6.6.d 5 5 2 5 4 4 4 4 5 4 4 4 @ X                   > { ) ^ ",
"/ _ ^ 4.  + 5 4 4 5 4 4 v 6.B w 5 6.6.6.6.6.6.8 B 6.6.Y 5 5 4 7 R 6.6.6.7 5 4 4 5 4 4 4 4 4 4 4 5 &                   y [ F _ ) ",
"/ ) ^ 4.  1 2 4 4 4 4 4 4 4 4 4 9 6.6.6.6.6.f 4 q T 6.q 4 4 5 4 q B T s 6 4 4 4 4 4 5 4 4 4 4 4 4 4 X                 ,..._ J ) ",
") ) ^ 7.  2 5 5 5 5 3 4 4 4 4 4 q 6.6.6.6.B 6 2 4 7 7 5 4 4 4 4 4 4 5 5 6 4 4 5 4 4 4 4 4 4 4 4 4 4                   5.K J / ) ",
") / ^ *.  @ 5 5 5 @ @ 4 4 4 4 4 4 T 5.8.B 6 6 6 4 5 4 4 5 4 4 4 4 5 4 4 4 4 4 4 5 4 4 4 4 4 4 3 & O                   5.J / / ) ",
") / ^ G k   X @ X   * 4 4 5 5 5 4 7 s q 5 5 4 4 4 4 4 4 4 4 4 4 4 4 4 4 4 4 4 4 4 4 5 4 4 4 4 *                       $._ _ ) _ ",
") / ^ / [ k         * 4 4 5 5 5 4 4 4 4 5 5 4 5 4 4 5 4 4 4 5 4 4 4 4 4 4 5 4 4 4 4 4 4 4 4 4 4 X                   6.^ ..o.( / ",
"../ ^ ^ / J  .9.    @ 5 4 5 6 5 4 3 * 4 4 5 4 4 5 4 4 4 4 4 4 4 5 4 4 5 4 4 4 4 4 4 4 4 4 4 4 4                   # &./ J G / _ ",
"J ^ ^ ^ ( / ) =.    o 3 4 4 6 2 @ o 4 4 4 4 4 4 4 4 4 4 5 4 4 5 4 4 4 4 4 4 4 5 4 5 4 4 @ * & O                     % L F ^ G X.",
"^ ^ / ) ( _ ) q.        @ @ o     3 5 4 5 4 4 4 4 4 4 4 5 5 5 4 4 4 4 4 4 4 4 6 4 4 4 4 +                           . H F G ^ ^ ",
"^ ^ / / / ) ) $.      .         X 4 4 4 4 & 4 4 4 4 4 4 6 6 4 4 4 4 4 4 4 & 4 4 4 4 4 4 O                     o % o ! G G / ^ ^ ",
"^ ^ ^ ^ ^ ^ J _ *.u $ ;         + 4 4 4 O 2 4 4 4 4 4 4 & 2 6 2 4 4 4 4 4 + + 4 4 4 6 &                       $ G ^ ^ ^ ^ ^ ^ ^ ",
"^ ^ J / ^ ^ G ) _ J / #.          * 3 O   2 4 4 4 4 4 4 X @ 5 & & 4 4 4 4 +   X @ & +   X                     u ^ / / ^ ^ ^ ^ ^ ",
"^ ^ J _ ) / G / / G _ ^ e                 * 4 4 4 4 5 &         O 4 4 4 4                                     ~ O.../ / ) ) / ^ ",
"^ ^ / ( ) _ ^ ) / _ o.^ $.=               + 4 4 4 4 2 X           @ 4 4 O                         ; o   . : ~ ^ ^ _ ..) ) ) / ^ ",
"/ _ _ _ ) ) ) ) _ ...._ ^ | k               & 4 4 4 +                                             ~ } Q Q H F G O.o._ ) ) ) ) ) ",
"^ / ( ) ) / / ) _ / ) ^ ^ ^ #.        .       O +                                               - G ^ F G ^ ^ ^ J .._ / ) o.) ) ",
"^ ^ ^ ^ / / F J / / ^ ^ ^ ^ ^ E     z -.                                            V 3.      = :.J G ^ ^ ^ ^ ^ / ^ G _ o./ ) ) ",
"^ ^ ^ ^ ^ F F F F ^ ^ ^ ^ ^ ^ ^ $.%.) ) o             .                   #         k ( %.9.-.' F F F ^ ^ ^ ^ ^ ^ G / ) / H _ ) ",
"^ ^ ^ ^ ^ ^ ^ G ^ ^ ^ ^ ^ ^ ^ ^ ^ ^ / ^ 8.          > 6.          < ;     -.V       3.( F _ ( J F F F ^ ^ F F G G G G ^ / F _ O.",
"^ ^ ^ F F F F ^ ^ G G G ^ ^ ^ ^ ^ ^ ^ ^ ^ 6.< $ p 6./ ^ -.t . ; 9.( V   : ^ G %.3.2.F F F F J F F F F ^ F F F F F F F ^ ^ / F / ",
"G ( ( / ^ G J / ^ F F F F G ^ ^ / F o.G ^ ^ ^ ^ ^ ^ ^ ^ / _ _ _ _ ^ -.. -.^ ^ F G ^ G F F F F F F F / ^ ^ ^ G ^ ^ ^ ^ ^ ^ ^ ^ ^ ",
"( J _ ( _ / ( / ^ ^ / ^ ^ / ^ F / ( o./ ) ^ ^ ^ ^ ^ ^ / ) ) ) / ^ ^ _  .^ ^ ^ ^ ^ ^ ^ / G ^ G ^ ^ ^ / F F G ^ ^ ^ ^ ^ ^ ^ ^ ^ ^ ",
"( _ / ) _ o..._ ) ^ ^ G ^ ^ ^ J _ / _ .._ O.^ ^ ^ ^ ^ ^ ^ / ^ ^ ^ ^ / / ^ ^ ^ ^ ^ ^ ^ / ^ _ / ^ ) / / ^ / / ) _ ^ ^ ^ ^ ^ ^ ^ ^ ",
"( _ _ / ) / ) / _ / / _ O._ ^ ( _ / ) ..o._ ) ^ ^ ^ ^ ^ ^ ^ ^ _ _ / / ) / ^ ^ ^ ^ ^ ^ / ../ o./ _ o.o.) ^ o..._ ..) ^ ) / ^ / o."
};
