/* XPM */
static char *result[] = {
/* columns rows colors chars-per-pixel */
"64 64 196 2 ",
"   c #2B1B0C",
".  c #321F0D",
"X  c #34210F",
"o  c #39220F",
"O  c #372310",
"+  c #3A2511",
"@  c #3E2913",
"#  c #422C14",
"$  c #4A2D14",
"%  c #532D13",
"&  c #473017",
"*  c #4D3217",
"=  c #4D3419",
"-  c #513115",
";  c #51371B",
":  c #543A1D",
">  c #5A3C1E",
",  c #5B3F20",
"<  c #6E431F",
"1  c #77441D",
"2  c #7D441C",
"3  c #5E4121",
"4  c #634322",
"5  c #6B4522",
"6  c #6B4925",
"7  c #724620",
"8  c #764921",
"9  c #7B4C23",
"0  c #794F2B",
"q  c #83481E",
"w  c #834D22",
"e  c #894F22",
"r  c #855025",
"t  c #8C5325",
"y  c #925626",
"u  c #905D26",
"i  c #955B2A",
"p  c #9A5F2B",
"a  c #8B5C32",
"s  c #9B622D",
"d  c #976A28",
"f  c #9A7D25",
"g  c #9C772A",
"h  c #9E6631",
"j  c #9A683B",
"k  c #A36827",
"l  c #A4632D",
"z  c #A9672E",
"x  c #AC692F",
"c  c #A27E2F",
"v  c #AA7C2C",
"b  c #A16533",
"n  c #A46C35",
"m  c #AD6B31",
"M  c #A86738",
"N  c #A66E3A",
"B  c #AB6C3C",
"V  c #B46E33",
"C  c #B26D3A",
"Z  c #A77631",
"A  c #A77039",
"S  c #AB743C",
"D  c #AC7B3C",
"F  c #B57134",
"G  c #B97436",
"H  c #B37B32",
"J  c #BA7A37",
"K  c #B4743C",
"L  c #BC7738",
"P  c #BD7A3A",
"I  c #C27D3C",
"U  c #AE6E41",
"Y  c #B36D43",
"T  c #BB6E49",
"R  c #AD7140",
"E  c #B57443",
"W  c #B97643",
"Q  c #B57943",
"!  c #BB7A45",
"~  c #BD7848",
"^  c #C07F48",
"/  c #7FA23E",
"(  c #99861E",
")  c #988B1F",
"_  c #8E9E1A",
"`  c #96951C",
"'  c #99911C",
"]  c #919B1C",
"[  c #989C18",
"{  c #A5971D",
"}  c #8CAF0A",
"|  c #95A70B",
" . c #92AC0D",
".. c #8DB500",
"X. c #8EBC00",
"o. c #90B604",
"O. c #92BD01",
"+. c #98BE05",
"@. c #93B30A",
"#. c #9EB70D",
"$. c #94BB0B",
"%. c #87A716",
"&. c #88A517",
"*. c #86A815",
"=. c #89AB16",
"-. c #8CA119",
";. c #8BAC1A",
":. c #95A214",
">. c #9BAB18",
",. c #8DB718",
"<. c #9CBD1B",
"1. c #A1BB0F",
"2. c #A3AB1A",
"3. c #A7B315",
"4. c #9B8425",
"5. c #9C8C23",
"6. c #9A9221",
"7. c #9A9325",
"8. c #A38527",
"9. c #A18926",
"0. c #A58429",
"q. c #AB832C",
"w. c #A58D2B",
"e. c #A79621",
"r. c #A5932B",
"t. c #A98534",
"y. c #BA8338",
"u. c #87A925",
"i. c #87AC2D",
"p. c #8BB325",
"a. c #93B223",
"s. c #9AB629",
"d. c #9DBA2C",
"f. c #85A932",
"g. c #86AA39",
"h. c #A2BD31",
"j. c #C5813F",
"k. c #C3973C",
"l. c #8FC300",
"z. c #93C401",
"x. c #99C501",
"c. c #96C901",
"v. c #9BCA01",
"b. c #95C50A",
"n. c #9DC20B",
"m. c #9DCC0C",
"M. c #9AC713",
"N. c #9BC414",
"B. c #9FC61B",
"V. c #A1CD02",
"C. c #A4D101",
"Z. c #ABD401",
"A. c #A4CC17",
"S. c #A2C81D",
"D. c #A7C728",
"F. c #A9C62E",
"G. c #ABD024",
"H. c #A7C235",
"J. c #ABC437",
"K. c #ADCB37",
"L. c #ACC53B",
"P. c #AFC83E",
"I. c #B1CB3C",
"U. c #B9D73D",
"Y. c #BF814A",
"T. c #C68340",
"R. c #C98642",
"E. c #CD8A45",
"W. c #C4824B",
"Q. c #C8874F",
"!. c #C9884F",
"~. c #D08D47",
"^. c #D08E48",
"/. c #D4934C",
"(. c #C98A50",
"). c #D69750",
"_. c #D79951",
"`. c #D99B53",
"'. c #DCA058",
"]. c #E4AE63",
"[. c #B4CC44",
"{. c #B8CF46",
"}. c #B7CE48",
"|. c #B9CF49",
" X c #BAD444",
".X c #BCD14C",
"XX c #C4DD4E",
"oX c #C2D652",
"OX c #C4D953",
"+X c #CBDD5C",
"@X c #C7E14C",
"#X c #CCE253",
"$X c #D0E65B",
"%X c #F5C97B",
"&X c #D3E364",
"*X c #DBE96C",
/* pixels */
"z.z.c.z.l.l.z.c.z.l.l.O.C.c.c.O.c.c.c.z.c.c.l.l.l.l.l.l.l.X.v.x.x.z.z.l.l.l.l.l.l.l.l.l.v.c.c.c.l.c.c.V.l.c.c.z.c.l.X.x.v.z.z.O.",
"z.l.l.l.l.l.l.l.z.Z.C.x.v.v.c.z.c.c.z.c.c.z.l.l.l.l.l.l.l.l.O.v.x.v.c.z.l.l.l.l.l.l.l.l.z.c.c.c.c.c.c.c.z.c.c.l.l.l.z.X.z.c.l.l.",
"l.l.l.l.l.l.l.X.v.v.v.v.z.z.c.z.z.l.l.c.z.l.l.l.l.z.c.l.z.X.z.V.c.z.c.c.l.l.z.l.l.z.l.l.l.l.l.c.l.c.c.c.z.c.l.l.l.c.c.c.c.c.l.l.",
"l.l.l.l.l.l.l.X.v.c.z.v.c.z.c.z.z.l.l.l.l.l.l.l.z.v.c.l.V.c.z.l.z.l.l.l.l.l.z.v.z.v.z.l.l.l.l.l.l.l.c.l.l.l.l.l.X.X.z.z.c.c.l.l.",
"l.l.l.l.l.l.l.l.l.c.c.c.c.l.l.l.l.c.z.l.l.l.l.l.X...v.c.z.v.l.l.l.l.l.l.l.l.z.v.v.z.z.X.z.l.l.l.l.l.l.l.l.l.l.b.z.x.c.c.z.c.l.l.",
"z.l.l.l.l.l.l.l.l.X.c.c.z.l.l.l.l.c.x.l.l.l.l.z.v.v.O.c.z.v.c.l.l.l.l.l.l.l.x.z.c.c.c.O.z.b.l.l.l.l.X.l.X.l.l.l.z.v.z.z.z.l.l.l.",
"V.z.x.l.x.z.l.l.l.l.l.l.l.l.l.l.z.c.z.z.l.l.l.x.v.v.z.c.c.c.z.l.l.l.l.l.l.l.O.l.C.v.c.c.c.c.c.l.......X.X.l.l.l.X.x.v.z.l.l.l.l.",
"z.v.X.v.z.c.z.l.l.X.X.X.l.l.z.l.z.z.z.v.v.c.l.X.X...z.z.c.c.z.l.l.l.l.l.l.l.v.z.v.v.z.c.z.l.z.l.X.l.l.l.l.l.l.l.l.X.z.X.X.O.V.c.",
"z.c.v.c.z.c.z.l...............l.l.z.z.x.x.v.l.l.z.c.c.c.z.z.X.X.......X.X.X...v.z.z.c.c.c.c.l.l.l.l.l.l.z.l.l.l.X.l.l.l.l.x.z.z.",
"z.z.z.z.l.l.l.l.X.X.........X.l.z.c.c.v.V.V.l.l.v.v.c.v.z.z.l.X.X.X...X.X.l.x.x.z.z.v.c.c.l.l.l.c.c.c.c.z.X.............X.z.O.z.",
"z.l.X.v.l.v.z.l.z.z.z.l.X.l.l.l.l.z.l.z.x.X.l.l.V.C.x.z.v.c.l.l.l.l.l.l.l.l.X.O.z.z.z.l.l.l.l.c.c.c.v.c.l.l.l.X...X.X...l.O.v.z.",
"c.l.l.v.v.c.c.z.O.v.l.l.z.l.l.l.l.z.X.l.X.l.l.l.n.S.U.@X#X#XXXU.G.B.M.b.l.l.l.l.z.l.l.l.l.l.l.m.v.v.c.z.c.z.z.z.l.l.l.l.l.z.z.v.",
"z.c.l.z.v.c.c.c.z.c.z.x.C.l.l.l.v.Z...l.l.b.U.$X&X+XoX.X.X[..X|.|.|.|.|.P.D.N.x.z.l.l.l.l.l.l...z.z.z.v.z.c.c.z.c.c.l.l.z.z.l.X.",
"z.z.l.l.x.c.c.z.z.c.z.v.z.M.b.l.c.v.O.B.@X&XOX.X|.|.|.|.}.}.}.|.|.|.|.|.|..X|.|.F.M.l.l.l.l.l.l.X.z.v.c.c.v.z.z.c.z.l.c.v.c.z.z.",
"l.l.l.X.v.z.z.z.c.c.z.c.l.[.b.B.B.m. X&XoX}.|.|.|.|.|.|.|..X|.|.|.|.|.|.|.|.|.|.{..XK.b.l.l.l.l.z.V.x.c.v.z.X.c.c.c.z.v.v.c.v.l.",
"l.l.l.l.l.l.l.X.l.O.b.b.l.}.I..XOX*XXX|.|.|.|.|.|.|.|.|.|.|.|.|.|.L.|.|.d.H.|.|..X[.|.[.D.z.l.l.x.O.O.v.x.X.l.v.c.c.z.v.v.v.c.z.",
"l.l.l.X.............<.[.F.}.|.*X&X}.|.|.|.|.|.|.|.|.|.|.|.|.}.|.d.*.d.[.d.*.a.K.[..X}.[..XK.b.v.v.v.V.O.l.l.l.v.c.z.z.x.c.v.v.z.",
"l.z.z.l.X...........h.I.|.|.*XOX|.}.|.|.|.|.|.|.|.|.|.|.|.|.[.d.*.*.&.&.;.&.&.%.s.P..Xd.d.{.H.x.z.V.z.l.l.l.X.x.V.z.X.v.c.x.x.l.",
"z.v.c.c.z.z.c.c.x.O.<.I.|.&XoX|.|.|.|.|.|.{.|.|.}.|.[..X.XP.a.&.*.*.&.&.*.&.v 5.&.=.H.}.;.s.[.=.b.v.z.l.l.l.l.X.O.X.l...O.X.X.l.",
"C.V.v.c.c.c.c.z.v.V.S.K.+XoX|.|.|.}.P.{.|.[.[.|.[.d.d.J.a.&.-._ ] -._ J y.r.H j.^ q.] H.d.*.=.*.=.c.z.X.X.M.X.l.l.z.z.l.l.z.z.z.",
"v.V.z.z.z.z.c.v.o.O.F.I.+X|.|.|.[.d.[.|.h.h.|.{.a.*.&.] 8.H L P P P J L E.~.E.j.~.E.P 9.;.&.%.*.*.=.b.o.D.H.$...x.v.c.z.z.c.z.c.",
"v.O.z.c.X.z.c.v.O.....OX|.|.|.[.a.d.h.;.s.|.h.;.*.` v P T.E.E.^.~.~.~.E.~.~.~.~.~.~.^.j.H -.*.*.*.=.;.J.I.[.<.<.J.A.c.c.l.z.v.z.",
"z.X.z.c.o...O.O.$.} D.oXP.}.I.;.*.*.*.;.[.H.;.-.0.L E.^.~.~.^.^.~.~.~.~.~.~.~.~.~.~.^.~.E.H _ &.*.*.*.a.[.|.P.{.G.c.c.v.O.v.v.z.",
"l.z.l.v.O.O.X.X.u.%.P.h.h.L.=._ ` -.4.s.L.&.] H T._.]./.~.~.^.E.~.~.~.~.~.~.~.~.~.~.~.~.~.E.H _ *._ *.*.s.}.|.|. XA.V.....v.z.l.",
"z.l.z.l.c.b.b.c.f.f.s.=.h.%.) F r.I 6.h.;.` G E./.`./.E.T.P P J P I T.E.~.~.~.~.~.~.~.~.~.~.E.H _ v v ` &.s.|.|..XD.....X.X.z.c.",
"c.c.z.c.z.b.i.g.g.u.&.&.&.0.j.E.E.H &.=.6.J E.E.E.R.L l t r 9 r r y l F P R.~.~.~.~.~.~.~.~.~.E.H _ F F H 5.s.[.{.J.o.X.z.l.z.z.",
"x.c.v.z.c.,.g./ / &.v &.0.E.~.~.R.7.&.6.P E.E.j.F t 5 < 3 3 3 3 4 4 < r p V L E.~.~.~.~.~.~.~.~.R.5.' V F V k e.B.z.O.X.l.l.l.z.",
"X.l.X.l.c.$.i./ &.v 8.8.j.~.j.~.P &.-.H E.j.V i 5 3 3 3 3 3 4 4 4 6 6 4 < 7 y V I ~.~.~.~.~.~.~.^.I ] t.E.E.j.V { v.v.z.l.l.l.z.",
"l.l.z.x.X.,.i.f.5.I H j.~.j.E.~.G _ P E.L z 9 3 4 3 3 3 > : ; ; ; > 3 6 6 3 4 7 p L E.~.~.~.~.~.^.~.H 6.R.~.~.R.F e.c.l.l.l.l.l.",
"v.v.b.z.x.,.p.9.^ E.E.~.I R.~.E.F I T.G s < 4 6 3 3 : & # @ & @ # # # = 4 4 3 3 5 i G R.~.~.~.].`.E.E.H I ~.~.~.I V { l.l.l.z.c.",
"c.v.c.c.v.O.7.^ ~.~.~.I j.~.~.j.R.R.G p 7 4 6 3 : & @ @ # @ # @ # @ # # & 3 3 4 , 4 p F E.~.~./.).`.~.I I ~.~.~.~.G V { l.l.c.c.",
"c.z.V.v.z.3.R.^._.~.j.P ~.~.~.~.R.V l 9 3 6 , = @ # # # @ + + O O + @ # # & 3 3 5 3 4 l G T.E.E.^.~.~.E.P ~.~.~.~.I F F $.z.c.z.",
"z.v.z.v.c.k.E.].`.~.G R.~./././.G z s 3 3 3 ; @ # @ .                 X @ # = 3 6 3 3 8 m L R.T.T.E.T.^.E.~.~.~.~.~.V V 3.z.z.z.",
"O.x.z.v.1.~.^.`.^.I L ~.E._._.I V V 6 3 4 > # # +                         @ @ ; 3 6 3 3 p m G T.G E.R.I ~.~.~.~.~.~.G { l.l.l.z.",
"z.z.z.z.3.T.E.^.~.L I ~.I ~./.F V p 3 4 4 & # +                             @ & 3 6 3 3 7 p V F I P ^.F j.~.~.'./.~.V { l.l.l.z.",
"l.l.l.l.b.G R.E.E.G I ~.P ~.^.V F w 3 4 , # @                               X @ = 3 4 3 4 e V C C V E.G V ~./.%X_.I F F O.l.l.l.",
"l.l.l.l.x.>.V F V V I T.F ^.T.x V 8 3 6 = # O                                 # # 3 4 3 3 1 x V l V I I V I ~.`.`.G G V 2.v.l.l.",
"l.l.l.z.>.D n l m V G I V ^.J C V 7 4 4 & #                                   + # , 3 3 4 < z V x m F I z V j.~.T.V V F #.v.c.l.",
"l.l.l.r.S S A h l V V V x I F V V 7 4 4 # #                                   O # , 3 3 6 5 m V V x F V z F L V V V V q.C.l.l.l.",
"V.b.r.S S D b p V V V V l V V x F 8 3 3 # @                                   + & , 3 3 6 9 V x F x V V z F I V G V m f $.c.c.z.",
"z.2.S S S h h h C C V V x V V z V r 4 3 # #                                   @ ; , 4 6 < u m V V V G V V F V V x p i s n :.c.c.",
"z.D A U S h N T T T C E W V V V V p > 3 ; $ O                                 # : 3 , , < V z V m V V V C M y t t i i h h Z @.c.",
"v.A T T Q W.Q.W.! E (.Q.W.W.K V V l > 3 > = #                               + # : : , a E C b M p i b T T T Y Q Q R S S R S r.c.",
"c.R U E Q.Q.W.~ W.U W.W.W.W.W Y T V e * : & # +                           O # # # 4 Q Q.W.W.R T Y ^ !.W.W E Q.(.W.W.Q S D S D z.",
"c.t.A B E Q W.Y.Q Y U E W W B M l y t 1 % $ $ * $ o o O . . . . X o # - 0 j R N e U ! ~ Y.! N U W.Q.W.W.^ U ^ ^ ^ ^ ^ U Y S S c.",
"v.>.S S N Y.Q.W.W.B B S S S S S M l i e t h n b s i q 2 2 w t i i s i p Q ! ! E N B N A A A B B E ! W.! Q Y Y W ~ Q B B E S w.c.",
"V.b.w.R N B S U R S S D S S S S S S S n s s n S S S A N h i y u s h A S S S S S S S S S S S S S A ~ Q.W.W.E S S S B S S S c $.c.",
"O.l.O.t.S S S S S S S S S S S S S S S D D A s b S S D S S A N l s A D S S S S S S S S S S S D S S N S M N N S S S S D S g o.l.C.",
"l.l.l.n.t.A n s i y i s h A S S S S S S S S S A S D S S S D S S N b S D S S S S S S S S S S S S N t t p A S S S S S b 5.} X.l.l.",
"l.l.X.z.z.' d p p p i u e w t s s i s s h n n n A D S S S S S S K D N n S S S S D S S N N h h t e p h n A N N n s f  .X.X.l.l.l.",
"l.l.l.l.X.z.@.5.h s s s s s s y 2 u s p s h N S D S S S S D S A n s f [ h N S S D S A N s s h i t t i s s s d 4. .l.l.l.l.l.l.l.",
"l.l.z.z.l.z.X.z.+.` f s s s s s s u d s s n A A B D A M n n h g ' +.z.z.$.' g h n N S S S S A N h s s g 4.:.l.l.z.l.c.l.l.l.l.l.",
"l.l.O.v.c.z.X.z.c.X.v.O.@. . . .@.O.X.$.| :.` 6.( ( ) ` [ @.O.V.v.c.z.c.v.z.C.#.[ ' 4.4.4.4.5.` >.#.o.b.l.l.l.X.Z.v.z.c.c.c.c.l.",
"l.l.z.x.c.v.l.c.b.v.C.l.l.l.l.l.l.X.V.O.V.O.z.v.V.O.z.l.l.X.V.z.c.v.l.c.v.z.c.v.l.z.O.z.v.o.z.l.l.l.X.X...X.l.l.c.v.v.c.c.c.l.l.",
"z.V.v.v.c.c.z.c.z.V.V.v.l.l.l.l.l.z.v.z.v.x.X.v.x.x.l.X.X.x.V.x.Z.z.l.c.c.l.l.l.l.l.l.l.v.O.l.z.l.l.X.........X.Z.V.c.c.c.c.c.c.",
"l.z.z.c.c.z.c.c.z.v.v.l.l.l.l.l.l.c.v.v.v.v.l.v.c.x.l.O.v.z.o.x.z.l.l.z.l.l.l.z.c.z.l.z.z.v.z.z.X.l.l.X.X.X.l.l.O.V.v.c.c.C.c.c.",
"l.l.l.l.z.z.X.O.z.z.l.l.l.l.l.l.l.z.c.v.c.c.c.c.c.z.O.v.c.z.V.v.l.X.l.l.l.l.l.c.z.c.z.z.c.z.v.v.v.O.X.l.l.l.l.l.z.z.X.v.C.z.c.c.",
"l.l.l.l.l.......X.l.l.l.l.l.l.l.l.l.c.c.c.c.l.c.z.z.v.c.c.v.v.O.l.l.l.l.l.l.l.b.x.x.v.z.x.z.x.x.o.....l.l.l.l.l.l.X.+.c.z...v.c.",
"l.l.l.l.X.l.l.X.l.l.l.l.l.l.l.l.l.l.z.l.l.l.l.c.c.z.c.c.c.c.z.z.....z.l.l.l.l.l.O.O...x.X.x.x.O.......X.l.X.X.X.X.X.X.l.l.X.v.Z.",
"l.l.l.........l.l.X.X.X.X.l.l.l.l.l.l.l.l.l.l.l.z.z.z.c.c.z.v.v.V.c.l.l.l.l.l.l.z.o.........O.........X...............l.l.z...z.",
"l.x.z.z.O.X.z.z.l.X.......X.l.l.l.X.V.X.l.l.l.l.l.l.l.z.c.v.c.v.c.l.c.l.l.l.l...X.l.X.............X.X.z.l.X.X.l.l.l.l.l.l.l.l.l.",
"x.O.v.x.v.z.O.x.l.l.z.l.l.l.l.X.v.O.V.x.z.l.l.l.l.l.l.z.c.c.c.z.z.l.v.l.l.l.l.l.l.l.l.z.l.X.X.l.z.l.l.X...l.l.l.l.l.l.l.l.l.l.l.",
"O.v.z.v.v.V.V.v.c.l.l.X.l.z.l.O.v.z.v.V.V.Z.l.l.l.l.l.l.l.l.l.l.l.l.z.c.l.l.l.l.l.l.l.z.l.v.z.l.v.z.z.l.l.z.c.c.l.l.l.l.l.l.l.l.",
"v.v.c.z.c.z.c.z.v.l.z.v.Z.v.z.O.c.c.v.v.C.v.c.l.l.l.l.l.l.l.z.v.c.b.z.c.c.l.l.l.l.l.l.z.V.z.C.z.v.C.V.z.l.C.V.V.V.z.z.c.z.l.z.V."
};
