/* XPM */
static char *sheep_eat071696685601[] = {
/* columns rows colors chars-per-pixel */
"64 64 181 2 ",
"   c #161413",
".  c #191615",
"X  c #1B1915",
"o  c #1E1B19",
"O  c #211E1B",
"+  c #1F2111",
"@  c #2D360F",
"#  c #333B0F",
"$  c #202311",
"%  c #252911",
"&  c #282E10",
"*  c #25211E",
"=  c #28241F",
"-  c #2A3110",
";  c #262321",
":  c #292521",
">  c #2E2925",
",  c #2E2B2A",
"<  c #332D27",
"1  c #322E2B",
"2  c #34302D",
"3  c #3C342D",
"4  c #393633",
"5  c #3B3836",
"6  c #3C3936",
"7  c #433A32",
"8  c #423E39",
"9  c #36420E",
"0  c #38440E",
"q  c #3D4B0D",
"w  c #404D0E",
"e  c #45560C",
"r  c #475A0B",
"t  c #495D0B",
"y  c #4E630B",
"u  c #526A0A",
"i  c #556B0A",
"p  c #5A7308",
"a  c #5B7608",
"s  c #5E7A08",
"d  c #637E08",
"f  c #45423F",
"g  c #4D4239",
"h  c #51463B",
"j  c #53493D",
"k  c #474440",
"l  c #494642",
"z  c #4E4B46",
"x  c #4E4B48",
"c  c #5A4E42",
"v  c #524E4A",
"b  c #585552",
"n  c #5D5A55",
"m  c #625546",
"M  c #655749",
"N  c #6A5C4C",
"B  c #675D53",
"V  c #615E58",
"C  c #64615C",
"Z  c #69655F",
"A  c #726352",
"S  c #786756",
"D  c #766858",
"F  c #7D6C5A",
"G  c #666461",
"H  c #6A6660",
"J  c #6E6B65",
"K  c #746D63",
"L  c #716E6A",
"P  c #74716C",
"I  c #7B756E",
"U  c #7B7770",
"Y  c #7E7A73",
"T  c #816F5C",
"R  c #84715C",
"E  c #867461",
"W  c #8A7662",
"Q  c #8D7965",
"!  c #907B67",
"~  c #937E69",
"^  c #827D76",
"/  c #658407",
"(  c #688307",
")  c #6B8D06",
"_  c #728C08",
"`  c #6E9405",
"'  c #769605",
"]  c #749C04",
"[  c #7CA404",
"{  c #7FA904",
"}  c #81A405",
"|  c #83AD02",
" . c #8BAD00",
".. c #86B302",
"X. c #8DB400",
"o. c #8EBC00",
"O. c #90B701",
"+. c #92BD01",
"@. c #98BF01",
"#. c #8FC300",
"$. c #93C400",
"%. c #99C501",
"&. c #96C900",
"*. c #9BCA01",
"=. c #A2CD02",
"-. c #A8CF01",
";. c #A4D101",
":. c #ABD401",
">. c #96816B",
",. c #9A846D",
"<. c #9F886F",
"1. c #8E8175",
"2. c #85827D",
"3. c #8B857D",
"4. c #9C8670",
"5. c #9E8871",
"6. c #978B7F",
"7. c #A28B73",
"8. c #A89176",
"9. c #A6937D",
"0. c #AA937A",
"q. c #B1977A",
"w. c #B49A7E",
"e. c #B89C7F",
"r. c #8D8A85",
"t. c #8E8B85",
"y. c #928D85",
"u. c #968F86",
"i. c #95918A",
"p. c #9B968D",
"a. c #9F9B93",
"s. c #A39483",
"d. c #B79D80",
"f. c #B99E81",
"g. c #A29D94",
"h. c #A19F99",
"j. c #BEA284",
"k. c #B5A28C",
"l. c #A7A299",
"z. c #A9A49B",
"x. c #ADA89E",
"c. c #BCA994",
"v. c #AFAAA0",
"b. c #B3AEA4",
"n. c #B1AEA9",
"m. c #B6B2A7",
"M. c #B8B3A7",
"N. c #BAB5AA",
"B. c #BFBAAE",
"V. c #BDBBB5",
"C. c #C1A687",
"Z. c #C4A788",
"A. c #CBAE8D",
"S. c #CEB08F",
"D. c #C3AC93",
"F. c #CAB295",
"G. c #D3B491",
"H. c #D7BB9A",
"J. c #D9BEA0",
"K. c #C2BEB2",
"L. c #DCC3A6",
"P. c #C6C1B5",
"I. c #C8C4B7",
"U. c #CBC6B9",
"Y. c #CDC8BC",
"T. c #D1CCBF",
"R. c #E4D0B9",
"E. c #CDCBC4",
"W. c #D3CEC2",
"Q. c #D6D1C4",
"!. c #D9D4C6",
"~. c #D7D5CE",
"^. c #DBD6C8",
"/. c #DED9CD",
"(. c #DEDCD4",
"). c #E0DCCF",
"_. c #E2DED6",
"`. c #E4E1D6",
"'. c #E6E3DA",
"]. c #E8E5DD",
"[. c #EBE9E0",
/* pixels */
"$.$.&.$.#.#.&.&.$.#.$.+.=.&.$.$.*.&.&.&.&.&.#.#.#.#.#.#.#.+.%.&.%.&.$.$.$.#.#.#.#.#.#.#.*.&.&.*.$.&.&.=.#.&.*.&.&.#.o.%.*.$.$.o.",
"$.#.#.#.#.#.#.#.o.:.;.&.*.*.*.$.&.&.$.$.&.#.#.#.#.#.#.#.#.$.+.%.&.&.$.$.#.#.#.#.#.#.#.#.#.&.&.&.#.&.&.&.$.&.#.#.#.#.#.O.&.&.$.#.",
"#.#.#.#.#.#.#.o.*.*.*.*.$.$.&.$.$.#.$.$.$.#.#.#.$.$.&.#.$.#.&.=.&.$.$.$.#.#.$.#.#.$.#.#.#.#.#.&.#.&.&.&.&.&.#.#.#.&.&.&.&.&.#.#.",
"#.#.#.#.#.#.#.o.*.*.&.&.&.$.$.$.#.#.#.#.#.#.#.#.#.*.&.#.=.$.#.#.$.$.$.$.#.#.$.*.$.*.$.#.#.#.#.$.#.$.&.#.#.#.#.#.o.o.#.&.&.$.#.#.",
"#.#.#.#.#.#.#.#.+.&.&.&.&.#.$.#.#.&.$.#.#.#.#.$.#.X.&.&.%.*.$.#.#.#.#.#.#.#.$.&.*.$.$.+.$.#.#.#.#.#.$.#.#.#.#.#.$.%.&.&.&.*.#.#.",
"$.#.#.#.#.#.#.#.#.#.&.&.$.#.#.#.#.&.*.#.#.#.#.&.*.*.$.&.&.$.$.#.#.#.#.#.#.#.$.$.&.&.&.+.$.$.$.#.#.#.o.o.#.#.#.#.$.*.$.$.#.#.#.#.",
"=.$.%.#.*.$.$.#.#.#.#.#.#.#.#.#.$.$.$.#.#.#.#.$.%.*.&.&.&.&.$.#.#.#.#.#.#.$.$.+.=.&.&.&.&.&.$.#.....O.o.O.#.#.#.o.$.*.$.#.$.#.#.",
"$.*.o.*.$.$.#.#.#.o.o.o.#.#.#.#.$.&.$.=.*.$.#.o.O.X.#.$.&.&.$.#.#.#.#.#.#.$.*.$.*.=.&.$.$.#.$.#.#.#.#.#.#.#.#.#.#.+.#.o.O.$.*.&.",
"$.*.*.$.&.&.#.#.X.X.X.X.X.X.X.#.#.$.$.$.&.=.#.#.$.&.&.&.&.$.o.X.X.X.X.o.o.o.X.%.$.$.&.&.&.&.#.#.#.#.&.#.#.#.#.#.o.#.$.#.o.@.%.&.",
"$.$.$.$.#.#.#.#.o.o.X.X.X.X.o.#.$.&.&.*.=.=.#.#.*.&.*.*.$.$.$.o.o.o.X.o.#.#.%.%.$.$.*.*.&.&.#.#.#.&.&.&.$.o.X.X...O.o...o.$.o.$.",
"$.#.#.*.#.*.$.#.#.$.$.#.#.#.#.#.#.$.$.$.@.o.o.#.=.;.%.$.&.&.#.#.#.#.$.#.#.#.#.O.&.$.#.#.#.#.#.$.&.&.&.&.$.#.#.o.o.O...o.#.+.%.$.",
"$.#.#.*.*.$.&.$.$.*.+.#.$.#.#.#.o.$.o.#.$.#.#.#.+.+.+.*.*.*.#.#.#.+.$.#.#.#.o.$.#.#.#.#.#.#.#.*.*.*.&.$.&.$.$.#.$.$.$.#.#.$.$.*.",
"&.$.#.$.=.$.*.$.&.&.$.%.;.#.#.#.*.:.X.#.#.$.#.#.$.#.$.:.&.$.#.#.$.%.*.&.+.%.O.%.$.#.#.#.#.#.#.o.$.$.$.*.*.&.&.$.&.$.#.$.$.$.#.o.",
"$.$.#.#.$.&.&.&.$.&.$.*.$.#.#.#.&.*.O.$.$.$.o.$.#.#.#.+.#.#.#.#.o.=.$.&.&.&.$.&.%.#.#.#.#.#.#.#.o.&.*.&.$.&.+.&.&.$.#.*.*.&.&.$.",
"$.#.#.o.*.&.$.$.$.&.$.&.#.#.#.#.$.&.%.=.=.$.o.#.#.#.#.#.#.#.#.*.*.*.&.&.&.#.&.$.&.$.#.#.#.#.#.o.$.=.&.$.*.&.o.&.&.&.$.$.*.&.&.#.",
"#.#.#.#.#.#.o.#.+.+.o.$.#.#.#.#.$.*.%.=.$.&.=.*.o.#.#.#.#.#.o.#.$.&.&.$.$.#.$.$.&.#.#.#.#.#.#.#.$.+.O.=.%.o.#.*.&.&.&.*.*.&.*.$.",
"#.#.#.o.o.X.X.X.X.X.X.X.X.X.X.o.#.&.*.&.&.&.*.:.&.#.+.o.X.X.o.#.#.#.o.%.$.#.#.#.#.#.#.#.=.#.#.*.=.*.=.O.o.#.#.*.*.&.+.%.*.*.*.+.",
"#.#.#.$.o.X.X.X.X.X.X.X.X.X.X.X.o.$.&.&.&.&.*.*.o.#.o.X.o.o.o.+.$.$.+.+.*.$.#.#.#.*.$.$.=.$.&.*.&.*.$.$.#.#.o.$.=.$.o.&.&.&.$.$.",
"&.&.&.&.$.$.$.&.%.O.O.o.o.#.#.$.#.#.$.&.$.$.*.;.*.X.X.X.X.X.X.*.&.$. .&.$.X.$.$.&.;.*.&.&.$.*.&.*.*.$.$.$.#.#.o.O.#.#.o.O.o.+.$.",
";.=.*.&.&.&.&.$.*.=.+.X.X.o.o.#.#.#.#.#.#.$.$.#.$.X.X.X.X.X.X.=.*.$.$.$.$.$.;.#.#.&.*.#.&.&.$.&.*.*.#.#.#.o.o.$.$.$.#.#.#.$.$.$.",
"%.=.$.$.$.$.*.*.O.+.O.X.X.X.o.#.#.#.#.#.#.#.#.#.#.o.X.X.X.%.%.%.*.$.$.&.&.*.=.$.#.#.&.&.&.$.$.*.&.&.o.X.X.X.X.X.&.*.&.&.$.&.$.&.",
"*.$.+.&.o.$.&.*.+.X.O.X.X.X.o.%.*.&.$.$.$.$.#.#.#.#.+.X.X.+.*.*.&.&.$.&.*.*.-.*.#.#.$.#.O.+.o.$.$.O.O. .X.X.X.X.o.*.&.&.$.&.$.$.",
"$.+.$.&.O.X.+.+.O.X. .X.X.o.$.*.&.*.&.&.&.$.#.o.o.o.o.o.X.X.$.$.&.&.&.&.&.&.&.#.#.#.#.#.*.$.*.o.#.*.%.O.X.X.X.O.*.*.&.*.O.*.*.$.",
"#.$.$.&.o.$.O.o.X. . . .X.o.o.;.=.&.&.&.*.&.$.o.X.X.o.o.#.$.o.#.#.#.$.$.$.$.#.#.#.#.$.$.*.$.*.} / [ *.O.X.X.O.@.%.*.=.O.X.*.$.$.",
"$.#.$.#.&.&.&.$.+. . . . .o.#.$.*.*.$.*.=.&.&.#.#.#.#.$.&.$.$.#.#.#.#.#.#.#.#.#.#.#.#.o.a y q   ; . $ X # ( } | O.%.X.X.o.o.$.&.",
"&.&.$.&.&.&.%.*.$.#.#.#.#.#.#.$.#.$.=.*.$.&.&.#.#.#.#.$.$.$.&.$.$.&.*.#.#.#.#.#.$.#.| # o 4 ; r.(.r.b r.8     % ' O.X.o.$.#.#.&.",
"%.&.*.$.&.%.%.#.#.o.#.%.*.#.#.#.o.$.$.$.o.*.=.$.#.#.$.$.y @ @ y q X + q { &.$.*.` 9 X , E.].(._.z.V k v.(.h.V.P O [ +.$.#.#.#.$.",
"o.#.o.#.$.$.$.#.#.$.=.*.*.o.o.#.#.#.o.#.o.o.*...a t a w ; G G : 4 r.^ 4 % 9 - 9 $ f J ; n Y.^.^.^.^.U.K.I.!.`.`.X q O.$.$.#.#.#.",
"#.$.&.%.o.o.#.#.#.$.&.&.$.*.:.+.#.o.+.&.$.$.{ & ; b , o E.[.].E._.[.[.'.x J r.5 4 W.M.3.^.^.^.^.^.^.^.^.T.Q.^.`.i.1 9 #.#.#.#.#.",
"*.*.$.&.%.+.#.#.#.$.$.&.&.*.=.#.$.$.=.*.$.[ q , E.[.~.a.`.W.^./././.^._._.'.(.V v !.^.W.^.W.I.^.^.^.^.^.^.^.^.^.`.V.  ` #.#.$.&.",
"&.&.*.&.*.O.o.#.#.#.&.&.$.$.$.#.#.*.;.X.-     P r.G i.(.P.h.P.K.!.!.^.^./.^.^.i.. r.U.N.K.M.U.W.^.I.^.^.^.!.W.^.(.E.  / #.#.&.&.",
"&.$.*.*.$.%.$.#.#.&.&.&.&.$.+.O.o.#.$.t 2 n.K.x 5 U P b.W.K.Y.l.Q.^.^.^.^.^.U.N.  4 * , p.p.8 b Y 1 z L n N.m.^.^.E., r #.$.&.$.",
"$.*.$.*.$.+.#.#.#.&.&.&.$.*.=.;.#.#.| % i.'.l.2 Q.^.^.^.^.^.^.^.^.^.^.^.^.^.P.^   : =       < X           1 Y z.W.!.x 9 #.$.$.$.",
"+.%.$.*.*.$.#.#.#.%.&.%.*.O.o.#.#.) +   i./.y.6.^.^.^.^.^.^.^.^.^.^.^.^.^.^.y.O f 4.9.X N E h   7 N T 8   . .   1 x   a #.#.#.&.",
"#.$.&.$.*.$.$.$.#.$.;.$.&.*.#.#.{ + P E.`.^.Y.Y.^.^.^.^.^.^.^.^.^.^.^.^.^.m.o g 7.A.k.  5.W   M 7.A.G.H.D . j =   $ ) #.#.#.#.$.",
"#.#.$.#.$.$.$.$.$.o.o.+.o.X.o.#.p o W.^.^.^.^.^.^.^.^.^.^.^.^.^.^.^.^.^.Y.4 < ~ j.G.F * A.h * ~ C.G.G.H.A.= . < >   ( $.#.#.#.#.",
"#.#.#.#.$.&.$.*.%.+. . . .X. .X.t , ~.^.^.^.^.^.^.^.^.^.^.^.^.^.^.^.^.^.J o Q 8.A.c.> c G.< . = ,.G.G.G.G.7 g j.H.K + [ *.*.#.#.",
"#.#.#.$.$.&.*.*.*.$.o.O.X.X.X.X.a o I.^.^.^.^.^.^.^.^.^.^.^.^.^.^.!.T.U.; g 5.C.A.1.. >.G.3 7 <   7 S Q F < j A.G.F.o p &.*.#.#.",
"#.#.#.#.$.$.$.$.$.#.#.#.o.o.#.#.a . J ^.K.Q.^.^.^.^.^.^.^.^.^.^.^.K.x.^ * Q 8.G.H.B 7 e.G.N = Q R M 3 * O   N S.G.G.2 e ;.#.&.#.",
";.$.#.#.$.*.#.$.$.&.#.#.&.$.#.#.& z Q.Q.K.T.^.^.^.^.^.^.^.^.^.^.T.B.Y.5 g 5.C.G.L.3 m e.G.e.O 7 ! f.A.<.= .   7 N M o t #.&.&.#.",
"$.*.#.#.#.&.#.&.$.&.$.&.%.&.#...  u.!.z.N.^.^.^.^.^.^.^.^.^.^.^.m.g.p.  F 5.S.G.c.X B Z.G.G.7.> X > =     j S j 8 3 . ) o.X.%.&.",
"&.&.#.#.#.#.*.*.&.*.o.&.&.*.#.o.. P ^.I.Y.^.^.^.^.^.^.Q.^.^.^.^.W.W.I o F 7.G.G.s.  Q S.G.G.G.j.T m N ,.N X A ,.! < - %.;.*.%.&.",
"&.&.#.#.#.$.$.#.$.*.o.$.$.*.%.#.q + a.Y.Q.^.^.^.^.^.^.m.K.^.^.^.^.!.Z ; ,.8.G.G.K = 0.G.G.G.G.G.G.G.G.G.A.N       O 0 o.+.$.$.$.",
"$.$.#.#.o.o.o.#.#.#.$.#.$.$.$.o.{ $ 2 i.l.y.^.^.^.^.^.W.Y.Q.U.^.^.!.2.  Q 7.S.F.< 7 e.G.G.G.G.G.G.G.G.G.G.G.8.W 8.E - #.+.+.$.&.",
"$.$.#.o.O.O...O.#.#.#.#.$.$.$.%.{   Y g.2.6 ^.^.^.^.^.^.^.Y.l K.^.^.Y.4 = c N 2 : Q e.G.w.A G.G.G.G.G.G.G.G.G.G.L.u.+ o.*.*.*.&.",
"*.&.#.#.#.o.#.#.#.#.#.$.$.%.&.&.[   ^ g.i.* N.^.^.^.^.^.^.Q.b 1 K J Y.K.v O   X Q 5.w.G.,.  e.G.G.G.G.G.G.G.G.G.R.i.+ o.=.;.%.$.",
"=.$.#.#.$.+.&.#.$.#.o.o.$.%.$.$.%.% v g.g.Z ; H l.W.^.W.^.^.W.g.2.M.^.^.^.!.p.  T 7.A ,.F   e.G.G.G.G.A.G.G.G.G.J.1.- #.O.o.$.*.",
"+.#.#.$.$.$.&.&.%.&.+.=.$.$.#.+.$.a   z Y a.Y C ^ Y.^.T.K.U.W.!.!.^.^.^.T.!.Y.5 8 <.7 .   < G.G.G.G.w.< C.G.G.G.H.Z # X.o.$.$.=.",
"#.#.#.&.$.=.&.$.%.%.$.%.&.#.#.;.&.$.( - . r.a.g.g.g.m.B.b.b.W.^.Q.T.^.!.T.x.P.p.  S ,.T T O c q.G.G.S.R d.G.6 >.D.; a X.X.o.#.#.",
"#.#.$.$.$.&.&.$.#.#.$.$.&.#.#.$.*.$.&...X n l.a.y.i.g.g.g.g.b.N.x.g.M.K.v.g.l.b.2 O Q 7.7.T =   e.G.G.G.G.G.<.C.8 % | o.o.$.#.#.",
"#.#.#.#.#.#.#.*.$.#.#.$.$.#.#.#.&.$.$.&.u   x Y P u.g.g.g.g.g.g.g.g.g.g.g.p.r.g.u.4 O j ~ 7.7.Q w.j.Z.A.A.A.7.2 % ] $.#.#.#.#.#.",
"#.o.$.$.#.#.O.$.*.#.#.#.#.#.#.#.$.$.#.$.o.y       n a.g.g.g.g.g.g.g.g.g.3.2.p.g.g.p.x   = c K 4.,.7.,.~ S h X % [ $.$.$.#.#.#.#.",
"#.#.+.*.*.$.o.$.$.#.*.#.#.#.#.#.#.#.o.O.o./ o A c X ; 4 l y.g.g.Y a.g.g.C n g.g.H l x o - -     O * O     @ d o.:.*.&.&.&.&.&.#.",
"#.#.$.%.*.&.#.&.$.*.=.#.#.#.#.#.$.o.=.+.*.s     X     X   ; l 4 . 4 V z     6 k o   X y +.O.] s i y i a ' o.o.#.$.*.*.&.&.&.&.#.",
"$.*.*.&.&.&.$.&.&.=.=.*.#.$.#.$.#.$.*.*.*.d . * : . * , . @ q r _ e     * *   o * o r $.%.O.$.#.$.#.o.X.X.X.X.o.:.=.&.&.&.&.&.&.",
"#.$.*.&.&.$.&.&.&.%.*.#.#.#.#.#.#.&.&.*.*.i X : 2 . o : . e O.%.$.$.  O > :   O ; o e $.$.&.&.*.o.#.#.o.O.#.#.#.+.=.&.&.&.;.$.&.",
"#.#.$.#.#.o.o.+.#.#.#.#.#.#.$.#.#.$.&.*.&.s   .     . X % ) =.*.o.o.+   . . . . X % ) $.&.$.*.$.*.$.o.#.#.#.#.#.$.$.o.%.;.&.&.&.",
"#.#.#.#.#.o.O. .O.#.#.#.#.#.#.#.#.$.&.&.&.o.y y t u ..o.+.*.&.+.$.#.) y t t ) ..O.O.$.*.$.$.*.%.X.X.X.o.#.#.#.#.#.o.%.&.$.X.*.&.",
"#.#.#.#.#.#.#.o.#.#.#.#.#.#.#.#.#.#.#.$.#.#.#.&.*.$.&.&.&.&.$.$.X.O.#.#.#.#.#.#.+.+.O.%.O.*.+.%.X.X.X.#.#.o.o.o.o.o.o.#.#.o.%.:.",
"#.#.#.o. .X.O.#.#.#.O.o.#.#.#.#.#.#.#.$.#.#.#.#.$.$.$.&.&.$.*.*.=.$.#.#.#.#.#.#.+.X.X.X.X.O.O.X.X.X.X.o.X.X.X.X.X.X.X.#.#.o.X.&.",
"#.%.$.$.+.o.#.#.#.o...O...o.#.#.$.o.=.o.#.#.#.#.#.#.#.#.$.*.*.&.&.#.*.#.#.#.#.o.o.$.o.o.X.X.X.X.X.o.o.$.#.o.o.#.#.#.#.#.#.#.$.#.",
"$.@.=.$.*.$.@.%.#.#.$.o.#.#.#.o.$.$.=.$.$.$.#.#.#.#.#.$.&.&.&.&.#.#.*.#.#.#.#.#.#.#.#.#.#.o.o.#.$.#.$.o.X.#.#.#.#.#.#.#.#.#.#.#.",
"@.*.$.%.*.=.=.*.&.$.o.#.#.$.#.+.*.$.*.=.=.:.#.#.#.#.#.#.#.#.#.#.#.#.$.$.#.#.#.#.#.#.#.#.#.*.&.#.&.$.#.o.#.$.&.*.#.#.#.#.#.#.#.#.",
"*.*.*.$.&.$.&.$.*.#.$.*.:.*.$.$.*.$.*.*.;.*.&.#.#.#.#.#.#.#.#.*.*.&.$.&.&.#.#.#.#.#.#.+.=.&.=.$.*.;.;.&.#.;.;.*.=.$.#.&.&.#.#.;."
};
