/* XPM */
static char *result[] = {
/* columns rows colors chars-per-pixel */
"64 64 169 2 ",
"   c #161413",
".  c #191615",
"X  c #1B1914",
"o  c #1D1B1A",
"O  c #211E1D",
"+  c #1F2012",
"@  c #2C330F",
"#  c #333D0E",
"$  c #212411",
"%  c #262A11",
"&  c #23211E",
"*  c #2B3310",
"=  c #313810",
"-  c #252423",
";  c #292624",
":  c #2C2926",
">  c #2C2B2B",
",  c #322E2B",
"<  c #2F302F",
"1  c #33312E",
"2  c #353433",
"3  c #393733",
"4  c #3A3835",
"5  c #373838",
"6  c #3C3C3B",
"7  c #423D36",
"8  c #423F3B",
"9  c #37430E",
"0  c #39460D",
"q  c #3E4E0D",
"w  c #43550C",
"e  c #46590B",
"r  c #4A5C0B",
"t  c #4D630A",
"y  c #52660A",
"u  c #536A09",
"i  c #5A6F08",
"p  c #597309",
"a  c #5C7908",
"s  c #647C07",
"d  c #617D08",
"f  c #45413B",
"g  c #4A443D",
"h  c #3F4140",
"j  c #424444",
"k  c #494643",
"l  c #4D4A46",
"z  c #474949",
"x  c #4B4C4C",
"c  c #524D43",
"v  c #514D49",
"b  c #53514D",
"n  c #5A5549",
"m  c #4F5050",
"M  c #545353",
"N  c #595754",
"B  c #5D5A55",
"V  c #5B5B5B",
"C  c #615A4F",
"Z  c #645E51",
"A  c #615E5A",
"S  c #696254",
"D  c #65625C",
"F  c #68655F",
"G  c #646362",
"H  c #696661",
"J  c #6C6964",
"K  c #6E6E6E",
"L  c #716E69",
"P  c #74716D",
"I  c #79756E",
"U  c #797774",
"Y  c #7D7A72",
"T  c #7F7D7A",
"R  c #857D6A",
"E  c #817D76",
"W  c #807E7E",
"Q  c #648207",
"!  c #678806",
"~  c #6A8B06",
"^  c #648308",
"/  c #6A8309",
"(  c #6C8B08",
")  c #729505",
"_  c #749C04",
"`  c #799C05",
"'  c #7DA604",
"]  c #7EAB03",
"[  c #80A702",
"{  c #82AC02",
"}  c #85B303",
"|  c #8DB500",
" . c #8EBC00",
".. c #90B602",
"X. c #92BD01",
"o. c #98BF01",
"O. c #8FC300",
"+. c #93C400",
"@. c #99C501",
"#. c #96C901",
"$. c #9BCA01",
"%. c #A2CD02",
"&. c #A4D101",
"*. c #ABD401",
"=. c #8E8572",
"-. c #86827A",
";. c #8A857D",
":. c #8C887F",
">. c #978D78",
",. c #9C927E",
"<. c #888585",
"1. c #8E8A83",
"2. c #918D85",
"3. c #949087",
"4. c #969289",
"5. c #9A958D",
"6. c #9D998F",
"7. c #989793",
"8. c #9E9991",
"9. c #A59B86",
"0. c #A29D94",
"q. c #ADA28C",
"w. c #B0A48D",
"e. c #A8A396",
"r. c #A4A19B",
"t. c #AAA69C",
"y. c #AEA99E",
"u. c #B8AD93",
"i. c #A7A6A1",
"p. c #B2ADA2",
"a. c #B6B2A6",
"s. c #B6B2AA",
"d. c #BAB5AA",
"f. c #BEBAAE",
"g. c #BBB9B1",
"h. c #BDBDBA",
"j. c #C4B89C",
"k. c #C0BBAF",
"l. c #C2BDB2",
"z. c #C2BFB9",
"x. c #CFC2A5",
"c. c #D1C4A6",
"v. c #D7CAAA",
"b. c #DDD0AE",
"n. c #C6C1B5",
"m. c #C8C3B7",
"M. c #C2C0BA",
"N. c #CBC6B9",
"B. c #CEC9BC",
"V. c #D1CCBF",
"C. c #DFD2B1",
"Z. c #E5D7B5",
"A. c #EBDDB9",
"S. c #C5C4C1",
"D. c #CFCDC8",
"F. c #D3CFC2",
"G. c #D1CFC8",
"H. c #D6D1C3",
"J. c #DAD5C7",
"K. c #D5D3CD",
"L. c #DBD6C8",
"P. c #DED9CC",
"I. c #DFDCD3",
"U. c #E1DDD2",
"Y. c #EDE2C5",
"T. c #E4E1D6",
"R. c #E6E3D9",
"E. c #E9E6DD",
"W. c #EBE9E1",
/* pixels */
"+.+.#.O.+.O.+.+.+.O.+.X.%.#.#.o.$.#.#.#.#.+.+.O.+.O.O.O.O.O.@.@.@.+.+.O.O.O.O.O.O.O.O.O.$.#.#.#.+.#.$.%.O.#.#.+.#.O. .@.$.+.O. .",
"+.+.O.O.O.O.O.+. .*.&.$.$.$.#.+.#.#.+.+.#.+.O.O.O.O.O.O.O. .X.$.@.#.#.+.O.O.O.O.O.O.O.O.+.#.#.#.+.#.#.#.+.#.#.O.O.O.O.X.#.@.+.O.",
"O.O.O.O.O.O.O. .%.$.#.+.+.#.#.+.+.O.O.#.+.O.O.O.O.+.O.O.+.O.@.%.$.+.#.#.+.O.O.O.O.+.O.O.O.O.O.#.+.#.#.#.+.#.O.O.O.#.#.#.#.#.O.O.",
"O.O.O.O.O.O.O. .$.#.#.$.#.O.#.+.+.O.O.O.O.O.O.O.O.$.#.O.%.#.O.O.+.O.O.O.O.O.+.$.+.#.+.O.O.O.O.+.O.O.#.+.O.O.O.O. .X.O.+.#.#.O.O.",
"O.O.O.O.O.O.O.O. .#.#.#.+.O.O.+.O.#.+.O.O.O.O.O.O.| @.#.+.$.O.O.O.O.O.O.O.O.+.#.$.+.+. .O.+.O.O.O.O.O.O.O.O.O.O.O.+.#.#.#.#.O.O.",
"+.O.+.O.O.O.O.O.O.O.#.#.+.O.O.O.O.#.$.O.O.O.O.@.$.$.X.$.#.#.+.O.O.O.O.O.O.O.+.#.#.#.#.X.+.+.O.O.O.O. . .O.O.O.O.+.$.@.#.O.O.O.O.",
"&.+.@.O.#.+.O.O.O.O.O.O.O.O.O.O.O.+.O.O.O.O.O.@.$.$.+.#.#.#.+.O.O.O.O.O.O.X.X.+.%.$.#.#.+.#.#.O.} .... . .O.O.O. .@.$.+.O.O.O.O.",
"@.+. .$.+.$.O.O.O. . . .O.O.O.O.+.$.+.$.$.+.O. . .| +.+.#.#.+.O.+.O.O.O.O.O.$.+.$.$.@.#.+.+.O.O. .O.O.O.O.O.O.O.O...O. ...o.$.#.",
"#.$.#.+.+.#.+.O.| | | | | | | O.O.O.+.+.$.%.O.O.+.#.#.#.#.O. .|  .|  .|  . ...@.+.#.+.#.#.#.O.O.O.O.O.O.+.O. .O.O.O.O.O. .+.@.+.",
"+.+.+.+.O.O.O.O. . .| | | |  .O.+.+.#.$.%.%.O.O.$.#.#.$.+.#.O. . .|  . .O.O.+.+.+.+.$.$.#.#.O.O.#.#.#.#.#. .| | ..} } .. .+.X.+.",
"O.O. .$.O.$.#.O.+.@.O.O.O.O.O.O.O.+.O.+.+. . .O.%.*.@.+.#.#.O.O.O.O.O.O.O.O.X.X.+.+.+.+.O.O.O.#.#.#.#.#.O.O.O. . ... . . .+.@.+.",
"#.O.O.$.$.#.#.+.@.+.O. .+.O.O.O.O.@. .O.+.+.+.O.X. .X.$.$.$.O.O.O.X.+.O.O.O.X.+.O.O.O.O.O.O.O.$.$.$.#.O.#.+.+.+.O.+.O.O.O.O.@.@.",
"+.+.O.+.%.#.#.+.@.#.+.$.&.O.O.O.$.*.|  .O.O.O.O.O.O.+.*.$.O.O.O.+.+.@.+.+.@. .@.+.O.O.O.O.O.O...+.@.+.#.#.#.#.+.#.#.O.+.+.#.O. .",
"#.+.O.O.+.#.#.+.+.#.+.$.+.O.O.O.#.$.X.+.+.@. .O.O.O.O.X.O.O.O.O.X.%.#.#.@.+.+.#.@.O.O.O.O.O.O.O. .+.$.$.+.$.+.+.#.+.+.+.#.#.+.#.",
"O.O.O.O.$.+.+.+.+.$.+.+.O.O.O.O.+.#.@.%.%.@. .O.O.O.O.O.O.O.O.$.$.@.#.+.#.+.#.+.#.O.O.O.O.O.O.X.+.%.+.+.$.@. .#.#.+.+.#.$.#.#.O.",
"O.O.O.O.O.O.O. .+. .O.+.O.O.O.O.+.$.$.$.+.+.%.$.O.O.O. .X.O.O. .+.#.#.#.+.O.+.+.#.+.O.O.O.O.O.O.@.X.X.%.+. .O.$.#.#.+.$.$.$.$.+.",
"O.O.O. . .| | | | | | | | | |  .X.#.$.#.#.#.$.*.@.O.O. .| |  .O.O.O. .@.+.O.O.O.O.O.O.+.$.+.O.$.$.$.%.X. .O.O.$.$.+.o.#.+.$.$.+.",
"O.O.+.O.| | | | | | | | | | | |  .+.#.#.#.#.$.#.O.X. .|  . .X.X.+.O.X.X.$.O. .+.O.%.O.#.&.+.#.$.+.$.@.O.O.O.O.o.%.+. .$.$.@.@.O.",
"+.#.#.#.#.+.+.#.@.X. . . .O. .' } O.#.#.#.+.$.&.@.| | | | | | @.+.+.| +.#. .+.+.+.&.$.#.#.+.#.#.$.$.O.O.O.O.O. .X.O.O.| X. . .O.",
"*.%.$.#.#.#.#.+.$.@.o.| | ` *   + e t p } +.+.+.+.| | | | | | %.#.$.+.+.X.+.&.O.O.#.#.O.$.+.#.#.$.$.+. .O. . .+.O.+.O.O.O.O.O.+.",
"@.%.+.#.+.+.#.$.X.X.| i @ X B s.2.> l 1 + # t ] O. .| | | @.+.@.$.$.+.+.#.$.%.+.O.O.#.+.+.+.+.$.#.#.X.| | | | | @.$.#.+.+.#.+.#.",
"$.X.+.+. .+.#.$.o.| y   D U D.T.R.D.R.n.4 A : % } +. .| | o.$.#.+.#.+.#.$.$.*.@.O.O.#.O.X.X. .O.+. ...| | | | |  .$.#.#.+.+.+.#.",
"+. .+.$.| | X.X.X.) + K E.I.P.J.B.f.d.F k 7.D.> 9 !  .X.| | @.+.#.#.#.#.#.#.#.O.O.O.O.O.@.+.$...O.$.o.| | | | | $.$.+.$. .$.$.+.",
"O.+.O.$.X.+. .| { % 8 f.P.L.L.J.J.L.L.L.H.s.R.2.6 . Q  .O.X.O.O.+.O.O.+.+.+.O.O.O.O.+.+.%.+.$.+.+.$.$...| | | o.@.$.%.X.| $.+.+.",
"+.O.O.+.$.#.+.+.)   d.L.L.H.n.J.L.L.L.L.L.L.P.U.E.P %  .#.O.+.O.O.O. .O.O.O.O.O.O.O.O.$.#.$.#.#.+.#.$.+.| o.$.X.X.o.| |  .O.+.+.",
"#.#.+.#.+.$.@.$.{ X F t.f.N.l.a.H.L.L.L.L.L.J.L.2.I   p ] O.+.) a ! X.@.O.O.O.O.O.O.O.+.$.$.#.#.+.#.#.X.@.$.+.#.%.X.|  .+.O.O.#.",
"@.+.@.+.+.+.@.O.O.u       - 1 . 5 Y 3.L.L.J.V.L.n.8 V &   + + . 2 - $ e w r } @.+.O.O.O.#.+.#.O.+.#.#.+.$.@.#.$.+.+.X.X.O.O.O.+.",
" .O.O.O.+.@.+.{ 9 .     ; &   X     + 4.V.m.l.J.J.1.L.T - J 2 d.W.K.B o j , $ ! @.+.O.O.O.O.O.O.O.+.+.+.+.#.#.#.@.@.@.+.O.O.O.+.",
"O.+.+.+.o.O.] $ 4 e.u.c . . g =.=.4 .   . D a.g.L.L.J.4.& L.T.R.U.R.U.L.W.W.H $ w e ) O. .|  . . . . .O.+.O.#.#.#.#.#.O.O.O.O.O.",
"$.$.+.+.+.X.w , x.A.A.,.  S Y.Y.A.j.c . & . H 1.J m.a.6 k J.P.L.L.J.I.P.L.U.z.o k 6 . a  .| | | | | | O.O.+.#.#.#.+.O.O.O.O.+.#.",
"#.#.@.#.@.... 6 f A.Z.C , b.b.v.A.C.9.1 : 1 o     1   : a.L.L.L.L.L.z.N.p.d.I.K.E.W.P X  .O.O. .X.O.+.O.O.+.+.O.O.O.O.O.O.+.#.#.",
"#.#.%.$.+.} . R =.A.c.f Z A.f Z A.C.q.g - j ; o : o   r.J.L.L.L.L.L.p.k.g.d.L.0.H 4.M.. q ~ O.+.@.O.O.O.O.O.O.O.O.O.O.O.O.#.+.+.",
"+.+.@.+.@.[   >.A.v.w.g C A.=.3.A.c.9.g ; m o z x 5 . E L.L.L.L.L.L.L.L.L.L.V.t.6.v 8 G b   Q +.@.X.O.O.O.O. . . . . . .O.O.#.O.",
"X.$.+.$.+.y   4 w.q.9.8 & c.A.A.b.u.3.- 2 m . m m j - ; F.L.L.L.L.L.L.L.L.L.L.L.L.V.: p.W.D 9 $.#.+.O.O.O.O. . .| }  . .O.O.O.#.",
"+.+.+.@.) . m O ; 8 & . O 3 u.j.q.,., o x x O j M x 5 . 1.L.L.L.L.L.L.L.L.L.L.L.L.L.L 6.T.5.%  . . .O.O.O.O.+.#.O.O.+.O.O.O.O.O.",
"O.+.+.O.= 1 T z > ; , 8 7 O & 8 7 O o 6 m z - < V x j - k J.L.L.L.L.L.L.L.L.L.L.L.L.t.l.I.T   9  .+.O.O.+.+.#.#.#.+.#.#.O.O.O.O.",
"O.O.O._   P W m x M x M m x 5 > : 4 x m x h > - G m j 2 . a.L.L.L.L.L.L.L.L.L.L.L.L.L.L.P.T.g.> y +.O.#.#.#.$.#.#.+.#.#.#.#.O.O.",
"O.O.O.y > <.G m M x m m m m m m v M m m x j < o K m z h   :.d.f.L.L.L.L.L.L.L.L.L.L.L.L.L.L.L.I = &.$.$.$.#.#.&.&.+.O.+.#.$.#.+.",
"O.O.O.0 x V 5 m m x x m m m m m m m m m j 5 < o K m z h o D V.l.L.L.L.L.L.L.L.L.L.L.L.L.L.L.L.Y * O.#.$.#.+.O.#.+.$.O.+.&.+.O.O.",
"&.#.O.0 x M > x z O h m m m m m m m m m h h > - K m x h - l l.0.n.L.L.L.L.L.L.L.L.L.L.L.L.L.H.8 q O.O.O.O.O.O.O.O.+.O. .O.#.#.O.",
"+.#.O.e 2 m m m z 6 < - - > 2 6 m m m x h h - > G m x h - 2 G.d.N.L.L.L.L.L.L.L.L.L.L.F.d.L.N   ' O.O.O.O.O.O.O.O.O.O.O.O.| @.#.",
"#.#.O.! . z m m m 2 O z m z O   O 5 m z j 6 - > G m x 6 - , L.L.L.L.L.L.L.L.L.L.L.L.L.H.n.H.k.& u O.O.O.O.O.O.O.O.O.O.$.&.$.+.#.",
"#.#.O. .% - m m m 5 O S.S.7.h.z.G O > j h h - o G m j j - f L.L.L.L.L.H.k.J.L.L.L.L.L.H.0.d.L.b w O.+.O.O.O.O.O.O.O.O. .o.+.+.+.",
"#.+.O.O.a . < z m x o < M G G G K.0.  5 z 6 . . 6 z j 4   Y L.L.L.V.V.V.p.F.L.L.L.L.L.L.m.H.V.3 t +.$.O.O.&.O.O.O.O.O.+.X.+.+.+.",
"#.+.O. . .u   : h h z 2 -   U D.i.0.  4 5 . x 7.; X X   A l.4.k.t.7 l.L.L.L.L.L.L.L.l.l.N.a.l   } +.#.+.$.$.+.O.O.O.O.O.$.$.$.#.",
"#.+.O.O.+. .y . - 6 h h z <   M 7.1 O 5 o < p.0.k.E P 5.H.L.F o O Y L.L.L.L.L.L.L.L.D 2.0.3   p +.+.+.+.#.O.O.O.O.O.O.O.%.%.@.+.",
"%.+.O.O.+.X.#.] * . O < 6 h 5 o   . O   2 . > t.V.l.n.V.L.L.L.F.F.J.L.L.L.L.L.L.L.k.; 5.0.H $  .O.O.+.+.#.O.O.O.O.O.+.O... .+.$.",
"X.O.O.O.@.+.#.#.+.( =     o o o       A 0.2.0.d.l.y.k.L.L.L.L.L.J.N.n.n.J.L.l.6.I : B 0.0.Z % +.+.O.+.O.O.O. . .| | |  . .X.+.%.",
"O.O.O.$.+.%.#.+.@.#.@. ._ ^ p d ( a . ;.0.0.0.0.5.8.0.a.f.y.a.F.J.N.t.B.H.B.0.L B E 0.0.-.: t +.+.$.+.O.O.O. .| | | | | |  .O.O.",
"O.O.O.+.+.#.#.+.+.+.+.+.#.O.+.+.$. .X v 0.0.0.0.2.2.8.0.0.0.0.e.t.0.0.0.0.0.0.0.0.0.A j o % } #.+.#.@.+.O. .O. . . . . . .O.O.O.",
"O.O.O.O. .O.+.$.+.O.O.O.+.O.O.O.#.+.d X : 1 E 0.0.;.2.0.0.0.0.0.0.0.0.0.0.2.:.0.0.1.. 0 ^  .#.#.$.+.@.+. .| | |  .O.O.O.O.O.O.O.",
"O.O.O.+.O.O. .+.$.O. .O.O.O.O.O.+.+.+._ w % ; D B : I 0.0.0.0.0.0.0.0.0.0.2.J W L ; % ' +.O.+.#.%.+.O.+.O.O.O.O.O.O.+.+.O.O.O.O.",
"O.+. .$.#.+. .+.+. .$.O.O.O.O.O.O.+.| X. .y         X k Z 4 l 2.0.E v D n &         s o.#. .O.+.+.$. .+.O.O.O. .*.$.+.#.#.#.+.O.",
"O.O.@.@.$.$.O.#.+.$.&.O.O.O.O.O.O. .%.+.%.t . X           . X o ;   X . .           a @.$.X.O.+.+.+.O. . .X.O.O.+.$.$.#.#.#.+.O.",
"+.%.$.$.#.#.+.#.$.%.%.$.O.O.O.O.O.+.$.$.$.r o > - . O & o + ..! / ) e X : O . ; O . p +.$...O.O.+.O. .| } | |  .*.&.#.#.#.#.#.#.",
"O.O.+.+.#.+.#.#.$.#.$.O.O.O.O.O.O.#.#.$.$.e X - O   ; : O . ..o.+.X.w X ; o X , ; . u +.+.$.+.$. .O. . . . . .+.X.%.$.#.#.&.#.#.",
"O.O. .+.+.X. ...+.O.O.O.O.O.O.O.O.+.#.$.#.) + X X   . X . % $.$.X.O.~ % X     X . . Q +.+.$.#.@.$.X. .O.O.O.O.O.+.+.X.$.*.+.#.#.",
"O.O.O.+.O.X.| | | O.O.O.O.O.O.O.O.+.#.#.#.+. . .| ! r r e ` $.X.+.O.O. .} ] t e r y  .+.+.+.+.@...| |  .O.O.O.O.O. .+.+.+...$.#.",
"O.O.O.O.O.O.O. .O.O.O.O.O.O.O.O.O.O.+.+.+.O.O.#.#.+.#.#.$.#.+.+.|  .O.O.O.O.O.+.X.o. .o. .$.o.o.| | |  .O. . . . . . .O.O. .@.*.",
"O.O.O.| | } | O.O. . . .O.O.O.O.O.O.O.O.O.O.O.+.O.O.#.+.#.+.$.$.%.@.O.O.O.O.O.O.X.| | | | ..X.| | |  . .| | | | | | | O.O.O.| +.",
"O.+.+.+. .O. .O.O. .| | |  .O.O.O. .%.O.O.O.O.O.O.O.O.+.+.$.#.$.$.+.#.O.O.O.O. . .O. . .| | | | |  . .O. . .O. .O.O.O.O.O.O.+.O.",
"@.o.$.@.$.+.@.@.O.O.O.+.O.O.O. .@.+.%.X.#.+.O.O.O.O.O.+.#.#.#.#.O.O.$.O.O.O.O.O.O.O.O.+.O. . .O.O.+.+. . . .O.O.O.O.O.O.O.O.O.O.",
"o.$.+.$.$.%.%.$.+.+.O. .O.+.O.X.$.+.$.$.$.*.O.O.O.O.O.O.O.+.O.O.O.O.$.+.O.O.O.O.O.O.O.X.+.$.+.O.#.O.+. .O.+.#.#.O.O.O.O.O.O.O.O.",
"@.$.#.+.#.+.$.+.#.+.O.$.*.$.+.X.#.#.$.%.&.$.#.O.O.O.O.O.O.O.O.$.$.+.+.#.O.O.O.O.O.O.O.+.%.+.&.+.$.&.&.#.O.&.%.%.%.#.O.#.+.O.X.%."
};
