/* XPM */
static char *result[] = {
/* columns rows colors chars-per-pixel */
"64 64 143 2 ",
"   c #161413",
".  c #181715",
"X  c #1B1A15",
"o  c #1C1B1A",
"O  c #211E1D",
"+  c #1F2112",
"@  c #292F0F",
"#  c #2D340F",
"$  c #2E380E",
"%  c #323B0F",
"&  c #212411",
"*  c #262A11",
"=  c #292E10",
"-  c #23211F",
";  c #2A3010",
":  c #242322",
">  c #292624",
",  c #2B2927",
"<  c #2C2B2A",
"1  c #312F2E",
"2  c #33312E",
"3  c #2F3030",
"4  c #343333",
"5  c #393734",
"6  c #373938",
"7  c #3C3C3C",
"8  c #413E3B",
"9  c #3A430D",
"0  c #3D4B0D",
"q  c #414E0D",
"w  c #43540C",
"e  c #46590B",
"r  c #4A5C0B",
"t  c #4E630B",
"y  c #51670A",
"u  c #546C09",
"i  c #5B7608",
"p  c #5C7908",
"a  c #647C07",
"s  c #617E08",
"d  c #44423F",
"f  c #3F4141",
"g  c #434444",
"h  c #4A4743",
"j  c #4C4946",
"k  c #474848",
"l  c #4B4C4C",
"z  c #514E49",
"x  c #55524D",
"c  c #4F5050",
"v  c #535252",
"b  c #595753",
"n  c #5D5A55",
"m  c #5C5A59",
"M  c #615E5C",
"N  c #65625C",
"B  c #69655F",
"V  c #646262",
"C  c #696662",
"Z  c #6D6A64",
"A  c #6B6A6A",
"S  c #716E67",
"D  c #75726C",
"F  c #7A756F",
"G  c #727171",
"H  c #7D7A73",
"J  c #817D75",
"K  c #817F7B",
"L  c #658407",
"P  c #6B8B06",
"I  c #668408",
"U  c #6C8609",
"Y  c #708E06",
"T  c #6F9206",
"R  c #729505",
"E  c #769B05",
"W  c #799906",
"Q  c #77A104",
"!  c #7CA404",
"~  c #7EAA03",
"^  c #81A403",
"/  c #83AD03",
"(  c #8BAB01",
")  c #85B302",
"_  c #8DB500",
"`  c #87B801",
"'  c #8EBC00",
"]  c #90B701",
"[  c #92BD01",
"{  c #98BF01",
"}  c #8FC300",
"|  c #93C400",
" . c #99C501",
".. c #96C901",
"X. c #9BCA01",
"o. c #A2CD02",
"O. c #A4D101",
"+. c #ABD401",
"@. c #84817A",
"#. c #8B867E",
"$. c #878580",
"%. c #8C8982",
"&. c #8F8C8A",
"*. c #928D85",
"=. c #959187",
"-. c #969189",
";. c #9A958D",
":. c #9D998E",
">. c #9B9994",
",. c #A29D94",
"<. c #A5A096",
"1. c #A4A29B",
"2. c #ABA69D",
"3. c #AEA99E",
"4. c #AFACA8",
"5. c #B3AEA3",
"6. c #B6B1A6",
"7. c #B5B3AD",
"8. c #BAB6AA",
"9. c #BEB9AD",
"0. c #BFBDB6",
"q. c #C0BBAF",
"w. c #C3BDB2",
"e. c #C1BFB8",
"r. c #C6C1B5",
"t. c #C9C4B7",
"y. c #C6C3BD",
"u. c #CBC6BA",
"i. c #CFCABE",
"p. c #D1CCBE",
"a. c #CCCAC3",
"s. c #D3CEC1",
"d. c #D6D1C3",
"f. c #DAD5C7",
"g. c #D6D3CA",
"h. c #DBD6C8",
"j. c #DDD9CC",
"k. c #DEDCD3",
"l. c #E2DED4",
"z. c #E4E1D7",
"x. c #E5E2D9",
"c. c #E9E6DC",
"v. c #EBE9E1",
/* pixels */
"| | ..} } } | | | } | [ o.....| X.| X...X.| } } } } } } } '  . . .| | | | } } } } } } } X.......| ..X.o.| ....| | | [  .X.| | [ ",
"| | } } } } | } | +.O.X.X... .| ....} | X.| } } } } } } } } [ X. .....| } } } } } } } } | | ....| ......| ..| } | | } [ ..| } } ",
"} } } } } } } ' X.X.X. .| | ..| | } } ..| } } } } | | } | } | o.X.| ..| | } } } } | } } } } | ..| ......| | } } } ..........} } ",
"} } } } } } } ' X...| X...| ..| | } } } } } } } } X.X.} o...| } | } } } } } | X.| ..| } } } } | } } ..| } } } } } ` | | ..| } } ",
"} } } } } } } } ' X.....| } } } } ..| } } } } | } _  .| | X.} } } } } } } } | .. .| ..' | } } } } } | } } } } } } X.........} } ",
"| } } } } } } } } } | ..| | } } } .. .} } } }  .X.X.| ..| X.| } } } } } } } | ........[ | | | } } } ' ' [ } } } |  .| ..| | } } ",
"o.| | |  .} } } } } } } } } } } | | | | } } } | ..........X.| } } } } } } [ [ | o.......| ....} ` ] ` ' [ } } } ' | X.| } } } } ",
" ...[ X.| X.| } } ' } ' } } } } | ..| X.X.| } ' ' _ | | ....| } } } } } } } X.| X.o...| | | | } ` | } } } } } } | ] } [ ' [ X...",
"| X.....| ..} } _ _ _ _ _ _ _ } } | | |  .o.} } | | ......} ' _ _ _ _ ' ` [ ' X.....| ......} } } } } } | } } } } } } } ' [  ...",
"| | | | } } } } } _ _ _ _ _ ' } | ....X.o.o.} } X.X.....| ..} ' ' ' _ ' [ } | | | | X.X...| } } | ......| ' _ _ _ _ ] ] ' | [ | ",
"| } ' X.} X.| } ' | | } } } } } } | | | | ' } } o.+.X.| ....} } } } } | } } | [ | | | | | } } | ........} } } ' ] ` ' ' [ }  .| ",
"| } } X.X.....| | X.| ' | } } } } [ ' } | [ } } | _ [ X.X.X.} } } | | } } } [ } } } } } } } } o.X.X...| | ..| } } } } } } [ ..X.",
"..| | | o.....|  .X.| X.O.} } } X.+._ } } } } } } | } +. .} } } | | ..| [  .]  .[ } } } } } } ` | | ..X.......| | | } | | | } [ ",
"| | } } | ......| | | X.| } } } ..X.[ } | X._ } } } ' | } } } } [ o.........| .. .} } } } } } } [ | X..... .[ ....| } ......| | ",
"} } } } X...| | ..| | | } } } } | X.| o.o.| } } } } } } } } } X.X.X.......| ..| ..} } } } } } [ | o.|  .X.| } ......| ..o.....} ",
"} } } } } } } ' ' | | | } } } } | ..o.X.|  .o.X.' } ' | | ' } ' | ....| | ' | | ..| } } } } } } | [ [ X. .' } X.....| ..X.X.X.} ",
"} } } } _ _ _ _ _ _ _ _ _ _ _ ' | | X.......X.+. .} } _ _ _ ' } } } [ ..| } } | } } } | X.} } X.o.X.o.[ ' } } X.X.| | X.| X.X.| ",
"} } | } _ _ _ _ _ _ _ _ ( _ _ _ ' | ........X. .' | _ ' ' } [ | ' | ' [ X.} ' | } o.} ..X.....X.| X.| [ } } '  .o.| ' X.X. .| } ",
"| ....| ..| ....X.[ _ [ } } } | } } ....| | X.O. ._ _ _ _ _ _  ...| _ ....' | | | O.X...X..... .X.X.| } } } } _ [ ' } _ [ _ _ | ",
"+.o.X.......| ..X.X.{ _ _ _ } } } } } } | | | | | _ _ _ _ _ _ o.X...[ | [ | o.| | | ..} X.| ....X.X.| } } ' } | } | } } } } | ..",
" .o.| | | ....X.[ [ ] ( _ _ ' } } | } } } } } } } ' _ _ _  . .| X...| ....X.o.| } } ......| |  ...X.[ _ _ _ _ _  .X...| | ..| ..",
"X.[ | ..' } ..X.[ _ _ _ _ _ ' X...| } | | } } } } } ' _ _ { X...| ......X.X.O.X.} } | } ' [ ' } } _ ] _ _ _ _ _ ' X.....| ..| ..",
"| ' ....' _ ' [ [ _ ( _ _ _ | X.X.X...X.X.| } ' } ' ' [ _ _ |  ...| | ........} } } } }  .|  .' } X. ._ _ _ _ _ X.X.| X._ X.X.| ",
"} | | X._ [ [ _ _ ( ( ( _ } ! ^ | ........X.| _ _ _ _ ' ' | ' } | } } | | | } } } } } ..o...X.| | X.X.] _ _ _ {  .X.o.' ' X...} ",
"| } } | ......| ] ^ Y 9 * ;   . + r u P X.....} } } } | ..| | } } | | | } } } } } } } ..X.X.X...| ..X.| _ { X.' [ { _ _ _ } | | ",
"....| ....X. .W % o X 7 D d >.y.G o <   e | ..| } } } | ..| ..| | ..o.| } } } } } } } ....X...| | ....[  .X...X.o.[ _ ' | } | ..",
" ...X.| ..| ( o V 1.%.k.<.d b 8.z.g.x.e.- * q ! | } | / 0 X & w t ; $ y ' | |  .[ } } } ....| } | ....| ..X...X.| | [ [ } } } ..",
"' } ' } | [ 0 : z.z.h.p.3.u.h.h.j.j.r.b , Z 2 * 0 ; 0 * 7 K H < : A m - 0 u e I | | } } | } } } } | | | ..| .... . . .| } } } } ",
"} } | | ] 0 , K z.j.p.p.f.h.h.h.f.h.f.h.D r.i.> g $.m j x.v.c.j.s.c.c.0.o 4 v , ; ' ' } ' ' _ _ ' ' ' } } } ..........} } } } } ",
"X.X.| ..U   7.l.j.h.h.h.h.h.h.h.h.t.d.f.p.j.h.d S j.z.l.z.j.h.l.j.h.d.z.>.k.v.a.: w Q } ' _ _ _ _ _ _ } } ........| | } } } | ..",
"..X.....I o k.j.f.f.f.h.h.h.p.h.d.i.6.r.9.p.@.  >.h.h.j.j.h.f.f.r.w.,.u.j.%.N %.C     # ) } ' | | } | } } } } } } } } } | | | X.",
"....o.X.w 3 g.j.f.2.9.D @.n d *.n x ,.,.< , 1 X r.u.h.h.f.h.j.p.<.s.r.d.3.H F 2 h a.4.< y } | | | ' } } } } } } } } } } } | | | ",
"| X.X.X.$ N h.h.0.&.6             o       o o . #.q.h.h.h.h.h.h.h.h.h.h.h.h.h.p.2 3.c.$.= ~ | | | { } } } } ` ' ' ' ' ' } } | | ",
"[ | | X.t : S j O       O 3 3 O   , 6 < . c f < O *.h.h.h.h.h.h.h.h.h.h.h.h.h.h.J <.j.*.  & R X.X.| } } } } } ' _ _ ' } } } | | ",
"| | | | | y X   o <   7 V c l g <   f 7 . V l f , X 2.h.h.h.h.h.h.h.h.h.h.h.h.h.p.u.j.z.a.D + ^ _ ' } } } } ....} } | } } } } | ",
"} } | } | E o . .   . V m c c k f . < l . v v l g - 1 r.h.h.h.h.h.h.h.h.h.h.h.h.h.h.h.h.h.d.o i ..} } } | | ....| } X.| } } } } ",
"} } } } / & f m k : > c c c c f o   O c < O V l h 7 o x h.h.h.h.h.h.h.h.h.h.h.h.h.h.h.h.h.h., t | | | ....| ......| ......X.} } ",
"} } } } i . m v c > o f f 6 <   O : O c f . v v k g < . 8.s.h.h.h.h.h.h.h.h.h.h.h.h.h.h.h.q.  s | O.X.X.X.....O.O...} | ..X.| } ",
"} } } } w : c c c 3       o : 6 f o 3 c k > 6 A c k f O n 2.w.j.h.h.h.h.h.h.h.h.h.h.d.q.h.Z   i } } | X...} } ..| X.} } o.| | } ",
"O.| } } w o 6 6 <     o f l k f :   k c k 4 o G c l g 3 O 5.8.s.h.h.f.h.h.h.h.h.h.h.d.q.f.f.j @ } } } } | | } } } } } } } ....} ",
"| X.} } L   X o O 3 <     O O o o 7 c c l 6   M c c g f   C ,.5.h.h.h.f.h.h.h.h.h.h.h.8.2.d.*.  ` } } } } } } } } } } | } _  ...",
"| ..} } ) * : f g 7 o : 6 < : 3 k c c c c f . v v c k 6 - z s.s.h.h.h.h.h.h.h.h.h.h.h.u.u.f.Z X ' } } } } } } } } } } X.O.X.| ..",
"X...| } } 0   X o   : k c c c c c c c c c k : 4 M c k f : 8 h.j.h.h.h.w.6.f.h.h.h.h.d.d.u.-.- w } } | } } } } } } } } ' [ | | ..",
"| | } } ' % h k 3 6 c c c c c c c c c c c k 3   V c g f o n h.h.h.r.d.u.p.h.h.h.h.h.#.,.-.1 + ` | | X.} } O.} } } } } } [ ' ..| ",
"| | | ' _ = m G c c c c c c c c c c 6 f c k g > O , , O , q.h.f.t.d p.j.h.h.h.h.h.h.d #.,.F   / ......} X.X.| } } } } } X.X.X...",
"X.| } } } * V &.c c c c c c c c c l   7 c k g g O O - z 8.p.B S 5 b h.h.h.h.h.h.h.6.- -.,.J   Q | | ..| ..} } } } } } } o.o. ...",
"o.} } } | ; m G c c c c c c c c c l   4 f 4 f 7   *.h.h.h.h.q.J :.d.f.f.d.f.f.,.Z O B ,.,.z @ ' } } } | ..} } | } } } | [ ' [ X.",
"[ | | | | w k A c c c l < g c c c c : . . O f < 1 w.h.s.h.h.h.h.f.p.u.q.d.f.u.J N J ,.F h   p | | | } } } } ' _ _ ` _ _ _ | | O.",
"} } } ..| U o V g < l k 3 k v c k 1   4 4 f 6 . #.w.2.s.f.f.i.f.h.d.5.5.q.6.,.,.,.,.$.o % I | | ....[ } } } ' _ _ _ _ _ _ ' } } ",
"} } | | ..' & 6 k 6 c c c c c l o   4 g g 7 o > 2.2.,.5.w.q.,.2.q.6.,.,.,.,.-.*.,.,.n . ) ......| ..X.| } } [ } ' ' _ ' ' } } } ",
"} } } } } } R + , k c c c c k k 6 f g f 3 o , *.,.*.;.,.,.,.,.,.,.,.,.,.,.,.#.S D z . y | | ....X.|  ..._ _ ` _ ' } } } } } } } ",
"} ' | | } } ' E & o < 7 g g g g f f 3 -   7 =.,.,.;.#.#.,.,.,.,.,.,.,.,.,.,.M O   . t ` ..| | ..o.[ } } } } } } } } ..} } } } } ",
"} } [ X.X.| ' | _ u *   . o : o o   X * o j x B ,.,.M M ,.,.:.J ,.,.=.h 5 O   , 4 . a | ..' } ....X.' } } } } ' +.X.........| } ",
"} } |  .X...| ..| X...T u e w e y s [ ) r +   o g 8   O j B 8   5 h >   O X         s |  .[ } | | | } ' ' [ } } | X.X.........} ",
"| X.X.......| |  .o.o.X.} } } } } | X...X.r + : .   O O X   q a r q @ O , O X - O . i | X.[ } } } } ' _ ( ) _ [ +.O.X.........| ",
"} | X.....| | X.....X.} } } } } } ....X.X.r o : O   > , O X ] { | [ w   - O X 1 > . y | | X.|  .[ [ } ` [ [ } } [ o.X.| ..O.....",
"} } } } | [ _ [ | } } } } } } } } | ..X.X.T + X X   . .   * X.X.[ ' P * X     X o   a | | ....X.X.[ ' } } } } } | } [  .O.| ....",
"} } } } } [ _ _ _ } } } } } } } } } ....X.} ' ` ` L t r r W X.} | | } ' ) ~ t e r y [  .| | |  ._ _ _ } } } } } } ' | | ..] X...",
"} } } } } } } ' | } } } } } } } } } | | | } } ....| X.......| | _ [ | } } } } } [ [ _  .[ X.{ { _ _ _ } } ` ' ' ' ' ' } } '  .+.",
"} } } ' _ ( _ } } ' ' ' ' } } } } } } } } } } | | } | | ....X.X.o.| } } } } } } | _ _ _ _ _ [ _ _ _ _ [ _ _ _ _ _ _ ' } } ' _ ..",
"}  .| | } ' [ | } _ _ _ ' ' } ' | _ O.} } } } } } } } } | X.X.X...} ..} } } } ' ' | ' _ _ _ _ _ _ ' ' | [ ' | ' ' } } } } } } } ",
"| { o.| X.|  .| } } } | } } } ' | | o.| ..| } } } } } | | X.X.| } } O.| } } } } } } } } } ' ' ' | } } ' ` ' } } } } } } } } } } ",
"{ X...| X.o.o.X...} } ' } | } [ X.| ..o.X.+.} } } } } } } } } } } } X.| } } } } } } } } | X...} X.} | ' } | ..X.} } } } } } } | ",
" .X. .| ..| ..| X.| } X.+.X.| | X.| X.o.O.X...} } } } } } } | X...| | | } } } } } } } | o.| O.} X.O.O...} O.O.X.o...} ..| } | o."
};
