/* XPM */
static char *sheep_scared051696685395[] = {
/* columns rows colors chars-per-pixel */
"64 64 193 2 ",
"   c #161413",
".  c #181714",
"X  c #1B1A14",
"o  c #1D1B19",
"O  c #221E1C",
"+  c #1F2111",
"@  c #2A2F0F",
"#  c #2C340F",
"$  c #333D0F",
"%  c #212311",
"&  c #272A14",
"*  c #23211E",
"=  c #252321",
"-  c #292622",
";  c #2D2926",
":  c #2E2C2A",
">  c #322C27",
",  c #322E2B",
"<  c #35312D",
"1  c #3B342D",
"2  c #343230",
"3  c #393634",
"4  c #3B3936",
"5  c #3E3C3A",
"6  c #423A33",
"7  c #493F35",
"8  c #403E3B",
"9  c #36410E",
"0  c #39450E",
"q  c #3D4B0D",
"w  c #434F0C",
"e  c #44540C",
"r  c #465A0B",
"t  c #4A5D0B",
"y  c #4E640A",
"u  c #51670A",
"i  c #546B0A",
"p  c #5F7B07",
"a  c #57720A",
"s  c #5A7309",
"d  c #5E7A08",
"f  c #637E08",
"g  c #647D08",
"h  c #4A4137",
"j  c #45423F",
"k  c #4B433B",
"l  c #53473B",
"z  c #564A3E",
"x  c #454341",
"c  c #494643",
"v  c #4C4945",
"b  c #4E4C4A",
"n  c #594D41",
"m  c #524F4B",
"M  c #5D5144",
"N  c #55524D",
"B  c #555352",
"V  c #5B5955",
"C  c #5B5856",
"Z  c #635649",
"A  c #675A4B",
"S  c #6B5D4D",
"D  c #615E58",
"F  c #6F6051",
"G  c #64605B",
"H  c #69635C",
"J  c #746453",
"K  c #796957",
"L  c #7E6D5B",
"P  c #646261",
"I  c #6A6762",
"U  c #6C6963",
"Y  c #6E6C6A",
"T  c #706C66",
"R  c #75716B",
"E  c #78756D",
"W  c #7A7773",
"Q  c #787775",
"!  c #7D7A72",
"~  c #816F5D",
"^  c #8C7964",
"/  c #8D7A66",
"(  c #917D66",
")  c #927D69",
"_  c #847D75",
"`  c #847F78",
"'  c #658407",
"]  c #6B8C06",
"[  c #6A8908",
"{  c #6E9205",
"}  c #739706",
"|  c #759C04",
" . c #7AA204",
".. c #7EAA03",
"X. c #81AD02",
"o. c #8AAD01",
"O. c #85B302",
"+. c #8DB400",
"@. c #8EBC00",
"#. c #90B701",
"$. c #92BD01",
"%. c #98BF01",
"&. c #8FC300",
"*. c #93C400",
"=. c #99C501",
"-. c #96C900",
";. c #9BCA01",
":. c #A1CD02",
">. c #A8CF01",
",. c #A5D101",
"<. c #ABD401",
"1. c #96816B",
"2. c #9A846D",
"3. c #85827A",
"4. c #89857C",
"5. c #8C887F",
"6. c #9D8770",
"7. c #9E8871",
"8. c #A38C74",
"9. c #A99176",
"0. c #AD947A",
"q. c #B49A7E",
"w. c #8E8A83",
"e. c #8A8885",
"r. c #928D86",
"t. c #96928B",
"y. c #9A968D",
"u. c #999793",
"i. c #9C9993",
"p. c #9E9E9B",
"a. c #AC9986",
"s. c #B99F81",
"d. c #A29D94",
"f. c #A29F9A",
"g. c #A6A197",
"h. c #A6A299",
"j. c #AAA59B",
"k. c #ACA89D",
"l. c #BCA994",
"z. c #A6A4A1",
"x. c #A9A6A5",
"c. c #ABA9A5",
"v. c #AEACAA",
"b. c #B2AEA4",
"n. c #B0AEAA",
"m. c #B6B1A6",
"M. c #B3B1AD",
"N. c #BAB5AA",
"B. c #BEB9AD",
"V. c #B8B7B4",
"C. c #BDBCBA",
"Z. c #C2A687",
"A. c #C3A789",
"S. c #C6A989",
"D. c #CBAD8C",
"F. c #CFB18E",
"G. c #D1B28F",
"H. c #C3AE97",
"J. c #CCB59A",
"K. c #D3B491",
"L. c #D7BB9C",
"P. c #CAB9A6",
"I. c #C1BCAF",
"U. c #D5BEA4",
"Y. c #C2BDB2",
"T. c #DAC1A2",
"R. c #C6C1B5",
"E. c #C8C3B6",
"W. c #C1C1BE",
"Q. c #CAC5B9",
"!. c #CEC9BC",
"~. c #D8C6B1",
"^. c #D1CCBF",
"/. c #E5D1BB",
"(. c #C9C8C4",
"). c #CDCCC7",
"_. c #D3CEC1",
"`. c #D1CFC8",
"'. c #D6D1C3",
"]. c #D9D4C6",
"[. c #D5D3CB",
"{. c #DBD6C8",
"}. c #DED9CC",
"|. c #D6D5D3",
" X c #D9D8D4",
".X c #DEDDDA",
"XX c #E1DED2",
"oX c #E4E1D6",
"OX c #E5E3DA",
"+X c #E9E7DE",
"@X c #E6E6E3",
"#X c #EBE9E3",
"$X c #EBEBE9",
/* pixels */
"*.*.-.*.&.&.-.-.*.&.*.$.,.-.-.*.-.-.-.*.-.-.&.&.&.&.&.&.&.@.=.=.=.*.*.*.&.&.&.&.&.&.&.&.-.-.-.-.&.-.;.:.-.-.-.&.-.&.&.=.;.*.*.#.",
"*.&.&.&.&.&.&.&.@.<.,.=.;.-.*.*.-.-.*.-.-.*.&.&.&.&.&.&.&.&.*.=.=.;.-.*.&.&.&.&.*.&.&.&.-.*.-.-.&.-.-.-.&.-.&.*.&.&.&.#.-.-.&.&.",
"&.&.&.&.&.&.&.@.:.;.;.-.*.-.;.*.*.&.&.*.*.&.&.&.&.*.-.&.*.&.=.:.-.*.-.-.&.&.&.&.&.*.&.*.&.&.*.-.&.-.-.-.*.*.&.&.*.-.-.-.-.-.&.&.",
"&.&.&.&.&.&.&.@.;.-.-.-.-.*.*.*.*.&.&.*.&.&.&.&.*.;.-.&.:.-.&.&.*.&.&.&.&.&.*.;.*.-.*.*.&.&.&.&.&.&.-.&.*.&.&.&.&.@.&.*.-.-.&.&.",
"&.&.&.&.&.&.&.&.$.-.-.-.-.&.&.&.&.-.*.&.&.&.&.&.&.+.=.-.*.;.&.&.&.&.&.&.&.&.*.;.;.*.*.$.*.*.&.&.&.&.&.&.&.&.&.&.&.-.-.-.-.-.*.*.",
"*.&.&.&.&.&.&.&.&.&.*.-.*.&.&.&.&.-.;.&.&.&.&.;.;.;.*.-.-.-.*.&.&.&.&.&.&.&.-.*.-.-.-.$.*.*.&.&.&.&.$.&.$.*.&.&.*.=.-.-.&.&.&.&.",
":.*.=.&.;.*.*.&.&.&.&.&.&.&.&.&.*.*.&.*.&.&.&.*.=.;.-.-.-.-.*.&.&.&.&.&.*.$.$.&.:.-.-.-.*.-.-.&.O.O.#.O.@.&.*.&.$.*.;.&.&.&.&.&.",
"*.;.@.;.*.*.&.&.&.@.@.@.&.&.*.&.*.*.-.;.;.-.&.@.+.+.*.*.-.-.*.&.&.&.&.&.&.*.-.*.;.;.-.-.*.*.&.&.&.*.*.*.&.&.&.&.&.#.&.$.#.$.;.-.",
"*.;.;.*.-.-.&.&.+.+.+.+.+.+.+.&.&.*.*.*.=.:.&.&.*.-.;.*.-.&.@.+.+.+.+.+.@.@.+.-.*.=.-.-.-.-.&.&.&.&.&.&.*.&.&.&.&.&.&.&.@.&.=.;.",
"*.*.*.*.&.&.&.&.*.+.+.+.+.+.@.&.*.*.-.;.:.:.&.&.;.-.-.;.*.-.&.@.@.@.+.&.@.&.=.=.*.*.;.-.-.-.&.&.-.-.-.-.*.@.+.+.+.+.+.#.@.*.$.&.",
"*.&.&.;.&.;.*.&.&.*.*.&.&.&.&.&.&.*.*.*.%.+.&.&.:.<.=.*.-.-.*.&.&.&.&.&.&.&.$.$.*.-.&.&.&.&.&.-.-.-.-.-.&.&.@.@.#.O.@.@.@.&.=.*.",
"-.&.&.;.;.*.-.*.*.;.&.@.*.&.&.&.&.*.@.&.*.&.&.&.*.+.*.;.;.;.&.&.&.&.-.*.&.&.&.&.&.&.&.&.&.&.&.;.;.;.-.*.-.-.*.&.*.*.&.&.&.&.=.;.",
"*.-.&.*.:.*.;.*.=.-.*.=.,.&.&.&.;.<.+.&.&.&.&.&.*.&.*.<.=.&.&.&.*.*.-.-.$.=.#.=.*.&.&.&.&.&.&.+.*.*.-.-.-.-.-.*.-.-.&.&.=.*.&.&.",
"*.*.&.&.*.-.-.-.*.-.*.;.*.&.&.&.-.;.#.&.*.;.+.&.&.&.&.$.&.&.&.&.#.:.-.-.=.-.*.-.=.&.&.&.&.&.&.&.@.*.;.-.-.-.*.-.-.*.&.-.-.-.*.*.",
"&.&.&.@.;.-.*.&.-.*.*.-.&.&.&.&.*.;.-.:.:.*.*.@.&.&.&.&.&.&.&.;.;.-.-.-.-.*.-.*.-.&.&.&.&.&.&.&.*.;.=.-.-.=.@.-.-.-.*.-.;.-.-.&.",
"&.&.&.&.&.@.&.&.$.&.$.*.&.&.&.&.*.;.;.;.*.;.:.;.@.&.&.@.&.@.&.&.*.;.-.-.&.@.&.-.=.&.&.&.&.&.&.&.-.%.+.:.=.@.&.;.-.-.=.;.;.-.;.*.",
"&.&.&.&.+.+.+.+.+.+.+.+.+.+.+.@.*.*.;.-.-.-.;.<.=.&.&.@.+.+.@.&.&.&.@.=.*.&.&.&.&.&.&.&.:.&.&.;.:.-.:.#.@.&.&.;.;.-.*.;.*.;.;.*.",
"&.&.&.&.+.+.+.+.+.+.+.+.+.+.+.+.$.*.-.-.-.-.;.-.@.*.+.+.+.&.+.*.*.&.#.*.;.&.&.&.&.:.&.-.:.-.-.;.-.;.=.*.&.&.@.=.>.&.@.;.-.=.*.*.",
"-.-.-.-.-.*.-.-.=.$.$.+.@.&.&.&.&.&.-.-.*.*.;.,.;.+.+.+.+.+.+.;.-.*.o.*.;.+.*.*.-.,.;.-.-.&.-.O.+.-.&.&.&.&.&.@.+.&.&.+.$.+.@.*.",
">.:.;.-.*.-.-.-.;.;.%.+.+.+.&.&.&.&.&.&.&.*.*.&.*.+.+.+.+.@.+.:.;.-.*.*.*.*.,.&.&.-.-...s i q X X q O.&.&.@.&.$.&.&.*.&.&.*.*.*.",
"=.:.-.*.*.*.-.;.#.$.#.+.+.+.@.*.&.&.&.&.&.&.&.&.&.&.+.+.+.*.=.=.;.-.*.-.-.;.;.*. .r 9 . 3 j < h.z.2 + $ [ +.#.+.-.;.-.-.*.-.*.-.",
";.$.*.-.@.*.;.;.%.+.+.+.+.+.@.-.-.-.&.-.-.&.&.&.&.&.+.+.#.%.;.-.*.-.*.-.;.;.<.o.+ : N B [.OX[.oXOXn.W b + [ +.+.+.;.-.-.*.-.-.*.",
"*.@.*.-.+.+.@.$.#.+.+.+.+.+.*.;.;.-.-.-.-.-.&.+.@.@.@.@.+.+.*.*.-.*.*.-.-.-.] @ b .XQ m U '.N.'.{.}.XX+Xj @  .#.:.-.-.;.#.;.;.*.",
"&.&.&.;.$.*.$.+.o.o.o.o.o.*.$.,.:.-.-.-.-.;.*.@.+.+.+.@.*.*.@.*.*.*.&.-.-.i   8 c.oXk.'.{.{.'.{.{.{.}.XXi.> w %.;.-.:.#.+.;.*.&.",
"-.&.&.*.=.*.-.*.$.o.o.o.o.@.*.&.;.=.-.=.,.-.-.&.&.&.&.&.*.*.*.&.&.&.*.&.| X u.OXXX{.{.{.{.{.{.{.'.R.].}.{.r.* O.$.%.+.+.+.&.*.-.",
"-.-.*.-.-.-.-.;.*.&.*.*.&.&.&.&.*.*.:.;.$.;.-.&.&.&.&.*.*.@.| { O.-.;.@.r   t.g.{.{.{.{.{.{.{.!.I.N.!.B.d.c # -.:.$.+.@.*.&.&.-.",
"=.-.-.*.*.-.=.&.&.&.&.=.;.&.&.&.@.$.*.*.@.;.:.&.&...a i s % X X   q %   - N C !.{.^.{.].^.4.E ; o 4 o .     } -.=.$.$.@.&.&.&.*.",
"@.&.@.*.=.*.*.&.&.$.:.;.;.@.$.@.&.&.&.&.&.+.;.&.' + = ;   C (.'.e.- b   h.Y.h.{.'.B.!.'.!         . h <     + r @.=.;.*.&.&.&.*.",
"&.&.*.-.$.@.&.&.&.*.-.-.=.;.<.&.&.&.#.-.*.| y y + I OX#XM.+XOXoX+X}.c.  C.].{.{.b.B.j o     b e.! 2 o   Y C.u.: 9 @.-.&.&.&.&.&.",
";.;.*.*.=.*.&.&.&.*.-.*.-.-.:.&.&.*.:.=.s o ; ; = `.XX{.XX X{.{.].oXE.* U E.I.U t.G   ;   P |.$X$X.X5 = W.$X$Xv.. d &.&.&.&.-.-.",
"-.-.=.*.-.#.$.&.&.&.-.-.*.&.*.&.&.;.,.+.. ! #X#XV.OXm.B.Q.^.{.{.].{.{.5.o ; :     ; F 1 x v.$X$X|..XW.o e.$X).= 3 # &.&.&.&.-.*.",
"-.-.;.,.*.=.*.&.&.-.-.-.-.*.$.#.@.&.| t = `.u.4.R.}.k.Y.b.N.{.{.{.{.{.^.R   O 7 . F 9.= Y v.$X$X8 Q @X4 P .X.XQ Y + &.&.&.-.-.*.",
"*.;.-.;.*.@.&.&.*.-.-.*.*.;.:.,.&.d   5 C 8 k 4.d.^.{.{.].{.{.{.{.{.{.{.G + ) D.7 l K.- P x. X$Xe.p.@X3 P M.XX$XY o +.*.&.*.-.*.",
"@.=.&.;.;.=.&.&.&.-.=.=.;.#.@.&.&.@ Y +Xi.> ^.{.{.{.{.{.{.{.{.{.{.{.'.R.o M 0.L.m 6 K.n 8 x.V.@X$X$Xv.  C x.v.x.-   d +.&.&.&.*.",
"&.=.-.*.;.&.&.&.&.&.,.*.*.:.*.&...  M.XX! 4.{.{.{.{.{.{.{.{.{.{.{.{.{.D - ) S.U.3 7 D.9.  m z.v.(.v.: =   , j O 2 H O ..&.&.&.*.",
"&.&.*.&.*.*.*.=.*.&.&.&.+.+.@.O.9   r.}.k.k.{.{.{.{.{.{.{.{.{.{.{.{.R.- A 8.F.H.o Z s.K.K o : b 8 O < s.) z 7 S A.~.O y &.&.&.&.",
"&.&.&.&.*.-.*.;.=.$.+.+.o.+.o.e , M.oX{.{.{.{.{.{.{.{.{.{.{.{.{.{.{.w.. ( 0.G.a.  J 8.K.K.s.S z M ^ D.K.K.K.K.K.K./._ X &.-.&.&.",
"&.&.&.&.-.*.-.;.;.$.@.+.+.+.o.% e.}.{.{.{.{.{.{.{.{.{.{.{.{.{.{.B.Y.C ; 7.s.K.H.  ~ 6.A.K.K.K.K.F.K.K.K.K.K.K.K.K.T.P.O ] ;.*.&.",
"&.&.&.&.*.=.*.*.&.*.&.@.$.@.X.. t.{.{.{.{.{.{.{.{.{.{.{.{.{.{.{.I.^.3 h 7.A.K.l.  ~ ~ s.K.K.K.K.K.K.K.K.K.S.D.K.D.A U.k i *.-.&.",
":.-.&.&.*.;.&.-.*.*.&.*.*.*.&.# U {.{.{.{.{.{.{.{.{.{.{.{.{.{.Y.g.Q.o M 7.D.K.H.  K ^ 0.K.K.K.K.K.K.K.K.K.K 3 S.q.n L.v y *.-.&.",
"*.;.&.&.&.*.*.-.*.-.-.-.-.-.&.d   ! ].N.'.{.{.{.{.{.{.{.{.{.{.I.N.E.  S 2.D.J.P.  Z ^ 8.K.K.K.D.1.J M k z F 2.F.K.K.D.; f +.=.-.",
"-.-.&.&.&.&.;.;.*.;.$.-.-.=.&.y : B.].R.'.{.{.{.{.{.{.{.{.{.{.{.].Y.  A ) D.K.J.  Z ^ 7.A.D.K >   = x m c o 1.K.K.K.(   +.;.*.-.",
"-.-.&.&.&.&.*.&.*.=.*.*.*.;.=.$ U {.b.g.{.{.{.{.{.{.^.Q.{.{.{.{.{.^.. Z 6.s.K.a.  J 7.7.6.1 O Q W.V.p. Xh.  8.K.K.Z.; 0 %.$.*.-.",
"-.&.&.&.@.@.@.&.&.&.&.&.=.*.*.q N ^.!.E.{.{.{.{.{.{.^.k.'.!.{.{.{.{.x - ^ 8.0.6   - ) 7.A . C.(.B Y C C * 1 G.F.q.n + | @.@.=.-.",
"-.*.&.$.#.#.o.@.&.&.&.&.*.*.*.[ . H E.^.Q.^.{.{.{.{.{.{.{.h.T Y.'.j.N.2 . - X , d., ; ^ A o M.i.).C o n J 0.9.1.4 . ] &.-.-.-.-.",
"-.=.&.&.&.&.&.&.&.&.&.*.;.*.;.=.t   v i.3.! {.{.{.{.{.{.{.'.v * > G {.R.3.I 3.E.d.N.; - L * c f.x o L 8.7.6.K ; % d &.&.,.,.=.=.",
":.&.&.&.&.$.*.&.*.*.@.@.*.*.*.*.o.  ! i.4.; Q.{.{.{.{.{.{.{.{.Y.Y.{.{.{.^.E.R._.3.O o = o 1 . . < ~ 1.^ M <   0 O.&.&.*.$.@.*.;.",
"*.&.&.&.*.-.-.-.=.*.$.:.*.*.&.&.... R g.i.h j y.m.^.{.].Q.^.^._.{.{.{.{.{.N.b.Q.Y.4.3.t.m     o ; - o   X 9 { +.+.+.+.+.@.$.*.,.",
"&.&.&.=.*.:.-.*.-.-.-.-.-.$.&.:.-.9 2 r.d.i.U c G k.'.].Q.j.Q.{.'.N.N.Y.N.d.d.i.d.d.d.d.!   d ' s s ' } @.&.@.+.+.+.+.+.+.@.&.&.",
"&.&.&.&.-.-.-.*.*.$.*.*.-.&.*.*.;. .X ; B E d.d.d.d.d.k.f.d.j.b.f.d.d.d.d.d.w.r.d.d.d.d.c & =.-.-.-.;.$.&.&.@.@.@.@.@.@.@.&.&.&.",
"&.&.&.&.&.&.&.-.&.&.&.&.&.&.*.*.-.*.O.t @ * y.d.d.w.t.d.d.d.d.d.d.d.d.d.d.4.r.d.d.3.x 3 X ' -.-.;.*.;.*.+.+.+.+.@.&.&.&.&.&.&.&.",
"&.&.*.*.&.&.@.=.;.&.$.&.&.&.&.&.*.*.&.*.} + c 4.t.E t.d.d.d.d.d.d.d.d.d.d.U c R Y ; + 0 } &.*.-.:.$.&.&.&.&.&.&.&.&.-.&.&.&.&.&.",
"&.&.#.;.;.*.@.*.-.&.-.*.&.&.&.&.&.*.+.#.#.d         8 U T G r.d.y.N N R B X         u *.;.#.*.-.-.;.&.&.&.&.&.&.<.;.*.-.-.-.-.&.",
"&.&.-.=.;.-.&.-.*.;.:.*.&.&.&.&.&.@.:.*.:.d         .       = 6 O X X           .   u *.-.$.&.&.*.*.*.+.+.@.&.&.-.;.;.-.-.-.&.&.",
"*.:.;.-.-.-.-.-.-.:.:.-.&.&.&.&.&.*.;.-.;.d . * - . O : . 0 g t f X.X . = O   - > o r *.=.+.*.*.&.&.@.+.+.+.+.@.<.:.-.-.-.-.-.-.",
"&.&.=.=.-.*.*.-.-.-.;.&.&.&.&.&.&.-.-.;.;.a . ; > . o - . e #.=.*.*.  O : -   O = . e *.*.-.-.-.@.&.&.+.@.@.&.&.%.:.;.-.-.,.-.-.",
"&.&.*.&.*.&.@.#.*.*.&.*.&.*.&.&.&.*.-.;.-.d   . .   . . % { ;.;.$.$.+   X . . X X % ] -.-.-.*.;.;.=.@.&.&.&.&.&.&.&.@.=.,.-.-.-.",
"&.&.&.&.&.#.+.+.+.&.&.&.&.&.&.&.&.*.-.-.-.@.u t y y +.@.*.;.;.$.*.&.] y r r { O.#.#.*.-.*.=.=.=.+.+.+.@.&.&.&.&.&.@.=.-.*.+.;.-.",
"&.&.&.&.&.&.&.@.&.*.&.&.&.&.&.&.&.&.*.*.&.&.&.-.-.*.-.-.-.*.*.*.+.#.&.&.&.&.&.&.$.$.+.=.+.-.=.=.+.+.+.&.&.@.@.@.@.@.@.&.&.@.=.<.",
"&.&.&.@.o.o.#.&.&.$.O.@.&.&.&.&.&.&.&.&.&.&.&.&.*.&.*.-.*.;.;.;.:.-.&.&.&.&.&.@.*.+.+.+.+.+.#.+.+.+.+.@.+.+.+.+.+.+.+.&.&.@.+.-.",
"&.-.-.&.&.@.&.*.&.#.+.#.O.&.&.&.*.@.:.&.&.&.&.&.&.&.&.&.*.;.;.;.-.*.-.&.&.&.&.@.@.&.@.+.+.+.+.+.+.@.&.&.&.@.@.&.&.&.&.&.&.&.&.&.",
"=.%.:.$.;.=.$.=.&.&.&.&.&.&.&.#.-.%.:.$.-.*.&.&.&.&.&.*.-.-.-.*.*.&.;.&.&.&.&.&.&.&.&.*.&.&.@.@.@.*.*.@.+.&.&.&.&.&.&.&.&.&.&.&.",
"=.-.=.-.;.;.;.;.-.&.&.@.&.&.&.$.;.*.-.:.;.<.&.&.&.&.&.&.&.&.&.*.&.&.*.*.&.&.&.&.&.&.&.*.&.:.-.&.-.*.&.&.&.*.-.-.&.&.&.&.&.&.&.&.",
"=.-.-.*.=.*.;.-.;.&.&.;.<.:.&.*.-.-.-.:.,.;.-.&.&.&.&.&.&.&.*.-.-.-.*.-.-.&.&.&.&.&.&.*.-.=.,.*.-.,.:.=.*.,.:.;.:.-.&.-.-.&.&.,."
};
