/* XPM */
static char *result[] = {
/* columns rows colors chars-per-pixel */
"64 64 136 2 ",
"   c #221202",
".  c #2B1606",
"X  c #2F1903",
"o  c #2C1709",
"O  c #2E180A",
"+  c #321707",
"@  c #321B04",
"#  c #391C07",
"$  c #351B0B",
"%  c #3A1E0C",
"&  c #251911",
"*  c #2B1D12",
"=  c #3E210F",
"-  c #322216",
";  c #352518",
":  c #392718",
">  c #3D2A1D",
",  c #421F0D",
"<  c #42220E",
"1  c #4B240E",
"2  c #51270F",
"3  c #52290F",
"4  c #5A2E0F",
"5  c #442511",
"6  c #492410",
"7  c #462912",
"8  c #4C2B13",
"9  c #492B1C",
"0  c #532C13",
"q  c #5A2D11",
"w  c #502F18",
"e  c #4D331A",
"r  c #543117",
"t  c #5D3113",
"y  c #563218",
"u  c #593419",
"i  c #5E381B",
"p  c #633313",
"a  c #693613",
"s  c #643816",
"d  c #6D3914",
"f  c #60361C",
"g  c #633A1C",
"h  c #693E1D",
"j  c #733C14",
"k  c #493221",
"l  c #533422",
"z  c #5C3926",
"x  c #5E3C29",
"c  c #603F2C",
"v  c #67421D",
"b  c #6B401F",
"n  c #774016",
"m  c #7C4216",
"M  c #73431D",
"N  c #7F461A",
"B  c #78481F",
"V  c #6D4220",
"C  c #68432D",
"Z  c #734622",
"A  c #754822",
"S  c #7C4C24",
"D  c #754B2D",
"F  c #614532",
"G  c #694732",
"H  c #6D4A33",
"J  c #744F37",
"K  c #76523B",
"L  c #7A563E",
"P  c #7C5840",
"I  c #834617",
"U  c #844718",
"Y  c #854A1A",
"T  c #8A4D1A",
"R  c #8E521D",
"E  c #92551E",
"W  c #976E1F",
"Q  c #996B1F",
"!  c #9A771D",
"~  c #9D7B1D",
"^  c #A07B1E",
"/  c #835325",
"(  c #895422",
")  c #8E5924",
"_  c #85552B",
"`  c #8A5829",
"'  c #925720",
"]  c #955A21",
"[  c #995D22",
"{  c #9E6225",
"}  c #9F6E23",
"|  c #99642A",
" . c #9F7421",
".. c #9F7A21",
"X. c #A16526",
"o. c #A16A25",
"O. c #A17323",
"+. c #A27C20",
"@. c #959D0E",
"#. c #998716",
"$. c #9C8D17",
"%. c #9C821B",
"&. c #9C8D19",
"*. c #979712",
"=. c #9A9415",
"-. c #969B11",
";. c #999C12",
":. c #A09317",
">. c #AA9419",
",. c #8BAD00",
"<. c #95A20D",
"1. c #99A50F",
"2. c #94AC0B",
"3. c #9AA80E",
"4. c #8DB400",
"5. c #8EBC00",
"6. c #92B604",
"7. c #92BD01",
"8. c #9ABD03",
"9. c #94B20A",
"0. c #9BB10B",
"q. c #9DBA09",
"w. c #97A211",
"e. c #9CA111",
"r. c #96A910",
"t. c #A3BD0B",
"y. c #8FC300",
"u. c #93C401",
"i. c #99C501",
"p. c #96C900",
"a. c #9BCA01",
"s. c #A5C305",
"d. c #A2CD02",
"f. c #A9CD04",
"g. c #A4D101",
"h. c #ABD501",
/* pixels */
"u.u.p.u.y.y.u.p.u.y.u.7.d.p.p.7.a.u.p.u.a.p.y.y.y.y.y.y.y.5.i.i.i.u.u.u.y.y.y.y.y.u.y.y.p.u.p.p.y.p.p.g.u.p.p.u.u.u.y.i.i.u.u.7.",
"u.y.y.y.y.y.y.y.u.h.g.a.a.a.p.u.a.u.y.p.a.y.y.y.y.y.y.y.y.y.u.i.i.p.u.u.u.y.y.y.y.u.y.y.u.u.p.p.u.p.p.p.u.u.p.y.y.u.y.7.p.p.y.y.",
"y.y.y.y.y.y.y.5.a.a.a.a.u.u.p.u.u.y.y.u.y.y.y.y.y.u.y.y.u.y.i.d.a.u.u.p.y.y.y.y.y.u.y.y.u.y.u.p.y.p.p.p.u.u.y.y.y.u.u.p.p.u.y.y.",
"y.y.y.y.y.y.y.5.a.p.p.u.p.u.p.u.u.y.y.u.y.y.y.y.y.a.a.u.d.p.y.y.u.y.y.y.y.y.u.a.u.p.u.y.u.y.y.y.y.y.p.y.y.y.u.y.y.5.y.p.u.u.y.u.",
"y.y.y.y.y.y.y.y.u.p.p.p.p.y.y.y.y.p.u.y.u.y.y.y.y.5.a.p.u.a.u.y.y.y.y.y.y.y.p.p.a.u.u.7.u.u.y.y.y.y.y.y.y.y.y.y.u.p.p.p.p.p.y.u.",
"u.y.y.y.y.y.y.y.y.y.u.p.u.y.y.y.y.u.a.y.y.y.y.u.a.a.7.a.u.p.u.y.y.y.y.y.y.y.p.p.p.p.p.u.u.u.u.y.y.y.5.5.y.y.y.y.u.a.u.u.u.u.y.y.",
"d.u.i.y.i.u.y.y.y.y.y.y.y.y.y.y.y.p.y.y.y.y.y.i.a.p.u.p.p.p.u.y.y.y.y.y.y.7.7.y.d.p.p.p.u.u.p.y.5.4.4.5.5.y.y.y.6.u.a.y.y.y.y.y.",
"u.a.5.a.u.p.u.y.5.5.5.5.y.y.u.y.u.p.p.a.d.u.5.5.5.4.u.u.p.p.u.y.y.y.y.y.y.y.a.u.a.d.p.u.u.u.u.y.5.y.y.y.y.y.y.y.y.7.y.7.5.y.d.p.",
"p.a.p.u.u.u.y.y.5.4.4.4.4.4.4.y.y.u.u.u.i.d.y.y.u.p.p.u.p.u.5.4.5.4.4.5.5.5.4.a.u.u.u.p.p.u.y.y.y.y.y.y.u.y.5.y.y.y.y.y.7.7.a.p.",
"u.u.u.u.y.y.y.y.y.4.4.4.4.4.5.y.u.u.p.a.d.d.y.y.a.p.a.a.u.u.u.5.5.5.4.5.5.y.i.i.u.u.d.a.p.p.y.y.y.p.p.p.u.5.4.4.4.4.4.4.5.y.7.u.",
"y.y.y.a.u.d.u.y.5.u.y.5.y.y.y.y.y.u.u.u.i.5.y.y.d.g.i.u.p.p.y.y.y.u.y.y.y.y.y.6.u.u.y.y.y.y.y.u.p.p.a.p.y.y.y.5.5.4.5.5.7.u.u.u.",
"u.y.y.a.a.u.p.u.i.a.y.y.u.y.y.y.y.u.5.y.y.y.y.y.7.7.u.a.a.a.y.y.y.5.u.u.y.y.y.y.y.y.y.y.y.y.y.a.a.a.a.y.a.u.u.y.y.y.y.y.y.y.i.a.",
"u.u.y.u.a.a.p.p.u.p.u.i.g.y.y.y.a.h.4.y.y.y.y.y.u.u.y.h.a.y.y.y.u.i.a.p.7.i.6.i.u.y.y.y.y.y.y.5.u.u.p.a.p.p.p.u.p.u.y.y.u.u.y.7.",
"p.u.y.y.i.u.p.u.u.p.i.a.u.y.y.y.u.a.6.u.u.i.5.5.y.y.y.7.y.y.y.y.7.a.p.p.p.p.u.p.p.y.y.y.y.y.y.y.y.u.a.p.p.p.u.u.p.u.y.p.p.p.p.u.",
"y.y.y.y.a.p.u.y.u.a.u.u.y.y.y.y.p.p.u.d.d.i.y.y.y.y.u.y.y.y.y.a.a.a.p.u.p.y.p.u.p.u.y.y.y.y.y.5.y.g.u.p.i.i.5.p.p.p.u.a.a.p.p.y.",
"y.y.y.y.y.y.y.5.u.5.y.u.y.y.y.y.u.p.d.a.u.p.d.a.5.y.y.5.5.y.y.5.u.p.p.u.u.y.u.u.p.y.y.y.y.y.y.y.u.7.6.d.i.y.y.a.p.p.u.a.a.a.p.u.",
"y.y.y.5.4.4.4.4.4.4.4.4.4.4.4.4.y.p.a.a.p.p.a.h.a.y.5.4.5.4.5.y.y.y.5.u.u.y.y.y.y.y.u.u.a.u.u.a.d.a.d.7.y.y.y.a.a.u.7.a.u.a.a.u.",
"y.u.u.y.5.4.4.4.4.4.4.4.4.4.4.4.5.u.u.p.p.p.a.a.5.y.5.4.5.5.5.y.y.u.5.i.a.y.y.y.y.d.y.p.d.u.p.a.u.a.u.u.y.y.5.i.d.u.5.a.a.i.i.y.",
"u.a.p.p.p.u.p.p.i.6.5.5.y.y.y.y.y.y.u.a.u.u.a.g.i.4.4.4.4.4.4.a.p.u.,.u.p.5.i.y.u.g.a.u.p.u.i.p.a.a.u.y.y.y.y.5.7.5.y.5.6.5.5.y.",
"g.d.a.p.p.p.u.u.a.a.8.4.4.4.y.y.y.y.y.y.y.y.u.y.u.4.4.4.4.4.4.d.a.p.u.u.5.i.g.y.y.p.p.p.p.u.u.p.a.a.y.y.5.5.y.y.y.u.y.y.y.y.u.u.",
"i.d.p.u.u.u.p.a.7.7.4.4.4.4.5.u.y.y.y.y.y.y.y.y.y.5.4.4.4.i.i.i.a.p.u.p.p.a.d.u.y.y.p.u.p.u.u.p.a.u.5.4.4.4.4.4.i.a.a.u.u.a.y.a.",
"a.7.u.p.5.u.p.a.6.4.4.4.4.4.5.p.a.p.y.y.p.y.y.y.y.y.5.4.4.7.p.p.u.p.p.p.a.a.f.a.y.y.p.y.5.5.5.y.y.7.5.4.4.4.4.4.5.a.p.p.u.u.u.u.",
"u.5.u.p.6.4.7.7.6.4.4.4.4.5.u.i.a.a.p.p.a.y.y.5.5.5.5.5.6.4.i.u.p.u.u.p.p.p.p.y.y.y.y.y.i.i.i.5.y.a.8.6.4.4.4.6.a.a.u.a.5.a.d.y.",
"y.y.y.a.5.7.5.5.4.,.,.,.,.5.7.g.a.p.p.p.a.a.u.5.4.4.5.5.u.y.y.y.u.y.u.u.u.y.y.y.y.y.y.p.a.p.a.i.u.a.a.6.4.4.4.8.i.a.d.5.5.a.u.y.",
"u.y.y.u.p.p.a.u.5.4.,.,.4.5.5.u.d.p.u.a.g.p.p.y.y.y.y.y.p.u.u.y.y.y.y.y.y.y.y.y.y.y.y.a.p.a.p.p.u.a.a.u.4.i.a.4.6.i.4.4.5.y.u.u.",
"a.p.u.u.u.p.i.a.p.5.y.y.y.y.y.y.y.u.d.a.7.u.p.u.y.y.y.u.u.u.p.y.u.p.d.7.y.y.y.y.y.y.y.p.a.a.p.u.u.p.p.7.u.a.p.a.a.6.4.5.u.y.u.u.",
"i.p.a.u.p.i.i.y.y.5.5.a.a.y.y.y.5.u.u.y.5.d.a.y.y.y.p.a.i.u.a.u.p.p.p.u.y.u.p.i.7.y.y.y.p.p.u.y.u.p.p.u.a.u.a.a.u.u.7.5.y.y.y.u.",
"5.y.y.y.p.u.y.y.y.u.d.a.a.5.5.5.y.y.y.u.5.5.a.y.y.y.a.u.y.p.a.6.p.u.p.g.7.y.u.p.i.u.y.y.y.y.y.y.y.u.u.u.u.p.p.p.a.a.a.u.y.y.y.u.",
"y.y.p.i.5.5.y.y.y.u.p.u.p.a.h.u.y.5.7.p.u.u.u.y.y.y.y.y.y.u.u.y.y.a.i.a.u.y.y.y.u.i.5.y.4.5.5.5.5.5.5.y.y.y.p.a.p.a.a.y.y.y.y.y.",
"a.a.u.u.i.7.y.y.y.y.p.p.a.p.d.u.y.u.d.i.u.p.u.y.y.y.y.5.5.5.y.y.y.y.y.u.p.u.u.u.u.u.y.y.5.4.4.4.4.4.4.y.y.u.p.p.u.u.y.y.y.y.u.p.",
"p.a.p.p.a.6.5.y.y.u.u.p.u.u.y.y.y.a.g.a.u.u.u.y.y.y.5.4.4.4.5.y.y.u.p.p.u.p.u.p.u.i.y.y.y.y.y.5.u.y.y.y.y.y.y.y.y.y.y.y.y.y.p.p.",
"p.u.d.a.u.a.y.y.y.p.p.p.p.u.6.5.5.y.p.u.i.u.u.y.y.u.5.9.9.2.r.r.r.r.q.9.i.i.a.7.a.u.y.y.y.y.y.u.i.5.y.y.y.y.y.y.y.y.y.y.y.u.p.u.",
"p.i.u.a.p.7.5.y.y.p.p.u.u.a.a.f.y.y.y.7.-.&. .} o.X.X.X.X.X.X.X.o.X.X.X.X.o.O.+.#.;.2.7.u.u.u.p.i.7.y.y.y.y.4.4.5.5.5.y.y.y.u.p.",
"5.i.p.a.p.p.y.y.y.a.i.i.a.6.7.u.y.y.y.O.X.X.X.X.X.X.X.X.X.X.X.X.X.X.X.X.X.X.X.X.X.X.X.o.~ e.p.a.u.u.y.y.y.y.5.5.4.4.4.y.y.y.y.u.",
"y.u.u.u.a.u.y.y.y.y.g.u.u.d.3.1.*.%.+.X.X.X.X.X.X.X.X.X.X.X.X.X.X.{ X.X.X.X.X.X.X.X.X.X.X.%.u.i.6.5.y.y.y.y.u.u.u.y.y.y.y.y.y.y.",
"y.y.u.y.u.u.p.p.u.y.5.w.%.} X.X.{ { E ] [ { { X.X.X.X.X.E E T T T T T T T T ' ' [ X.X.X.o.&.&.&.=.=.r.2.9.i.p.u.a.y.p.p.y.y.y.y.",
"y.y.y.y.u.u.u.i.i.w.O.X.X.X.{ T I j r r s m I ' X.{ ] E I I I I I I I I U U U I I I T { X.{ _ K L ] { o.X.X. .&.r.u.p.p.p.p.y.y.",
"y.y.y.u.u.p.a.a.i.X.X.X.X.{ U I I i - ; > k I T T I I I m I I I I I I I U U I I I I U E ' Y H K G > ; > v ] T Y R  .9.u.p.d.u.y.",
"y.y.y.y.u.p.u.u.7.O.X.X.{ { T I N n = O * 0 j a t q < 1 0 0 8 1 0 p p j I U I I I I I I I m z 9 l * * * & 0 m I ' O.6.y.g.y.p.y.",
"d.u.y.y.u.a.u.p.u.u.2.&.^ { Q E Y Y 1 6 1 0 q h i y 7 y v f y 7 8 u u h g p q q q q q 4 0 0 0 q d d t k w n T Q =.5.y.y.y.p.p.y.",
"u.a.y.y.y.u.y.a.i.u.u.q.$.O.E T I I 3 r u B S S i u 8 y v u u 7 0 u u A S S V u u u u 5 y u i w y 6 2 a Y [ { |  .%.=.1.5.4.i.p.",
"p.p.y.y.y.y.a.8.1.1.;.} { E T I n 4 = 8 u v S S s y w y b i u < w u u S S S i u u u u 7 u u u 8 r % q U I U T E X.X.X.X.X.+.w.p.",
"p.p.u.y.6.&.O.o.[ R Y Y m j 4 1 = = = 7 u b S S y y y y M i u 7 u u f S S S u u u u u y u u u w 5 + 6 d m T T R ' [ X.X.X.X.&.p.",
"p.y.r...X.X.{ T I I m 4 , % # @ @ < 5 5 y v S S 8 r i y Z i u 7 u u u S S V u u r u y u u u 6 9 % $ X + + # < 4 j U U X.+.7.u.u.",
"p.&.X.X.X.X.{ ] R Y I N d = X X X = = = r v S S 7 8 u y b f u 8 u y w S S g u u 8 u u u u u 5 = O O O o     . 3 n Y W &.i.a.i.a.",
"w.X.X.{ X.X.X.X.E - : v N 4 X X X = = = 7 y S A 7 = w 7 h f u y y 7 y S S u u 8 w u u u 8 7 = % O O $ $ X + q d Y { { X.o.:.q.p.",
"d.i.6.r. .X.X.{ { : k F A t = . X . = = % 5 M A 8 = % = i y u w = = w S A u w = 7 u u 7 < 7 , 5 l 6 0 p d m I Y T R E X.X.X.X.r.",
"7.y.w.X.X.X.[ n d y J L L C = X X   o O O = 8 u 8 = $ = r 1 % < = = w s g 8 < $ = 7 < = , 6 q x L K U ( ` E [ X.o.{ { *.@.2.w.s.",
"y.y.9...X.X.) | X.Z l c H z a ,     + # % < 1 1 , , , , 1 < , , , = 0 u 7 = = + $ = , 2 f D U B V Z { / e y | X.} %.<.4.4.5.y.y.",
"y.y.4.w.r.e.;.&.X.X.) S S ( T I d 4 p j I j m j j j j j d p p 0 , , 6 8 5 = % O % 0 j Z L P H [ X.X.X.( * - i X.X.X.{ ~ 2.y.y.y.",
"y.y.y.y.y.7.&.o.X.X.X.X.X.X.| E I I m m [ { X.X.X.X.[ [ [ ] R R T m a q 2 1 = % 0 d j i c l 9 S { D ) ` _ ) | X.X.X.X.X.-.y.y.y.",
"y.y.u.u.y.&.X.{ X.X.X.X.X.X.X.X.{ R T Y T [ X.X.X.X.X.X.X.X.o.X.X.X.[ ] E T N m j I I m M Z ( | X.X.{ X.X.X.X.X.X.X.} =.u.y.y.y.",
"y.y.6.a.p.p.2.;.$.%.^ ~ ! ! ~ %.&.=.<.9.9.O.%.o.X.X.X.X.X.X.X.X.X.X.X.X.X.X.X.{ +.~ ! } X.X.X.X.X.X.X.X.X.X.{  .>.0.p.u.u.p.y.y.",
"y.y.u.i.a.p.y.p.u.a.g.y.u.u.y.u.y.5.d.u.g.7.9. .X.X.o.{ X.X.X.{ X.X.X.o. ...%.e.u.u.=.{ X.{ X.X.X.}  . .#.*.9.y.u.a.a.p.a.p.u.y.",
"u.a.a.p.p.p.p.p.p.d.d.a.y.y.y.y.y.u.a.p.a.p.y.a.i.0.r.r.1.2.t.q.f.7.u.u.a.y.y.y.y.u.6.2.q.9.7.7.u.y.5.4.,.4.4.5.h.d.p.a.p.p.a.p.",
"y.u.a.p.p.u.u.p.u.a.a.y.y.y.y.y.u.p.p.a.a.p.y.p.i.i.y.7.a.u.6.i.u.u.y.u.y.y.y.u.u.u.y.u.u.p.a.u.5.5.y.5.5.5.y.y.7.d.p.p.p.g.p.p.",
"y.y.y.y.u.y.4.5.u.u.y.y.y.y.y.y.y.u.p.a.a.p.u.p.u.i.7.a.a.u.a.p.5.5.y.y.y.y.y.p.u.p.u.u.u.u.a.a.a.7.5.y.y.y.y.y.u.y.5.i.g.p.p.p.",
"y.y.y.y.y.6.4.4.5.y.y.y.y.y.y.y.y.u.u.p.p.u.y.p.p.u.p.p.p.a.a.5.u.y.y.y.y.y.y.u.a.i.p.a.u.p.u.i.6.4.4.y.y.y.y.y.y.5.i.p.u.4.a.p.",
"y.y.y.y.y.y.y.y.y.y.y.y.y.y.y.y.y.y.u.u.u.y.y.p.p.u.p.p.p.p.p.i.5.4.u.y.y.y.y.y.7.7.4.i.4.p.i.i.4.4.4.5.5.5.5.5.5.5.5.y.y.5.i.h.",
"y.y.y.5.4.,.4.y.y.5.5.4.y.y.y.y.y.y.y.y.y.y.y.u.y.u.u.p.u.p.a.a.d.p.y.y.y.y.y.5.7.6.4.4.4.6.6.4.4.4.5.5.4.4.4.4.4.4.5.5.y.5.4.p.",
"5.i.u.y.7.5.u.u.y.5.5.4.4.5.y.y.7.5.d.5.y.y.y.y.y.y.y.y.u.a.p.a.a.y.p.y.y.y.y.5.5.u.5.5.4.4.4.4.4.5.5.u.5.y.5.y.y.y.y.y.y.y.y.y.",
"i.i.a.i.a.u.7.i.y.y.y.5.y.y.y.5.p.u.d.u.p.u.y.y.y.y.y.u.p.p.p.p.y.y.a.y.y.y.y.y.y.y.y.y.y.5.5.y.y.y.y.5.5.5.y.y.y.y.y.y.y.y.y.y.",
"i.a.u.i.a.d.a.a.u.u.5.y.y.y.y.7.a.u.p.d.a.h.y.y.y.y.y.y.y.u.y.y.y.y.i.y.y.y.y.y.y.y.y.5.y.a.u.y.a.u.u.y.y.u.p.p.y.y.y.y.y.y.y.y.",
"i.a.p.u.p.u.a.u.a.u.u.a.h.a.y.i.a.u.a.d.g.a.p.y.y.y.y.y.y.y.y.a.a.u.u.p.p.y.y.y.y.y.y.u.d.p.g.y.a.g.g.u.y.g.d.g.a.p.y.p.p.y.u.d."
};
