/* XPM */
static char *result[] = {
/* columns rows colors chars-per-pixel */
"64 64 181 2 ",
"   c #161413",
".  c #191615",
"X  c #1B1915",
"o  c #1D1B19",
"O  c #211F1C",
"+  c #1E2111",
"@  c #2E360F",
"#  c #323C0F",
"$  c #222511",
"%  c #262B11",
"&  c #282E10",
"*  c #24211E",
"=  c #2C3310",
"-  c #343910",
";  c #262322",
":  c #292622",
">  c #2D2925",
",  c #2E2C2A",
"<  c #312C26",
"1  c #322E2A",
"2  c #35312D",
"3  c #3B342E",
"4  c #363431",
"5  c #3A3734",
"6  c #3C3935",
"7  c #3F3C39",
"8  c #433B33",
"9  c #423F3B",
"0  c #36420E",
"q  c #39440E",
"w  c #3D4B0D",
"e  c #404D0D",
"r  c #43540C",
"t  c #475B0B",
"y  c #4A5D0B",
"u  c #4D610B",
"i  c #51660A",
"p  c #546D09",
"a  c #567009",
"s  c #5A7508",
"d  c #5C7808",
"f  c #627E07",
"g  c #617F08",
"h  c #44413E",
"j  c #4E443B",
"k  c #50463B",
"l  c #53483D",
"z  c #494642",
"x  c #484644",
"c  c #4C4945",
"v  c #564D44",
"b  c #594D41",
"n  c #514E4A",
"m  c #5F5246",
"M  c #55524E",
"N  c #5A534C",
"B  c #565452",
"V  c #5C5953",
"C  c #5B5958",
"Z  c #655849",
"A  c #66594B",
"S  c #655D55",
"D  c #71614F",
"F  c #65625C",
"G  c #6A655D",
"H  c #766655",
"J  c #696762",
"K  c #6E6C6B",
"L  c #726C65",
"P  c #726F6A",
"I  c #73716D",
"U  c #767372",
"Y  c #7A7773",
"T  c #7E7A73",
"R  c #806F5B",
"E  c #83715F",
"W  c #867462",
"Q  c #897764",
"!  c #927E67",
"~  c #827E76",
"^  c #817F7A",
"/  c #668507",
"(  c #688A06",
")  c #658108",
"_  c #6E9205",
"`  c #729505",
"'  c #739905",
"]  c #799D04",
"[  c #7BA204",
"{  c #7EAA02",
"}  c #81AC03",
"|  c #8BAD01",
" . c #85B202",
".. c #8DB400",
"X. c #8EBC00",
"o. c #90B701",
"O. c #92BD01",
"+. c #98BF01",
"@. c #8FC300",
"#. c #93C401",
"$. c #99C501",
"%. c #96C900",
"&. c #9BCA01",
"*. c #A1CD02",
"=. c #A8CF01",
"-. c #A4D101",
";. c #ABD401",
":. c #97826C",
">. c #9A846E",
",. c #9F896F",
"<. c #85827B",
"1. c #89857D",
"2. c #9C8670",
"3. c #9E8871",
"4. c #A0896F",
"5. c #A48D73",
"6. c #A79075",
"7. c #AB9379",
"8. c #B49A7F",
"9. c #858381",
"0. c #8D8982",
"q. c #8D8C88",
"w. c #928E85",
"e. c #918E8A",
"r. c #96928A",
"t. c #9A958D",
"y. c #9A9895",
"u. c #9C9995",
"i. c #B89E81",
"p. c #A29D94",
"a. c #BCA283",
"s. c #B9A289",
"d. c #A5A197",
"f. c #A7A399",
"g. c #AAA59B",
"h. c #ADA99E",
"j. c #BAAA98",
"k. c #A7A5A1",
"l. c #ACAAA6",
"z. c #B2ADA3",
"x. c #B7B2A7",
"c. c #B8B3A8",
"v. c #BBB7AB",
"b. c #BDB8AD",
"n. c #BBB9B4",
"m. c #BDBCBA",
"M. c #C3A686",
"N. c #C5A98A",
"B. c #CBAD8C",
"V. c #CEB08E",
"C. c #D1B28F",
"Z. c #C5B199",
"A. c #D3B491",
"S. c #D6B99A",
"D. c #C8B8A7",
"F. c #D9BFA0",
"G. c #C2BDB1",
"H. c #C1BFBA",
"J. c #DDC6AD",
"K. c #C6C1B5",
"L. c #CAC5B9",
"P. c #CEC9BD",
"I. c #D1CCBF",
"U. c #E3CFB7",
"Y. c #CBCAC3",
"T. c #CFCECB",
"R. c #D3CEC1",
"E. c #D1CFC8",
"W. c #D6D1C4",
"Q. c #D9D4C6",
"!. c #D3D1CA",
"~. c #DBD6C8",
"^. c #DED9CC",
"/. c #DDDCD7",
"(. c #E2DED4",
"). c #E2DFD8",
"_. c #E5E2D7",
"`. c #E5E2D9",
"'. c #E9E6DD",
"]. c #E5E5E2",
"[. c #EAE9E2",
/* pixels */
"#.#.%.#.@.@.#.%.#.@.#.O.*.%.#.$.%.%.%.%.%.%.@.@.@.@.@.@.@.@.$.$.$.#.%.#.@.@.@.@.@.#.@.@.%.%.%.%.#.%.%.*.#.%.%.#.#.#.O.$.&.#.@.O.",
"#.@.@.@.@.@.@.@.#.;.-.&.&.&.#.#.&.#.#.#.%.#.@.@.@.@.@.@.@.@.O.&.$.%.#.#.@.@.@.@.@.@.@.@.%.#.%.%.@.%.%.%.#.%.%.@.@.@.@.O.%.%.@.@.",
"@.@.@.@.@.@.@.X.&.&.&.&.#.#.%.#.#.@.@.#.#.@.@.@.@.#.#.@.#.X.$.*.&.#.#.%.#.@.@.#.@.#.#.@.@.@.#.%.#.#.%.%.#.#.@.#.@.%.&.%.%.%.@.@.",
"@.@.@.@.@.@.@.X.&.%.%.#.%.#.%.#.#.@.@.#.#.@.@.@.@.&.%.@.*.%.@.@.#.@.@.@.@.@.#.%.#.%.#.@.@.@.@.@.@.@.%.#.@.@.@.@.@. .#.#.#.#.@.@.",
"@.@.@.@.@.@.@.@.#.%.%.%.%.@.@.@.@.%.#.@.@.@.@.@.@...$.%.%.&.#.@.@.@.@.@.@.@.#.%.&.#.#.O.#.#.@.@.@.@.@.@.@.@.@.@.@.%.%.%.&.&.@.@.",
"#.@.@.@.@.@.@.@.X.@.#.%.#.@.@.@.@.%.$.@.@.@.@.#.*.&.#.%.%.%.#.@.@.@.@.@.@.@.$.%.%.%.%.#.#.#.#.@.@.@.O.@.@.@.@.@.#.&.%.#.@.@.@.@.",
"*.#.$.@.$.#.@.@.@.@.@.@.@.@.@.@.@.%.#.#.@.@.@.$.&.%.%.%.%.%.#.@.@.@.@.@.@.#.O.@.*.%.%.%.#.%.%.@. . .o. .O.@.@.@.o.#.&.@.@.@.@.@.",
"#.&.X.&.#.%.#.@.X.@.X.X.@.@.#.@.#.#.%.&.&.%.X.X.....@.#.%.%.@.@.@.@.@.@.@.@.&.#.%.*.%.#.#.#.#.@.@.#.#.@.@.@.@.@.@.O.@.O.o.#.&.&.",
"%.$.&.#.#.#.#.@.X.............@.@.#.#.#.$.*.@.@.#.%.%.%.%.#.X.........X.X.X...&.%.#.%.%.&.%.@.@.@.@.@.#.#.@.@.@.@.O.@.@.X.O.&.$.",
"#.#.#.#.@.@.@.@.@...........X.@.#.%.%.%.*.*.@.@.&.%.%.&.#.#.@.X.X.X...X.@.@.#.#.#.#.&.&.#.#.@.@.#.%.%.%.#.X.....o. . .X.X.#.O.#.",
"@.@.@.&.#.&.#.@.X.#.@.X.@.@.@.@.@.#.#.#.$.X.@.@.*.;.$.#.%.&.@.@.@.@.@.@.@.@.O.O.$.#.#.#.@.@.@.#.%.%.%.%.@.@.@.X.o.o.X.X.@.#.$.#.",
"#.@.@.&.&.%.%.#.$.&.@.@.#.@.@.@.@.#...@.#.@.@.@.+.X.O.&.&.&.@.@.@.#.#.@.@.@.X.O.@.@.@.@.@.@.@.&.&.&.&.#.#.#.#.#.@.@.@.@.@.@.%.$.",
"#.#.@.#.&.%.%.%.$.%.#.$.-.@.@.@.&.;...O.@.@.@.@.@.@.@.;.&.@.@.@.#.$.$.%.O.%.O.$.X.@.@.@.@.@.@.X.#.#.#.&.#.%.%.#.%.#.@.@.%.#.X.O.",
"%.#.@.@.$.%.%.#.#.%.#.&.#.@.@.@.#.&.O.#.#.$.X.X.@.@.@.O.@.@.@.@.X.*.%.%.$.%.#.%.$.@.@.@.@.@.@.@.@.#.&.&.%.&.#.#.%.%.@.%.%.%.#.%.",
"@.@.@.#.&.#.#.@.#.%.#.#.@.@.@.@.%.%.#.*.*.#.O.@.@.@.@.@.@.@.@.&.&.$.%.%.%.#.%.#.%.@.@.@.@.@.@.O.#.&.#.%.&.#.@.%.%.%.#.$.*.%.%.@.",
"@.@.@.@.@.@.@.X.#.O.#.#.@.@.@.@.#.%.*.&.#.&.*.&.X.@.@.@.@.X.@.X.#.%.%.#.@.@.@.#.%.@.@.@.@.@.@.@.#.+...*.$.X.@.&.%.%.#.%.&.$.%.#.",
"@.@.@.X.........................@.%.&.%.%.%.&.;.&.@.X.....X.X.@.@.@.X.$.#.@.@.@.@.@.@.@.-.@.#.&.*.&.*.o.@.@.@.&.&.#.O.&.#.&.&.#.",
"@.@.#.@.X.......................X.#.%.%.%.%.&.&.X.@.X.X.X.X.X.#.@.@.X.#.%.@.{ _ _ t 0 i O.#.%.$.%.&.#.#.@.@.X.$.*.#.X.&.&.$.$.@.",
"#.&.%.%.%.#.%.#.$.o.o...@.@.@.#.@.@.#.%.#.#.&.-.$.............&.#.#...[ / t       , B ; @ ( ..%.&.&.#.@.@.@.@.X.O.X.@.X.O.X...@.",
"-.*.&.%.%.%.#.%.&.&.+.o.....@.@.@.@.@.@.@.#.#.@.#...........| *.&.&.i   1 o u.E.y.`.].Y., * $ ' &.&.#.@.X.X.@.O.@.#.@.@.@.#.@.%.",
"$.*.#.#.#.#.%.&.o.O.o.......X.#.@.#.@.@.@.@.@.@.@.X.......$.$.+.#.g   q.!.7 9 L.W.I.~._.).(.n $ #.&.X...........$.&.%.#.#.%.#.%.",
"&.O.#.%.X.#.&.&.O...........X.%.&.#.#.#.#.#.@.@.@.#.X.....+.%. .% o B '.g.c.W.P.P.W.~.Q.Q.(.l.. w X.o...........X.&.%.%.#.#.#.%.",
"#.X.%.%.o...X.O.o...........#.$.%.&.%.%.%.#.@.X...o.X.X.....$.# 5 !.`.^.~.~.~.~.~.~.~.Q.~.~.(.g.  | $.........o.*.%.%.&.o.&.&.#.",
"@.@.@.&.o.O.X.X...| | | | @.O.-.*.%.%.%.&.%.#.X.} '  .X.@.@._   9.g.~.~.~.~.~.~.~.Q.Q.x.L.~.~.x.  [ &.o.....o.+.$.&.-.o...&.#.@.",
"#.@.@.#.%.%.%.#.O.| | | ..X.@.#.&.$.%.$.| ' [ q     $ a u %   4 : w.~.~.~.~.~.L.P.w.7 w.T S 9 X & #.&.%.X.#.&.X.o.$.....X.@.#.#.",
"&.%.#.#.%.$.$.&.#.@.@.@.X.@.@.@.@.#.X.-       4 k.n.T . z X F ^.P ~.~.v.R.~.L.:         O 2     q _ #.O.$.&.#.&.&.o...X.#.@.#.#.",
"$.%.&.#.#.%.$.@.@.@.@.&.&.@.#.X._ _ = 2 n._.q.!.[.'.[.l./.X w.~.Q.~.K.x.r.M 1     > ;   < > X 8 2   i #.&.#.&.&.#.#.O.O.@.@.@.#.",
"X.@.@.@.#.$.@.@.@.O.*.&.&.X.] $ . .   T._.^.(._.~.~.~.).^., M R.Q.1.h.w., O   : ! A.F.j.<   R A.Z.b   ( $.#.%.%.&.&.$.#.@.@.@.#.",
"@.@.#.#.O.X.@.@.@.#.%.%.#.&.% 5 Y.).e.'.L.G.W.W.~.~.~.~.~.r.X * G       1 l O Q s.V.i.5.H   4 , .     % @.@.%.&.%.%.%.@.@.@.@.@.",
"&.&.#.%.$.O.@.@.@.#.%.%.O.p   T.n.p.L.^.h.c.c.z.~.~.~.~.Q.W.1.    3 . k 5.< < k , .     . . O U q.1 9.  { #.%.%.#.#.@.@.@.@.#.%.",
"%.%.$.%.&.O.X.@.@.@.#. .%   ; 9.O M I Q.~.~.W.R.~.~.~.~.~.~.f.  m i.S : A.<   o C e.; y./.B h m.Y.; y.  { #.#.@.#.#.@.@.@.@.%.%.",
"%.%.*.&.#.$.#.@.@.%.%.@ h /.n.; G.~.~.~.~.~.~.~.~.~.~.~.~.~.2 < 6.A.~ o V.l > f.m.].x u.].: B k.n.T.J   _ @.@.@.@.@.@.@.@.%.%.#.",
"$.%.%.$.%.O.X.@.@.%.#.. r.`.w.F ~.~.~.~.~.~.~.~.~.~.~.~.^.z.  W 8.A.L : N.5.  P l.m./.[.9.  O U y.K   ; # @...X...X...@.@.@.#.#.",
"X.%.%.$.%.%.@.@.@.&.d . ^ ^.z.d.~.~.~.~.~.~.~.~.~.~.~.~.~.z < >.N.N.c 3 8.A.D   c Y U x   D Z X   . D D.o d X.X.X...X.@.@.@.#.#.",
"@.#.%.#.&.#.#.@.@.s   I H.^.~.W.~.~.~.~.~.~.~.~.~.~.~.~.I.. A 5.A.s.8 k 5.A.A.R < . . > W A.A.a.5.N.A.U.S % #.#.#.@.#.@.@.@.@.@.",
"@.@.#.@.#.#.#.%.#.% F ^.~.Q.~.~.~.~.~.~.~.~.~.~.~.~.G.K.d.. E 7.A.F.2 Z 4.N.A.A.C.M.M.A.A.A.A.A.A.A.A.U.j.  ` #.%.@.%.#.#.@.@.@.",
"@.@.@.@.#.%.#.&.$.X ~ ~.~.~.~.~.~.~.~.~.~.~.~.~.~.Q.b.G.~ . >.7.A.F.1 m Q i.A.A.A.A.A.A.A.A.A.A.A.A.A.A.J.: p &.%.#.%.%.%.%.@.@.",
"@.@.@.#.%.#.&.&.&.& V ~.~.~.~.~.~.~.~.~.~.~.~.~.~.I.h.L.G < 4.8.A.F.8 k Q 7.A.A.A.A.A.A.A.A.A.A.A.A.A.A.F.9 y -.&.%.#.#.%.*.#.@.",
"@.@.@.@.#.#.#.#.#.d X 0.~.L.W.~.~.~.~.~.~.~.~.~.Q.G.d.R.M 2 >.a.A.F.v 3 ! 5.! B.A.A.A.A.A.A.A.A.A.A.A.6.S.4 y #.%.&.@.#.-.@.#.@.",
"*.#.@.@.#.&.@.#.#.) . g.~.G.R.~.~.~.~.~.~.~.~.~.~.~.~.~.v 8 L a.A.A.N < Q 2.O ! A.A.A.A.A.A.C.Z D A.3.4 i.. / #.@.#.@.@.@.%.%.@.",
"%.$.@.@.@.#.#.%.#.q c ~.G.g.W.~.~.~.~.~.Q.I.~.~.~.~.~.~.V < :.7.A.F.h 8 4.5.4 8 A.A.A.A.A.A.A.5.A A.V.V.S +  .@.@.@.@.#.X...$.%.",
"%.%.@.@.@.@.&.$.%.w h W.L.b.~.~.~.~.~.~.I.p.I.I.~.~.~.~.1.  E ,.i.W   3 ! 4.R   A V.A.A.A.A.A.A.A.A.B.! X a #.#.@.@.#.&.*.&.$.%.",
"%.%.@.@.@.@.#.#.#./ X q.R.~.Q.~.~.~.~.~.~.~.~.x.T Q.Q.I.L.2 o 8 8   h   b 4.3.A   8 R 4.,.7.A.C.N.i.W o 0 @.@.@.@.@.@.X.O.O.#.#.",
"#.#.@.@.X.X.X.@.@.@.r   n p.t.T ~.~.~.~.~.~.~.~.z 5 h 8 I.Q.w.M V r.x.9.. c ! 4.Q 9 : . X 3 7.3.:.m X 0  .&.@.@.@.@.@.@.O.#.#.%.",
"%.#.@.X.X.....X.@.@.X.X S p.w.; I.~.~.~.~.~.~.~.I.r.1.W.~.~.I.W.R.W.~ 9 <   3 Q 4.4.3.>.>.3.:.D > X u X.&.$.#.@.@.@.@.@.$.$.&.%.",
"%.#.@.@.@.@.X.@.@.@.X.  G p.p.6 c h.I.R.~.Q.I.W.W.W.~.~.~.~.Q.G.z.P.H.~ G ~ :   < 8 b b j 3 X X w [ #.#.%.@.@.@.@.@.@.@.-.-.$.%.",
"*.#.@.@.#.O.#.@.#.#.X.@ 5 p.p.r.c > 6 g.~.~.I.d.G.W.~.G.K.I.L.g.p.p.p.p.p.p.w.  - = $ $ & w p { @.#.#.#.#.@.@.@.@.@.#.@.O.o.@.&.",
"#.@.@.@.$.$.%.%.$.%.O.| X 4 F Y p.p.p.p.g.z.g.p.g.b.z.p.p.p.p.p.e.0.p.p.p.p.S   | O.#.#.#.#.@.@.@.@.@.@.#.@.X.....X. .X.o.@.#.-.",
"@.@.@.%.O.*.%.#.%.%.%.%.` - . O u.p.p.w.t.p.p.p.p.p.p.p.p.p.p.1.1.p.p.w.J C . i @.#.$.%.%.%.#.%.%.&.#.@.@.@.@.............X.@.@.",
"@.@.O.#.%.%.%.#.#.@.#.#.%.@.' . c w.p.~ w.p.p.p.p.p.p.p.p.p.p.0.z ~ <.h X % s @.#.;.&.$.%.%.#.%.#.%.&.#.@.@.X.X.X.X...X.@.@.@.@.",
"@.@.@.@.@.@.#.&.#.@.@.@.@.@.@.d   . ;   M <.t.1.p.p.p.L P r.~ ;         t #.#.@.#.%.-.%.#.#.#.%.&.#.$.#.........X.@.@.@.@.@.@.@.",
"@.@.#.#.@.@.X.%.$.@.X.#.@.@.@.'   l Z o . .     : c 5 .       O   O < * r %.%.#.@.&.%.@.%.@.#.%.&.+.@.@.@.@.@.#.@.@.#.#.@.@.@.@.",
"@.@.X.&.%.%.X.#.%.X.&.@.@.@.@.'           X   # e @ 0 d #           X   r %.=.&.@.%.X.$.$.X.@.%.&.&.X.@.@.@.@.X.;.*.#.%.%.%.#.@.",
"@.@.$.$.$.%.@.%.#.&.-.@.@.@.@.(   O ;   o , o w *.X.#.@.@ X * ;   * , o q @.#.$.@.#.X.#.$.o.@.@.@.#.X.X.X.X.@.@.#.%.*.%.%.%.#.@.",
"#.&.&.%.%.%.#.%.%.*.-.%.@.@.@./   : 1 X o ; o 0 $.$.@.@.% o > ,   O ; o 0 @.@.@.@.#.@.#.&.O.@.#.@.@.X.........X.;.-.%.%.%.%.%.%.",
"@.#.$.%.%.#.#.%.$.%.%.@.@.@.@._   . X   X X + / %.$.X.O.#   X X   . + X d @.@.#.#.#.@.@.#.%.%.#.X.@.@.X.X.X.@.@.O.*.&.#.%.-.%.%.",
"@.@.@.@.#.#.X.O.#.@.@.@.@.@.@.@.s t y i  .%.@.%.%.#.O.&.} u y y f X.@.@.@.@.@.%.#.%.#.#.#.%.%.&.*.O.X.@.@.@.@.@.@.@.X.$.-.%.%.%.",
"@.@.@.@.@.......X.@.@.@.@.@.@.@.@.#.%.%.%.#.@.%.%.#.%.%.#.&.&.O.#.#.@.@.@.@.@.#.$.$.%.%.#.#.%.$.......@.@.@.@.#.@.X.$.%.#.X.&.%.",
"@.@.@.@.X.@.@.X.@.@.@.@.@.@.@.@.@.@.@.#.#.@.@.%.#.#.&.%.&.&.#.%...o.#.@.@.@.@.@.O.+...$.o.&.+.$.......#.@.X.X.X.X.X.X.@.@.X.$.=.",
"@.@.@.X.| ....@.@.X.X.X.X.@.@.@.@.@.@.@.#.@.@.#.#.#.#.#.%.#.&.&.*.#.@.@.@.@.@.@.O.o.......o.o....... .X....... .....X.X.@.X...%.",
"@.$.#.#.X.X.#.#.@.X.....X.X.@.X.#.X.*.X.@.@.@.@.@.@.@.#.#.%.%.%.%.#.%.@.@.@.@...X.#.X.X....... ...X.@.@.X.X.X.@.@.@.@.@.@.@.@.@.",
"$.O.&.$.&.%.O.$.@.@.@.X.@.@.@.X.#.#.*.$.%.#.@.@.@.@.@.#.%.%.%.%.@.@.&.@.@.@.@.@.@.@.@.@.@.O.#.@.X.#.#.X.X.@.@.@.@.@.@.@.#.@.@.@.",
"+.&.$.%.&.*.&.&.%.@.@.@.@.#.@.O.&.#.&.*.&.;.@.@.@.@.@.@.#.#.@.@.@.@.%.#.@.@.@.@.@.@.@.O.@.&.#.@.%.#.X.#.@.#.&.$.@.@.@.@.@.@.@.@.",
"&.&.#.%.%.#.&.#.&.#.#.&.;.&.#.O.&.#.&.&.-.&.%.@.@.@.@.@.#.@.@.&.$.%.@.%.#.@.#.#.@.@.@.#.*.#.-.#.$.-.*.%.@.-.-.&.*.#.@.%.%.@.@.-."
};
