/* XPM */
static char *result[] = {
/* columns rows colors chars-per-pixel */
"64 64 143 2 ",
"   c #161413",
".  c #181615",
"X  c #1A1915",
"o  c #1D1B1A",
"O  c #211F1D",
"+  c #1F2111",
"@  c #2C340F",
"#  c #333C0E",
"$  c #222611",
"%  c #252A11",
"&  c #282D10",
"*  c #22201F",
"=  c #2B3110",
"-  c #323910",
";  c #242322",
":  c #282623",
">  c #2B2927",
",  c #2D2C2B",
"<  c #312E2B",
"1  c #2F302F",
"2  c #34312E",
"3  c #2F3030",
"4  c #333332",
"5  c #393634",
"6  c #3B3837",
"7  c #373939",
"8  c #3B3C3B",
"9  c #423F3C",
"0  c #36420E",
"q  c #3B470E",
"w  c #3C4B0D",
"e  c #44540C",
"r  c #46590B",
"t  c #4B5D0B",
"y  c #4D610B",
"u  c #50660B",
"i  c #536A09",
"p  c #5C7407",
"a  c #567009",
"s  c #5A7209",
"d  c #637E08",
"f  c #44413E",
"g  c #3F4141",
"h  c #424343",
"j  c #494642",
"k  c #4C4945",
"l  c #474848",
"z  c #4C4D4C",
"x  c #504E4A",
"c  c #57534E",
"v  c #4F5050",
"b  c #535352",
"n  c #595652",
"m  c #5D5A54",
"M  c #5B5B5B",
"N  c #605D57",
"B  c #65635E",
"V  c #69645E",
"C  c #636464",
"Z  c #696662",
"A  c #6C6965",
"S  c #696868",
"D  c #716F6C",
"F  c #75716B",
"G  c #78746D",
"H  c #7E7A73",
"J  c #7D7B79",
"K  c #827F76",
"L  c #827E79",
"P  c #678806",
"I  c #6C8E06",
"U  c #628008",
"Y  c #688608",
"T  c #6E9205",
"R  c #719504",
"E  c #759A05",
"W  c #7BA403",
"Q  c #7FAC03",
"!  c #83A605",
"~  c #81AD03",
"^  c #8BAD00",
"/  c #85B203",
"(  c #8DB500",
")  c #87B801",
"_  c #8EBC00",
"`  c #90B701",
"'  c #92BD01",
"]  c #98BF01",
"[  c #8FC300",
"{  c #93C400",
"}  c #99C501",
"|  c #96C900",
" . c #9BCA01",
".. c #A1CD02",
"X. c #A8CF01",
"o. c #A4D101",
"O. c #ABD501",
"+. c #838077",
"@. c #86827B",
"#. c #8A857E",
"$. c #858381",
"%. c #888686",
"&. c #8E8A81",
"*. c #928E85",
"=. c #949087",
"-. c #95928B",
";. c #99948C",
":. c #999691",
">. c #9D9A93",
",. c #A29D94",
"<. c #A6A196",
"1. c #A6A29A",
"2. c #A9A59A",
"3. c #ADA99E",
"4. c #A8A6A0",
"5. c #AFACA3",
"6. c #B3AEA3",
"7. c #B7B2A7",
"8. c #BAB5AA",
"9. c #BEB9AD",
"0. c #B9B7B0",
"q. c #BDBAB3",
"w. c #C2BEB1",
"e. c #C6C1B4",
"r. c #C8C3B7",
"t. c #C6C4BC",
"y. c #CAC5B9",
"u. c #CEC9BC",
"i. c #D1CCBF",
"p. c #CAC7C1",
"a. c #CECCC6",
"s. c #D3CEC1",
"d. c #D6D1C3",
"f. c #D9D4C6",
"g. c #D5D3CC",
"h. c #DBD6C8",
"j. c #DED9CD",
"k. c #DCDAD3",
"l. c #E2DED3",
"z. c #E4E1D6",
"x. c #E6E3DB",
"c. c #E9E6DD",
"v. c #EBE9E0",
/* pixels */
"{ { | { [ [ | | { [ [ ' ..| | { | | | { | | [ [ [ [ [ [ [ _ } } } { { { [ [ [ [ [ [ [ { | | | | [ | |  .[ | | { | [ _ }  .{ [ ' ",
"{ [ [ [ [ [ [ [ _ O.o. . . .} { | | { | | { [ [ [ [ [ [ [ [ '  .}  .| { [ [ [ [ [ [ [ [ { { | | | | | | | { | [ [ [ { ) | } [ [ ",
"[ [ [ [ [ [ [ _  . . .| { | | { { [ { { { [ [ [ { { | [ { [ } ..| | { | [ [ [ [ [ { [ [ { [ { | [ | | | { | [ [ [ | | | | | [ [ ",
"[ [ [ [ [ [ [ _  .| |  .| { { { [ [ [ [ [ [ [ [ [  .| [ ..| [ [ { [ [ [ [ [ {  .{  .{ [ { [ [ [ [ [ | | { [ [ [ _ _ [ | | | [ [ ",
"[ [ [ [ [ [ [ [ { | | | | [ [ [ [ | { [ [ [ [ [ _ ( } | {  .[ [ [ [ [ [ [ [ {  . .{ { ' { { [ [ [ [ { [ [ [ [ [ [ | | | | | { [ ",
"{ [ [ [ [ [ [ [ [ _ | | { [ [ [ { |  .[ [ [ [  . . .{ | | | { [ [ [ [ [ [ [ { { | | { { { { [ [ [ _ _ _ _ [ [ [ {  .{ | [ [ [ [ ",
"..{ } [ } { [ [ [ [ [ [ [ [ [ [ [ { { { [ [ [ {  . .| | | | { [ [ [ [ [ [ { { ' .. .| | { | | [ / ) ` ` _ [ [ [ ` {  .[ [ { [ [ ",
"{  ._  .{ | { [ [ _ _ _ [ [ [ [ { | {  . .| [ _ ( ( { { | | { [ [ [ [ [ [ [  .{  . .| | { [ { [ [ [ [ [ { [ [ { [ ' { _ ` '  .| ",
"{  . .{ | | { [ ( ( ( ( ( ( ( [ [ { { { } ..[ [ { | | } | { _ ( ( ( ( _ _ _ ( } { } | | | | [ [ [ [ [ [ { [ [ [ [ [ [ [ ' '  .{ ",
"{ { { { [ [ [ [ [ ( ( ( ( ( _ [ { { |  .....[ [  .| |  .{ | [ _ _ ( _ _ [ [ } { { {  .| | { [ [ | | | | | _ ( ( / ` ` ` _ [ ' { ",
"[ [ [  .[  .{ [ [ { { _ [ [ [ [ [ { { { ' ( [ [ ..O.} { | | { [ [ [ [ [ [ [ ' ' { { [ { [ [ [ | | | | | [ [ [ ( ' ` ` ) ' [  .[ ",
"| [ [  . .{ | { {  .' [ { [ [ [ [ { _ [ { { [ [ ' ( {  . .| [ [ [ { { { { [ _ [ [ [ [ [ [ [ [ .. . .| [ | | { { [ [ [ [ [ [ }  .",
"{ | [ { .. .| { { | { } o.[ [ [  .O.( [ [ [ [ [ { [ { O.} [ [ [ { '  .{ } { _ } { [ [ [ [ [ [ ) { { |  .{ | | { | | [ [ { { [ ' ",
"{ { [ [ { { { | { | }  .{ [ [ [ |  .' ' {  .( [ [ [ [ { [ [ [ [ ' ..{ | } { { { } [ [ [ [ [ [ [ _ {  .| |  .{ { | { [ |  .| | { ",
"[ [ [ _  .| { [ { | { { [ [ [ [ { | { ....{ _ [ [ [ [ [ [ [ [  . . .| { | { | | | { [ [ [ [ [ _ { o.} {  .{ _ | | | {  . .| | [ ",
"[ [ [ [ [ [ [ _ ' { [ { [ [ [ [ {  ... .{  ... ._ [ [ _ [ [ _ [ { | | | { [ { { | [ [ [ [ [ [ [ { ' ( ..} _ [  .| | {  . .|  .[ ",
"{ [ [ _ ( ( ( ( ( ( ( ( ( ( ( ( { |  . .| |  .O.} [ _ ( ( _ ( [ [ [ _ } { [ [ [ [ [ [ [ ..[ {  . . ...' [ [ [  . .{ {  .{  . .[ ",
"[ [ [ [ _ ( ( ( ( ( ( ( ( ( ( ( _ { { ) i q e E I W ( _ _ _ ' { { [ _ '  .[ [ [ [  .[ |  .{ |  . . .{ [ [ [ _ } X.{ (  . .} { [ ",
"| | | | | { | |  .' ( ( _ [ [ [ [ ) P # O n < .   . e p R ( (  .{ { ( { | _ } [ | o...|  .{ | |  . .{ [ [ [ [ _ ( [ [ _ ' ( _ { ",
"X... .| | | | {  . .] ( ( ( [ [ T $ * > a.v.z.:.s.:.* < . t ( .. . .{ { _ } ..[ [ | | [ | | | |  . .{ _ _ [ _ ' [ [ { [ [ { { | ",
"} ..{ { { | |  .` ' ` ( ( ( _ [ $ z l.x.l.h.s.s.w.j 6 g.-.  d '  .| { | | .. .} [ { | [ | { { | |  ._ ( ( ( ( ( }  .| { { | [ | ",
" .' { | ( { |  .' ( ( ( ( ) _ w X 5.l.h.h.h.a.s.s.s.7.2.c.b o % ~ | { |  . .o. .[ [ { [ ( ' _ { [ _ ` ` ( ( ( ( (  .| | { | { { ",
"{ _ | | ( ( _ ' ' ( ( ( ( ( W   1.l.h.h.f.h.h.h.h.h.h.h.j.x.a.5 # | { | | | | [ [ [ { [ } {  .( [  .] ^ ( ( ( ` ..| {  .'  . .{ ",
"[ { [  ._ { ' ( ^ ^ ^ ^ ^ { E . 7.h.h.y.6.h.h.h.h.h.h.h.h.h.3.@.. T { { { _ W ~ [ [ { { ..{  .{ {  . .' ( ( ` ]  . ...' (  .{ { ",
"| [ [ { | |  .[ ' ^ ^ ^ ( _ _ = o 9 N L &.g *.u.u.h.h.h.h.f.*.; 4 . = r i + . . q W T W {  . .| { |  .{ ` '  .( ' ] ( ( _ [ { { ",
"| | { | {  . . .[ [ [ [ _ [ I 0   X * X         : e.h.s.9.h.h.F j.B X 7 X J q.4.2       = ( | { { |  .' }  .|  . .' ( _ { [ [ | ",
"} { | { | { } [ [ [ [  .} u   ; ; . o *   o o     < n *.7.e.h.f.h.=.. j.4.v.c.v.k.@.c.q.4 # T T { | { {  .{ |  .} { ' _ [ [ [ { ",
"_ { _ [ } { _ [ [ ' .. .Y   7 D v 7 . o S S v 8 o   o : *.3.@.f.d.k 2 h.l.h.h.h.z.z.j.z.p.  X . % Q { { {  .| | } } } { [ [ [ { ",
"[ { { } ' [ [ [ [ { | { = , v v v 4   h b v v z 8 . , O       C o X =.h.h.h.h.h.d.d.e.r.c.$.v.s.6 % _ [ [ [ {  .| | | [ [ [ [ [ ",
" . .{ { } ' [ [ [ { | )   O g z v ; . l v v v v h ; O g ;   ;     %.s.h.h.h.h.h.6.7.7.3.k.s.>.0.g.. i ~ [ | | | | { [ [ [ [ | | ",
"| | | {  .' _ [ [ { { /   .   o O     o 7 g l h 4 o o v o h z 3   2.h.h.h.h.h.h.d.d.h.h.f.F k O K ;   $ Q [ [ [ [ [ [ [ [ [ | { ",
"| | .. .{ } { [ [ | | E   3 8 3 > O   3 O     . . . > v   b v h O 9 h.h.h.h.h.h.h.h.h.h.h.f.h.w.O 0.g.f # [ [ [ [ [ [ [ [ | | { ",
"{ } {  .{ ' [ [ { { { - O . 3 7 4   . 4 v h 8 7 ,   h z o z b l 7   2.h.h.h.h.h.h.h.h.h.h.h.h.h.A =.x.;.. _ _ _ ) ( _ _ [ [ [ | ",
"'  .{  . .{ [ [ [ } d o $.4       , 4   ; 4 4 ; . 3 v l ; 8 b z h * j f.h.h.h.h.h.h.h.h.h.h.h.h.,.7.h.@.  i _ _ ( ( _ _ [ [ [ { ",
"{ { { {  .{ { [ [ [ % j %.v z g z v v 7 O     . 4 v v h : , M v h , X a.h.h.h.h.h.h.h.h.h.h.h.h.f.h.j.t.S . U | | [ | [ [ [ [ [ ",
"[ [ { [ { { { | { T   J $.v v v v v v v v l z v v v z h 3 : S v h 8 . <.w.e.h.h.h.h.h.h.h.h.h.h.h.h.h.h.h.A $ { | [ | | [ [ [ [ ",
"[ [ [ [ | { {  .} u ; J v v v v v v v v v v v v v v l 8 , > S v l f . @.e.9.f.f.h.h.h.h.h.h.h.h.h.h.h.h.h.+.. | | { { { | | [ [ ",
"[ [ [ [ { {  . . .e 3 C v v v v v v v v v v v v v v l 8 ; 4 C v l h o B u.3.u.h.h.h.h.h.h.h.h.h.h.h.h.h.h.m @ o.o.| { { | ..| [ ",
"[ [ [ [ { } { { { t > M h v v v v v v v v v v v v 8 h g O 6 M v l g * n i.2.9.h.h.h.h.h.h.h.h.h.h.f.r.h.=.  s | {  .[ { o.{ [ [ ",
"..| [ [ {  .{ { { Y   z ; g v 7 3 v v v v v v v 8 . h 8 O h M v l 8 * x h.h.h.h.h.h.h.h.h.h.h.h.h.d.w.f.<.o U [ [ { [ [ [ | | [ ",
"{  .[ [ [ { { | { ' X 4 v v v 3 g v v v v v v v ; O g g ; 4 M b l g + m h.h.h.h.h.f.i.h.h.h.h.h.h.s.3.w.h.k w [ [ [ [ [ [ (  .{ ",
"| | { [ [ [  . .{  .a   8 v v v v v v v v v v 3 . 7 h g ; . k l g 7   *.h.h.h.h.h.u.<.d.h.h.h.h.h.f.9.u.f.h 0 [ [ [ {  ... .{  .",
"| | [ [ [ [ { [ {  .[ -   8 l z v v h g 8 7 o   1 h h > . f X ; ;   4 s.i.h.h.H 3.h.f.h.h.h.h.h.h.f.j.s.&.. U [ [ [ [ _ ` { } { ",
"{ { [ [ _ _ _ [ [ [ [ / 0   , g g h ;     o > 8 h g >   @.0.=.n m +.s.a.6 j 2 j h.h.h.h.h.h.h.f.K ;.,.j   t [ [ [ [ [ [ ' { { { ",
"{ { [ _ _ ( ( _ [ [ [ [ _ t   o 7 g g g h g h g 6 ;   : j K s.i.d.d.h.h.u.*.&.f.h.h.h.h.h.h.f.d.> *.,.N   | [ [ [ [ [ [  . . .| ",
" .{ [ [ [ ' [ [ [ _ [ { | } W e .   ; > , > > *   < G D K r.i.3.9.f.h.h.h.h.s.f.d.i.f.f.d.i.3.k 4 ,.,.V   _ [ [ [ [ [ [ o.o.} { ",
"..{ [ [ { ' { [ { { ' _ { { { { ( i 0 = $ $ & =   *.,.,.,.,.,.,.<.y.d.e.e.h.f.w.2.i.f.f.3.5 : j =.,.,.9 = [ [ [ [ [ [ { ' _ {  .",
"{ [ [ [ } { | |  .{ _ ..{ { [ [ [ [ o.{ [  . .'   n ,.,.,.,.*.=.,.,.,.,.,.6.8.2.,.2.7.<.<.,.,.,.F V 5 X Q [ _ _ ( ( ( ( _ ' { ..",
"[ [ [  .[  .| | { { | | } [ [ .. .{  .| {  .|  .u X n Z -.,.,.@.#.,.,.,.,.,.,.,.,.,.,.;.*.,.,.,.*   # E [ [ [ ( ( ( ) ( ( _ [ [ ",
"[ [ [ ' } } | } { [ { { | [ [ |  .{ | | | | | | { a = . 9 @.K k #.,.,.,.,.,.,.,.,.,.,.*.L ,.;.k X (  .' { _ _ _ ( _ _ _ _ { [ [ ",
"[ [ [ [ [ [ {  .{ [ [ [ [ [ [ [ { { { { { | | ..{ [ [ r         : @.-.G F ,.,.,.K ;.%.c   :     p {  .{ ( ( ) ( _ [ [ [ [ [ [ [ ",
"[ [ { { [ [ _ {  .[ ' [ [ [ [ [ { { { [ [ [ [ [ _ ( ( e X O X   X         6 k :         . , >   ! ' [ [ [ [ { [ [ { | [ [ [ [ [ ",
"[ [ _  .| { _ { } [  .[ [ [ [ [ [ { ( ' ' _ [ ' ( ( ( q . X X         # Y 0 - e @   X           E ..[ [ [ [ [ [ O. .{ | | | { [ ",
"[ [ } }  .| [ | {  ...{ [ [ [ [ [ _ ..{ ..' {  ..._ { 0 o > *   : * X =  .{ {  .# O > O . : O   Y ' [ ( ( _ [ [ {  . .| | | { [ ",
"{  . .| | | | | | ....| [ [ [ [ [ {  .{  . ._  . .{ { 0 o * *   > > O & | [ { ' 0 X * O . < :   U [ _ ( ( ( ) ( O...| | | | | | ",
"[ { } | | { { | | |  .[ [ [ [ { [ |  . . .| [  .| } { s + . X   X X   @ [ [ [ } P $ X X   o .   I [ [ ( _ [ ' { ' .. .| | o.| | ",
"[ [ { [ { [ _ ' [ { [ [ [ [ [ [ [ { |  .| | | | | { '  . .{ ..T r r r W [ [ [ { {  .{ _ y t t s  .} _ [ [ [ [ [ { { _  .o.| | | ",
"[ [ [ [ [ ( ( ( ' [ [ [ [ [ [ [ [ { | | | | [ |  ._  .| |  .} ' { ' [ [ [ [ [ {  .} | | { | } } ( ( ( _ [ [ [ [ [ _ } { { (  .| ",
"[ [ [ [ [ [ [ _ [ [ [ [ [ [ [ [ [ [ { { [ [ [ | | { | | | | { { ` ' [ [ [ [ [ [ ' ` ' } (  .} ' ( ( ( [ [ _ _ _ _ _ _ [ [ _ } o.",
"[ [ [ _ ( ^ ( [ [ ' ) _ _ [ [ [ [ [ [ [ [ [ [ [ [ { | { | {  . ...} [ [ [ [ [ _ ' ( ( ( ( ( ' ( ( ( ( _ ( ( ( ( ( ( ( [ [ { ( } ",
"_ } { { ' _ { { [ _ _ ( _ _ [ [ { ( o._ [ [ [ [ [ [ [ [ |  .|  .| { | [ [ [ [ _ _ { _ ( ( ( ( ( ( _ [ { _ _ _ [ [ [ [ [ [ [ [ [ ",
"} '  .}  .{ ' } [ [ [ _ [ [ [ _ { { ..{ { | [ [ [ [ [ { | | | { { [  .[ [ [ [ [ [ [ [ [ _ [ _ [ _ [ [ _ _ [ [ [ [ [ [ [ [ [ [ [ ",
"'  .{  . ... . .{ { _ [ [ { [ '  .{  . . .O.[ [ [ [ [ [ [ [ [ [ [ [ { { [ [ [ [ [ [ [ { [ ..{ [ | { { _ [ {  .| [ [ [ [ [ [ [ [ ",
" . .| { | {  .{  .{ {  .O. .{ '  .{  .o.o. .| [ [ [ [ [ [ [ [  . .{ { | | { [ [ [ [ [ {  .{ o.{  .o...| [ o... ...| [ | { [ { o."
};
