/* XPM */
static char *result[] = {
/* columns rows colors chars-per-pixel */
"64 64 15 1 ",
"  c #8BAD00",
". c #8DB400",
"X c #8EBC00",
"o c #90B701",
"O c #92BD01",
"+ c #98BF01",
"@ c #8FC300",
"# c #93C401",
"$ c #99C501",
"% c #96C900",
"& c #9BCA01",
"* c #A1CD01",
"= c #A8CF01",
"- c #A4D101",
"; c #AAD401",
/* pixels */
"##%#@@###@#O&&%#%%%%%%@@@@@@@X$$$###@@@@@#@@%%%%@%&*@%%%%@X$$##X",
"#@@@@@@@#;-&&&##%%##%#@@@@@@@@O&$&%#@@@@@#@@%#%%@%%%%%@@@@#X%%@#",
"@@@@@@@X*&&%##&##@###@@@@##@#@#-%#%#@@#@@#@@@@#%@%%%#%@@@%%%%%@#",
"@@@@@@@X&%%%%###@@@@@@@@#&&@*%#@#@@@@@#&#%#@@@@@@@%@@@@@XX##%#@@",
"@@@@@@@@@&%%%@#@@%#@@@@@@.$&#&@@@@@@@@#&&O#O#@@@@@@@@@@@@$$%%%@@",
"#@@@@@@@@@#%#@@@@%&@@@@$&&#%#%#@@@@@@@##%%%###@@@@XXX@@@#&###@@@",
"*#$@$#@@@@@@@@@@####@@@#&&%%%%#@@@@@@O##*&%%#%%@o.XXX@@@X#&@@@@@",
"#&X&#%#@@XXX@@@@##%&&%@X..@#%%#@@@@@@@&#&&%%###@X@@@@@@@#O@@oX*%",
"%%&###@@.......@@###$*@@#%%#%@X.....XX.$##%%%%@@@@@#@@@@@@@@@#%%",
"####@@@@#.....X@#%%&=*@@&%&&#%@XXX.@@@@$##&&%%@@@%%%#@ .....o@X#",
"@@@&#*#@X##X@@@@@####.@@*;$#%%#@@@@@@@XO###@@@@#%%&%@@@OoooX@O$#",
"#@@&&#%##&@@#@@@@#.@@@@@+.#&&&@@@@%#@@@O#@@@@@@&&&%@%%#@@@@@@@%&",
"%#@#*%%#$%#$-@@@&;.@@@@@@@@;&@@@#$&%O$O$#@@@@@@X%@%&%%%#%#@@###@",
"##@##%#&#%#&#@@@#&o##&.@@@##@@@@O&#%$%##$@@@@@@@O@&%%%O%%#@%$%##",
"@@@@&####%##@@@@%&#**#X@@@@@@@@&&&%###%%%@@@@@@O#&$#&$O%%%#&*%%@",
"@@@@@@@XX###@@@@#%*&#&*&X@@XX@@@##%%#@#%%@@@@@@@$OO*#O@&%%#%&%&#",
"@@@X....o......X@#&%%%&;$@X..X.@@@O##@@@@@@@&@@&&&*OX@@&&%O#&&&@",
"@@#@.... o......X#%%%%&&@X.XXXX@@OO$&@@@@*@%&%%&&&#O@@@O=@X&%$$@",
"%%%%%#%%$OXO@@@@@@#%%#&-&......&#@o+&o$@@;&%&#&%&&@@@@@XOO@OOOO@",
"=*&%#%#%&&O ..@@@@@@@##@#......*&%@#@@-@@%&#%%#%&&@@@X@X@@@@@#@#",
"$*%###%&OOo...O@@@@@@@@@@X...#$$&%#%#*&#@@%@###%&#O oo..$&%#@%@&",
"&O#%@#%&O. o. O&&####@@@@@X..+$&%%#%&&=&@@%@OOO@@OO ....O&%%@%##",
"#X#%o.O#O.. .O@&&&%%%#@XXXXX..##%##%%%&@@@@@$#$O@&$o...o&&%&o&*@",
"@@@&O#..     @O-&&%%&%#X..XX##@@#@@%##@@@@@#&#&$#&&o...+$$&O.*#@",
"#@@#%%&@O    X@@&&#&*&%@@@@#%##@@@X@@@@@@@@&#&%%#%&#oO&oO+..X@##",
"&%@%#&&&@@@@@@@@@#*&##%@@@@###%##%*#@@@@@@@#&&%##%&O$&%%&OoO@@@%",
"$#&##$$@@@@&&@@@XO##X*&@@@#&O%&#%%%@##%$$@@#%%###%%#&$%&$O@O@@@#",
"X@@@###@@O*&&OOO@@@@XX&@@@%$#%&X%%%-O@#%##@@@@@@@#####%%&$$@@@@@",
"#@#$OX@@@#%##&;@@@O$###@@@@#@##@@&#&@#@##$X@XX..XXX@@@%&%%%@@@@@",
"&&##$@@@@#%%&&*@##*$%##@@@XX@X@@#@@####@##@@@......@@#%%%%#@#@#%",
"%&%%&oX@@##%#@@@@&-&###@@@X...X@@%%##&%%#$@@@@@#X@@@@@@@@@@@@@%%",
"%#*&#$#@@%%%%#OoX@######@@@@X@@@@@&O&@&O&#X@@@@$#@@@@@@@@@@@@#%#",
"#&%&#O@@@%%$@%*-@@@@@%@@@@@###@#@#@@#@##@@@@@##%#O#@@@XX.XX@@@@@",
"O##&$#@@@&$#$o@@@@@@#-@@@@#%$%#@XOX@@@@@@@@@@%%%%#@@@#Xo...@@@@%",
"##%#&##@@#*@%*@@@@@#@#@@%@#%%%$o    @#@#@@@@%%##XX@@@@@%@@%@@@@@",
"@@#@###%#@@Xooo@@@###@%#&%%%%*&#OXX@@@@@@@#@%%%###@@@%%%%@%%@@@@",
"@@@@%%#$#Oo    .@@%%#%#$%%&$&*###@@@##@@#@@##%#o##@%%@&%%##%%%@@",
"@@@##%&&&@oo..oo@&%*%%%$@%*;X@#%%####%&&##@@@%&@#**&&%%--%@#&*%@",
"@@@@######@@@O@@#&-**%$$@@%%@@#%%&&%%$&#O$O#@#@#@@%$&@@%#&@#-@@@",
"*#@@@&####@@#@@@@##%$%O#@@@@@@@@$O*O&$$$#$%O$$##@@@@@@@@@@@@@%%@",
"#&@@@##%#%#$%#@@##@##O#X#@@ooooXXXXO@$O$$%%#%%%#@@@@@@@@@@@@@.$%",
"%%#@@@&&%$#%&$####X@#@@%%%%O...oo.o .@########@@@@@@@@@@@@@***#%",
"%%@@@@#@#$@$#$#@##$###%$%%##@Xoo.oooO@#&#@#@$#$%@@#@@@@@@@@Xo###",
"##@@XXX@@@@@$###@##O@$#&%%%%#@##@@@@@@@#%#@@$&%%%#%#@*@@@@@@####",
"##@Xoo.o@@@@@##%%%&o@X#O%%%%%#%%@@@%@@@#$###@#%%%#%@&%#@@@@@$$$&",
"&%@@@@@@@@@@%$%$$$&#@@X$*#%&X%%#@%&&&@@@##@@@&%###%#%@#@@@@@--$%",
"*@@@@#@@@@o@#$$O*X@@@###o%$O@$%&#%&&%@@@#@@@@@@@@@@##@@@@@@@Oo@&",
"#@@##$%#$%O*@#@@@@*#@&*&*O@@@$&$@&%%&#@@@@###@@##@@@@@@..oooo#@-",
"@@###&%#$#$##@@*$#&&#%%&&@@@@o&#@O&O%@@#@#$%%%#%%$##@@Xo.....X@@",
"@@###$&#####%#@%&#%%%%%%@@@@@@X@@@o@X#@@@;&&#%#%#%%#@@XXXXXX@@@@",
"@@@@@#@$#@@@@@@#%#%##%&*@@@@@@#&$#@%#%###$-%#%#%$#$$o...X@@@@@@@",
"@@O#@@X%&@@@@@@@##@@@@@@@oooo@%&%%##%%%#@*%X%@%%*O@@@@@@@@@@@@@@",
"@@O&%%X#$@&@@@@@@@oOoO#O.XoX@@$*%%##&#-&@#X#%O@#&$@@@@@@-*#%#%@@",
"@@#$&%@%@&*#@@@@@X*@*O@&&o@@@@*$%&@&&@%%@@@#$O@###@ooX@@#%*%%%@@",
"#*$$#%#%%**&@@@@@#&%$&@&$%#@o#*#-#@%%@@###@@$O##@@X.  oX;*%%%%&%",
"@#%%%#%%%%&@@@@@#%%&&%@&%$@O&@o$##@@@@@###@##%#%@@@oX@@@#*&%%-%%",
"@@@@@@oX#@@@@@@@@#%&%%#%$#@&%#&&@@@@@@@%%%##$%$&&XX@@@@@#@X&-#%%",
"@@@@@oo X@@@@@@@@#%%%#@%%@$%%*$O@@@@@@@#$#%%##$$o..@@@@@@X@##o&%",
"@@@@@@@X@@@@@@@@@@##@@@%%#%%%%#%oo@@@@@@OOo#o%OO ..@@XoXoo@@#X$-",
"@@@X  o@@@oX@@@@@@@@@@@####%#%&&*$@@@@@@Oo.o.oOo.ooX....oo.@@@o$",
"@$##XX##@X.o.X@@@X*@@@@@@@@@#&&%%#%@@@@XX#Xo.....X@@@XX@@@@@@@@@",
"#$*#&#O&@@@X@@@X$#*#%#@@@@@#%%%%#@&#@@@@@@@@@@X@@@@oo@@@@@@@@@@@",
"#&#$&**&%@@@##@X&#%*&;@@@@@@@@@@@@##@@@@@@@@@$%@%#@@@#%%@@@@@@@@",
"$&&#%#&#%#@*-&#O$#&*-&%@@@@@@@@&&##%#@@@@#@#*#*#&*-%@-***#@%%#@*"
};
