/* XPM */
static char *result[] = {
/* columns rows colors chars-per-pixel */
"64 64 171 2 ",
"   c #11110F",
".  c #161413",
"X  c #191615",
"o  c #171812",
"O  c #1B1A14",
"+  c #1D1B19",
"@  c #211514",
"#  c #2A1715",
"$  c #211E1D",
"%  c #301716",
"&  c #1F2111",
"*  c #282D0F",
"=  c #2E360F",
"-  c #323B0E",
";  c #212411",
":  c #262A11",
">  c #282D10",
",  c #23201E",
"<  c #2B3110",
"1  c #262322",
"2  c #292624",
"3  c #2C2926",
"4  c #2D2B2A",
"5  c #312E2B",
"6  c #35312E",
"7  c #363432",
"8  c #393532",
"9  c #3E3935",
"0  c #3D3C3B",
"q  c #5B1A1A",
"w  c #651B1B",
"e  c #751D1D",
"r  c #403C37",
"t  c #423E3A",
"y  c #36410E",
"u  c #3A460D",
"i  c #3D4B0D",
"p  c #414F0D",
"a  c #43530C",
"s  c #48560C",
"d  c #45580C",
"f  c #495C0B",
"g  c #4D620A",
"h  c #51670A",
"j  c #546C09",
"k  c #5B7107",
"l  c #5E7C07",
"z  c #577009",
"x  c #5A7409",
"c  c #5E7B08",
"v  c #617D07",
"b  c #627E08",
"n  c #46413D",
"m  c #49443F",
"M  c #454544",
"N  c #4B4642",
"B  c #4D4944",
"V  c #434648",
"C  c #4C4C4B",
"Z  c #514C46",
"A  c #524E4A",
"S  c #56514A",
"D  c #5B544E",
"F  c #535555",
"G  c #5C5752",
"H  c #5E5852",
"J  c #53585C",
"K  c #5C5B5A",
"L  c #655E57",
"P  c #665F58",
"I  c #676059",
"U  c #6A635B",
"Y  c #6C6761",
"T  c #6D6965",
"R  c #686969",
"E  c #736B64",
"W  c #726E6A",
"Q  c #7C746B",
"!  c #6C7073",
"~  c #7B7671",
"^  c #777879",
"/  c #B62D2E",
"(  c #80776F",
")  c #80786F",
"_  c #807770",
"`  c #837B73",
"'  c #887F76",
"]  c #817D79",
"[  c #658407",
"{  c #6A8707",
"}  c #6B8C06",
"|  c #648108",
" . c #698309",
".. c #6D9205",
"X. c #729506",
"o. c #759A05",
"O. c #799C05",
"+. c #7DA504",
"@. c #7FAB02",
"#. c #81A704",
"$. c #83AB03",
"%. c #88AE01",
"&. c #86B302",
"*. c #8DB500",
"=. c #87B801",
"-. c #8EBC00",
";. c #94BB01",
":. c #92BD01",
">. c #8FC300",
",. c #93C400",
"<. c #99C501",
"1. c #96C901",
"2. c #9BCA01",
"3. c #A2CE02",
"4. c #A8CF01",
"5. c #A4D101",
"6. c #ABD402",
"7. c #8A8077",
"8. c #83817E",
"9. c #8D847B",
"0. c #91887F",
"q. c #7D8082",
"w. c #848381",
"e. c #878786",
"r. c #8A8986",
"t. c #8E8C89",
"y. c #948C83",
"u. c #948F8C",
"i. c #9C948D",
"p. c #969592",
"a. c #9B9690",
"s. c #9B9995",
"d. c #9A9B9A",
"f. c #A39C96",
"g. c #A59F9A",
"h. c #A4A19D",
"j. c #A9A29A",
"k. c #929FA7",
"l. c #9AA6AE",
"z. c #9CAAB3",
"x. c #A5A5A2",
"c. c #ADA7A0",
"v. c #ADA9A4",
"b. c #AFAFAC",
"n. c #B7AFA9",
"m. c #B6B1AD",
"M. c #B8B2AB",
"N. c #AFB4B8",
"B. c #BDB7B0",
"V. c #BDB9B4",
"C. c #C3BCB5",
"Z. c #C4BEB8",
"A. c #C6C1BC",
"S. c #CAC4BD",
"D. c #ACBCC5",
"F. c #B0BFCA",
"G. c #BFD1DC",
"H. c #CCC7C2",
"J. c #CEC9C4",
"K. c #C0C5CA",
"L. c #D4CDC5",
"P. c #D7D0C9",
"I. c #D9D2CA",
"U. c #C1D2DD",
"Y. c #CED4D9",
"T. c #C9D7E1",
"R. c #CCDAE3",
"E. c #D5DCE1",
"W. c #DBE2E7",
"Q. c #DCE4EB",
"!. c #E0E7ED",
/* pixels */
",.,.1.,.>.>.,.1.,.>.>.:.5.1.1.,.2.1.1.,.1.1.>.>.>.>.>.>.>.-.<.<.<.,.,.,.>.>.>.>.,.>.>.>.1.1.1.1.>.1.2.3.,.1.1.1.1.>.:.<.<.,.>.:.",
",.>.>.>.>.>.>.>.,.6.5.<.2.2.,.,.1.1.,.1.1.,.>.>.>.>.>.>.>.>.,.<.<.2.1.,.>.>.>.>.>.,.>.>.1.,.1.1.>.1.1.1.1.1.>.>.>.>.>.-.1.1.>.>.",
">.>.>.>.>.,.>.-.2.2.2.2.,.1.2.,.,.>.>.1.,.>.>.>.>.1.>.>.,.-.,.3.1.1.1.,.>.>.>.>.>.,.>.>.>.>.,.1.>.1.1.1.,.,.>.>.>.,.1.1.1.1.>.>.",
">.>.>.>.>.>.>.-.2.1.,.2.1.,.,.,.>.>.>.>.>.>.>.>.>.2.1.,.3.1.,.>.,.>.>.>.>.>.,.2.,.1.,.>.>.>.>.>.>.>.1.>.>.>.>.>.:.-.,.1.1.,.>.>.",
">.>.>.>.>.>.>.>.>.2.1.1.,.>.>.,.>.1.,.>.>.>.>.,.>.*.,.2.,.2.>.>.>.>.>.>.>.>.1.1.2.,.,.:.,.>.>.>.>.>.,.>.>.>.>.>.,.1.1.1.1.1.>.>.",
",.>.>.>.>.>.>.>.>.-.1.,.,.>.>.>.>.1.<.>.>.>.>.<.2.2.,.2.,.1.1.>.>.>.>.>.>.>.<.,.1.1.1.:.,.,.,.>.>.>.:.:.:.>.>.>.,.<.1.,.,.>.>.>.",
"3.,.<.>.2.,.,.>.>.>.>.>.>.>.>.>.,.1.,.,.>.>.>.,.<.1.,.1.2.1.,.>.>.>.>.>.>.,.:.>.3.2.1.1.,.1.1.>.=.&.=.=.:.>.>.>.-.,.2.,.>.,.>.>.",
",.2.-.2.,.,.>.>.>.-.>.-.>.>.>.>.,.,.1.2.2.,.>.=.;.*.,.,.1.1.,.>.>.>.>.>.>.>.2.,.2.2.1.1.,.,.,.>.:.,.,.>.>.>.>.>.>.;.,.:.*.,.2.1.",
",.2.2.,.1.1.,.>.*.*.*.*.*.*.*.=.>.>.,.,.<.3.>.@.,.1.1.1.1.,.*.*.*.*.*.-.-.-.*.2.,.,.1.1.1.1.>.>.>.>.,.>.>.,.>.>.-.>.>.>.-.;.<.1.",
",.,.,.,.>.>.>.>.,.*.*.*.*.*.-.} g ,.1.2.3.3.>.- O.1.1.2.,.1.>.-.-.*.*.-.-.>.<.<.,.,.2.2.1.,.>.>.1.1.1.1.1.-.*.*.*.&.*.*.-.,.:.,.",
">.>.>.2.>.2.,.>.-.,.,.>.>.>.>.l . g >.,.,.*.>.< O  .<.,.1.1.,.>.>.>.,.>.>.>.-.;.,.,.>.>.>.>.>.1.1.1.1.1.>.>.>.*.;.=.-.-.-.,.<.,.",
"1.,.>.2.2.,.1.,.,.2.,.-.,.>.>.j . . u -.,.,.>.y . o f 2.2.2.>.>.>.>.1.>.>.>.>.>.>.>.>.>.>.>.>.2.2.2.1.>.1.1.,.,.>.,.,.>.>.>.1.2.",
",.1.>.,.3.2.,.,.,.2.,.2.5.>.>.g . X X i >.>.>.u . . . p ,.>.>.>.,.<.2.,.:.2.:.<.,.>.>.>.>.>.>.-.,.,.,.2.,.1.1.,.1.1.>.>.,.,.>.-.",
",.,.>.>.,.,.1.1.,.,.,.2.,.>.>.y . L + . | 2.*.a . m + . g >.>.>.*.3.1.1.<.1.,.,.<.>.>.>.>.>.>.>.-.,.2.1.1.2.,.,.1.,.>.1.2.1.,.1.",
">.>.>.-.2.1.,.,.1.,.,.1.>.>.=.& $ y.U . : -.:.a . U D X o } >.2.2.2.1.,.,.>.1.,.1.>.>.>.>.>.>.-.,.3.<.1.2.,.-.1.1.1.1.<.2.1.1.>.",
">.>.>.>.>.>.>.-.:.,.-.>.>.>.} . M a.9.8 . j %.- . E Q t . : &.-.,.1.1.1.,.>.,.1.1.,.>.>.>.>.>.>.,.:.;.2.<.-.>.2.1.1.,.2.2.1.2.,.",
">.>.>.>.*.*.*.*.*.*.$.v { %.- . ] i.9.P . . . . + _ 9.P 3 . g >.>.>.-.<.,.>.,.>.>.>.>.>.2.,.>.2.3.2.3.;.-.>.>.2.2.1.,.2.,.2.2.,.",
">.>.>.>.*.*.*.*.X.k * . . ; . 2 M.y.9.P + 2 $ . 5 9.9.Y Z . ; *.>.>.*.<.2.>.-.>.>.3.>.1.5.,.,.#.i O.,.>.>.>.-.,.4.,.-.2.2.<.,.>.",
"1.1.1.1.,.,.1.| X . . X 3 . . N n.E 3 . . . . . . 2 N Q L 2 . s -.,.*.,.2.*.,.,.,.5.2.1.1.,.1.1.= . y } >.>.>.-.;.>.>.*.:.*.-.,.",
"4.3.2.1.1.1.1.y . 8 T C i.~ X . t o . 5 X 1 N B 5 . . t P t X . & b -.,.,.,.5.,.,.1.1.,.1.1.1.1.x . . . = | =.:.-.>.>.>.>.,.,.,.",
"<.3.,.,.,.,.1.g . . ] P.I.I.a.X . + ~ C.g.L.P.W 8 $ . 8 P P S 3 X . = +.,.3.2.,.>.>.1.,.,.,.,.2.*.& . $ . . >  .<.2.1.,.,.1.,.1.",
"2.:.,.1.-.,.1.y . t i.c.Z.I.M.X + a.P.L.Z.Z.S.Z.u.5 . 6 U P P P N $ . & } 3.5.2.>.>.,.>.:.;.-.>.>.i X Z B $ . . i *.1.1.,.1.1.,.",
",.-.1.1.;.*.-.= . + + X + 0 0 . K ] N 3 $ + 2 8 G ~ 2 . E E P P L H 7 . X x 1.>.>.>.>.>.2.,.<.:.>.o.X 5 ` P r X . > +.2.;.2.2.,.",
">.>.>.2.*.:.;.j . . 0 0 2 o . . X X . X 1 3 $ . . . . o E 9.Q P L L L t X . g >.>.>.>.<.2.,.2.,.,.:.; X ` ( P D 1 . ; X.*.2.,.>.",
"1.>.>.,.1.1.x O . ! K ! Q.N.J . . F ! K.!.!.W.D.! . . M 9.9.0.` U L I L N X . x >.>.>.1.2.2.1.1.,.1.a . L 9.E P L 8 . ; +.-.,.1.",
"1.1.,.1.,.j X . . F . S !.Q.R.4 X q.  F !.!.W.U.z.. 1 w.9.9.' Q I L L L P N . . o.>.>.>.1.2.1.>.&.1.} . 9 0.7.I L L 5 . - ,.,.,.",
"<.,.2.,.x . X W + + d.Y.Q.R.G.0 . e.. V !.!.R.U.k.. 3 9.9.' U P L L L L P L 6 . = -.>.>.1.1.1.=.u -.$.. , 9.9.E L L G + . ..>.,.",
"-.>.>.} . . 6 R 0   4 l.G.U.z.5 . R K.E.!.R.G.G.V . B 9.9.0.Q P L L L t 3 , X . . g >.>.,.>.>.>.O u =.; . ) 9.` L L L 9 . d >.,.",
">.,.$.: X . . . . . . . 4 4 . . X . ! U.T.G.F.J . 1 _ 9.9.9.9._ I L L L t , . . . i &.,.-.-.*.*.O . a - . T 9.9.L L L S . < >.>.",
"2.2.,.-.%.o...j o . 2 1 . . + m G X . 1 V 0 + . $ f.m.y.0.9.9.0.Q L L P P H 8 . . d -.>.,.*.*.*.; . . O . H 9.9.I L L D . > ,.1.",
"1.1.2.1.2.-.-.h . 1 g.f.W W ` 9.9.W 8 X . . . M g.J.J.Z.u.' Q Y I L L L L P P m + . i >.>.>.>.-.& . . . . G 9.9.I P L Z . = ,.1.",
"1.,.2.3.,.<.i . + p.n.0.9.0.9.0.a.H.H.v.u.u.m.J.J.J.J.H.c.U L L L L L L L L I I Z X . h >.>.>.,.: . N . . L 9.7.I L L 9 . f 1.,.",
",.2.<.<.o.: . , i.v.y.9.9.0.9.v.H.L.J.J.J.J.J.J.Z.R t.b.b.~ L L L L D m 6 3 $ X X + . . v ,.,.,.O O _ , o E 9.` P P L $ . | o.,.",
":.<.;.j O . 2 f.f.9.9.9.9.y.B.J.J.J.J.J.J.J.J.H.] . C b.b.t.L L L L m $ o o . O . . . . O o.,.#.. 2 9.t + 7.0.E L P N . . @ +.,.",
"-.[ ; X . .   $ t ) 9.0.j.S.J.J.J.J.J.J.J.J.L.v., X q.b.b.t.L L L I I H $ . $ D D t X   O h :.j . t 9.n N 9.7.P L D $ . . g >.>.",
"g . . X % % #   . 3 j.A.J.J.J.J.J.J.J.J.J.H.w.$ . P b.b.n.Q L L Z m m m t X . r L L S $ . u &.; . E 9.A 7.9.E L L 3 o . : =.>.>.",
"o.o . e / / q w o + Z.J.J.J.J.J.J.J.J.V.^ 8 . + R b.b.x.y.t 4 X . o . . X X . X Z L L D $ . : . 9 9.9.9.0.` P L 3 + . . } 1.>.,.",
">.i . @ q e q   . A H.J.J.H.A.V.h.] A $ . . . 2 M 0 7 2 X o . X , 3 3 3 3 2 $ @ 2 L L L B X . + Q 9.9.9.' L P Z S 6 . y 1.2.,.>.",
">.&.y . . @ . . X C K G C 8 4 $ . . . . . . . . . . . . $ 3 n D L P L P L L L P L L L L P 8 . 8 9.9.9.9.' Q L L r o O +.5.,.,.>.",
"5.>.-.c > . . . . . . . . . O : u j p . K d.r.w.W Z A L L L P L L P L L P P P P L L L L t $ . O 9.9.9.7.Q U G 5 . o } >.>.,.1.,.",
",.1.>.>.>.&.+.O.X.X.X.O.+.=.-.>.,.,.s . ^ b.b.b.u.P P L L L L L L L L P L L L L L T I P 5 . . . L T I D N 5 X . ; } >.>.>.*.2.1.",
"1.1.,.>.>.>.2.2.,.2.:.1.1.2.>.,.,.,.- . d.b.b.b.u.P P P L L L L P L L L L L L D G Q P P L t O o O + + X . . X d $.,.,.2.5.2.,.,.",
"1.1.>.>.>.,.,.>.,.<.>.,.,.2.<.>.,.,.: . x.b.b.b.w.B L L P L L L L P L P L L L $ $ E L L P P D @ . . X & y j @.>.>.>.>.*.;.,.,.1.",
"1.>.>.>.*.-.-.>.,.>.>.,.<.,.,.>.>.,.; . x.b.b.s.X X L L L L L P L L L L L L L + $ Q P L I I Z O . . c >.>.3.>.>.>.>.>.>.;.,.,.,.",
",.,.>.-.*.*.*.-.>.>.>.>.,.,.,.1.2.,.= . K d.b.C o m L L P P N t a.c.x.h.d.s.p.1 O Q Y U P P L , . = -.,.2.2.,.>.>.>.>.>.2.2.2.1.",
"1.1.>.>.>.,.>.>.>.>.>.>.2.,.2.<.,.2.f . X p.b.1 + E L L P P 3 . e.b.b.b.b.b.b.S . P 7.E L P I D X O @.,.1.,.>.>.>.>.>.>.3.5.<.,.",
"5.,.,.>.,.;.,.>.,.,.-.-.,.<.,.:.3.:.[ . . T p.. 6 ` U L L P t X A t.e.8.w.w.8.F . 1 7.Q L L L n . . j ,.,.>.>.>.>.>.>.,.:.*.,.2.",
":.>.>.>.,.,.1.1.<.,.:.3.,.>.>.>.>.>.;.. . 3 ! . n 9.Y P L L 9 . . . . . . . . . . . Z ' Y Y L , . o c >.>.>.>.*.*.*.*.:.*.,.,.3.",
">.>.>.2.,.3.1.1.,.,.,.1.,.>.,.5.1.,.,.. . . X . A 7.I L L L $ . O u s f a O . 3 5 . + ~ ' Q L X : *.,.>.>.>.-.*.*.*.*.*.*.-.>.>.",
">.>.>.,.,.1.1.,.,.,.,.,.1.,.>.,.2.,.+.. $ $ . . D 7.` I L N . ; | ,.*.-.-.i . 3 m 2 . 8 9.~ Z . u 1.2.,.>.>.-.:.-.-.=.-.>.,.>.>.",
">.>.>.>.>.>.,.2.,.>.>.>.>.>.>.,.1.,.[ . 4 t $ . L 0.E D 2 . . a 1.,.,.1.,.&.& . r 8 X . L ` 8 . z ,.<.,.*.*.*.*.*.>.>.>.>.>.>.>.",
">.-.,.,.>.>.*.,.2.,.-.,.>.>.>.>.,.,.z . . + X . U Q N + . X . b 1.1.,.1.,.1.| . @ $ . . + 5 . . #.:.,.>.>.>.>.>.>.,.1.>.>.>.>.>.",
">.>.:.2.2.,.-.,.2.-.2.>.>.>.>.>.>.>.#.s ; X . . + 1 . o g ..d :.1.1.,.1.2.,.5.- . . - i . . = X.2.2.>.>.>.>.>.>.6.2.,.1.1.1.,.>.",
">.>.,.<.2.1.>.1.,.1.5.>.>.>.>.>.,.*.3.,.<.} z y ; . + c -.>.3.2.1.2.>.1.2.,.1.#.d ..,.-.g b :.>.,.,.,.*.*.-.>.>.,.2.2.1.1.1.1.>.",
",.2.2.1.1.1.,.1.1.3.5.2.>.>.>.>.>.,.2.2.2.<.-.2.-.O.#.>.-.,.3.<.6.1.>.1.1.>.>.>.,.>.>.>.2.:.>.>.>.>.-.*.*.*.*.-.6.5.1.1.1.1.1.1.",
">.,.2.1.1.,.1.1.,.1.2.>.>.>.>.>.>.1.1.2.2.1.>.2.,.<.>.:.2.,.;.;.>.>.>.>.>.>.>.,.,.,.>.,.,.2.,.2.:.-.>.*.-.>.>.-.:.3.2.,.1.5.1.1.",
">.>.,.>.,.>.*.;.<.>.>.>.>.>.>.>.>.,.1.2.1.1.1.1.1.,.,.2.1.,.3.2.>.-.>.>.>.>.>.1.,.1.,.,.,.1.2.<.2.:.-.>.>.>.>.>.,.,.-.2.3.<.1.1.",
">.>.>.>.>.*.*.*.*.>.>.>.>.>.>.>.>.,.1.1.1.1.>.1.,.,.<.1.,.2.2.:.,.>.>.>.>.>.>.,.2.<.,.2.,.,.2.<.*.*.*.>.>.>.>.>.>.-.<.,.,.*.2.1.",
">.>.>.>.>.>.>.-.>.>.>.>.>.>.>.>.>.>.,.,.>.>.>.1.1.,.1.1.2.1.,.,.-.*.,.>.>.>.>.>.:.;.*.<.;.1.;.,.*.*.*.>.>.-.*.-.-.-.-.>.,.-.<.6.",
">.>.>.*.*.*.*.>.>.>.-.*.>.>.>.>.>.>.>.>.>.>.>.>.,.,.,.1.,.1.2.2.3.,.>.>.>.>.>.>.>.;.*.*.*.*.;.*.*.*.*.-.*.*.*.*.*.*.*.>.>.,.*.,.",
">.<.2.,.-.-.,.>.>.-.*.*.=.-.>.>.,.*.5.-.>.>.>.>.>.>.>.,.1.2.1.2.1.,.1.>.>.>.>.*.-.,.*.*.*.*.*.*.*.*.>.,.:.-.-.>.>.>.>.>.>.>.>.>.",
",.;.2.,.3.,.;.2.>.>.,.-.,.,.>.*.,.,.3.,.,.,.>.>.>.>.>.,.1.1.1.,.,.>.2.>.>.>.>.>.>.>.>.,.>.-.-.>.,.,.>.-.=.>.,.>.>.>.>.>.>.>.>.>.",
",.2.<.,.2.3.3.1.1.>.>.-.>.,.>.:.2.,.1.3.2.6.>.>.>.>.>.>.>.>.>.>.>.>.,.1.>.>.>.>.>.>.>.,.>.3.,.>.1.,.,.-.>.,.2.1.>.>.>.>.>.>.>.>.",
"<.2.2.,.,.,.1.1.2.,.,.2.6.2.,.,.2.,.2.5.5.2.1.>.>.>.>.>.>.>.>.2.2.,.,.1.1.>.>.>.>.>.>.,.2.,.5.,.2.5.5.1.>.5.3.3.2.1.,.1.,.>.>.5."
};
