/* XPM */
static char *result[] = {
/* columns rows colors chars-per-pixel */
"64 64 167 2 ",
"   c #11110F",
".  c #161413",
"X  c #191615",
"o  c #1B1A14",
"O  c #1D1B19",
"+  c #221514",
"@  c #2D1716",
"#  c #211E1D",
"$  c #311816",
"%  c #1E2011",
"&  c #2D340F",
"*  c #30370F",
"=  c #323C0F",
"-  c #222411",
";  c #262B10",
":  c #292F10",
">  c #23211E",
",  c #2C3310",
"<  c #252322",
"1  c #292624",
"2  c #2C2926",
"3  c #2D2B2A",
"4  c #322E2B",
"5  c #34302D",
"6  c #363431",
"7  c #3A3633",
"8  c #3D3A36",
"9  c #3C3B3A",
"0  c #5B1A1A",
"q  c #601A1A",
"w  c #761C1C",
"e  c #403B37",
"r  c #433E3A",
"t  c #36410E",
"y  c #39450D",
"u  c #3D4B0D",
"i  c #404F0C",
"p  c #43530C",
"a  c #49570D",
"s  c #475A0C",
"d  c #4A5C0B",
"f  c #4D620B",
"g  c #55670B",
"h  c #536B09",
"j  c #577109",
"k  c #5A7308",
"l  c #5D7A08",
"z  c #637D07",
"x  c #617A09",
"c  c #45413D",
"v  c #49443E",
"b  c #434343",
"n  c #4B4642",
"m  c #4D4844",
"M  c #434648",
"N  c #4D4B49",
"B  c #514B46",
"V  c #544E4A",
"C  c #55514D",
"Z  c #5A534E",
"A  c #4F5356",
"S  c #515252",
"D  c #5C5751",
"F  c #5F5953",
"G  c #565859",
"H  c #5C5B5A",
"J  c #655E57",
"K  c #665F58",
"L  c #66605A",
"P  c #6A635C",
"I  c #5F6162",
"U  c #6C6660",
"Y  c #6F6963",
"T  c #676A6B",
"R  c #6C6C6B",
"E  c #736B64",
"W  c #776F68",
"Q  c #75706A",
"!  c #7C746C",
"~  c #6D6E71",
"^  c #7B7772",
"/  c #7F7C78",
"(  c #811E1F",
")  c #B72D2D",
"_  c #80776F",
"`  c #847B73",
"'  c #887F76",
"]  c #827E7A",
"[  c #638207",
"{  c #6B8C06",
"}  c #728D07",
"|  c #6E9305",
" . c #729306",
".. c #739A04",
"X. c #7A9B05",
"o. c #77A004",
"O. c #7BA404",
"+. c #7EAC02",
"@. c #80A703",
"#. c #83AD03",
"$. c #85B402",
"%. c #8DB500",
"&. c #87B801",
"*. c #8EBC00",
"=. c #94BB01",
"-. c #92BD01",
";. c #8FC300",
":. c #93C400",
">. c #99C501",
",. c #96C900",
"<. c #9BCA01",
"1. c #A2CD02",
"2. c #A8CF01",
"3. c #A4D101",
"4. c #ABD401",
"5. c #898077",
"6. c #84817E",
"7. c #8E857C",
"8. c #91887F",
"9. c #7C7E80",
"0. c #848482",
"q. c #8B8A86",
"w. c #8F8D8A",
"e. c #948C83",
"r. c #938E89",
"t. c #93918D",
"y. c #9B948E",
"u. c #979692",
"i. c #9B9692",
"p. c #9A9995",
"a. c #95999C",
"s. c #9E9D99",
"d. c #A49D95",
"f. c #A49F9A",
"g. c #A5A29D",
"h. c #ABA39C",
"j. c #8D99A0",
"k. c #95A1A7",
"l. c #A5A4A1",
"z. c #ACA7A1",
"x. c #AAAAA7",
"c. c #AFAFAC",
"v. c #B2ADA7",
"b. c #B5AFA9",
"n. c #B9B2AC",
"m. c #A0AEB7",
"M. c #A7B1B7",
"N. c #BBB7B3",
"B. c #C3BDB5",
"V. c #C4BFBA",
"C. c #C6C0BB",
"Z. c #C9C3BD",
"A. c #ACBBC4",
"S. c #BFC5CA",
"D. c #BECFDA",
"F. c #BFD1DC",
"G. c #CEC9C4",
"H. c #D3CDC4",
"J. c #D9D2CA",
"K. c #C3CCD3",
"L. c #C1D2DD",
"P. c #D1D7DC",
"I. c #C8D7E1",
"U. c #CDDBE3",
"Y. c #DAE0E6",
"T. c #DCE4EA",
"R. c #E0E7ED",
/* pixels */
":.:.,.:.;.;.:.,.:.;.:.-.3.,.:.:.,.,.,.,.,.:.;.;.;.;.;.;.;.*.<.>.>.:.,.:.;.;.;.;.;.;.;.;.<.,.,.,.:.,.<.1.:.,.,.,.:.:.*.>.<.,.;.*.",
":.;.;.;.;.;.;.;.-.4.3.>.<.<.,.:.,.,.:.,.,.:.;.;.;.;.;.;.;.;.-.<.>.<.:.:.;.;.;.;.;.;.;.;.:.:.,.,.;.,.,.,.:.,.:.;.;.;.=.*.,.,.;.;.",
";.;.;.;.;.;.;.*.<.<.<.,.:.,.,.:.:.;.:.:.,.;.;.;.;.:.;.;.:.*.:.1.,.:.,.,.;.;.;.;.;.:.;.;.;.;.:.,.;.,.,.,.:.:.;.;.;.:.,.,.,.,.;.;.",
";.;.;.;.;.;.;.;.<.,.,.<.,.:.:.:.;.;.;.:.;.;.;.;.;.<.<.:.1.,.:.;.:.;.;.;.;.;.:.<.:.<.:.;.;.;.;.:.;.;.,.;.;.;.;.;.;.*.:.,.:.,.;.;.",
";.;.;.;.;.;.;.;.*.<.,.,.,.;.:.;.;.,.:.;.;.:.;.;.;.%.:.<.:.<.;.;.;.;.;.;.;.;.:.<.<.:.,.*.;.;.;.;.;.;.:.;.;.;.;.:.;.,.,.,.,.,.;.;.",
":.;.;.;.;.;.;.;.;.;.,.:.:.;.;.;.;.,.:.:.;.;.;.>.<.<.:.<.:.,.,.;.;.;.;.;.;.;.>.:.,.,.,.=.:.:.;.;.;.;.*.*.*.;.;.;.:.<.,.:.:.;.;.;.",
"1.:.>.*.<.:.;.;.;.;.;.;.;.;.;.;.:.,.:.:.;.;.;.:.<.<.:.,.<.,.:.;.;.;.;.;.;.:.-.;.3.,.,.,.:.,.,.;.&.&.*.*.*.;.;.;.*.>.<.:.;.;.;.;.",
":.<.-.<.:.,.;.;.:.*.*.;.*.;.;.;.:.:.,.<.<.:.;.*.%.%.:.:.,.,.:.;.;.;.;.;.;.;.<.:.<.<.<.:.:.:.;.;.*.;.;.;.:.;.;.;.;.*.;.=.*.=.<.<.",
":.<.<.:.,.,.:.;.%.%.%.%.%.%.%.;.;.:.:.:.<.1.;.;.:.,.,.:.:.:.*.%.%.%.%.*.&.*.%.<.$.:.,.,.,.,.;.;.*.;.:.;.;.;.*.;.*.;.:.*.=.>.,.,.",
":.:.:.:.;.;.;.;.*.*.%.%.%.%.*.;.:.:.,.<.1.1.;.;.<.,.<.<.:.,.;.*.*.*.%.*.;.;.>.} & :.<.<.,.;.;.f { ,.,.,.,.-.%.%.%.%.%.&.*.:.=.*.",
":.;.;.<.;.<.:.;.;.:.:.*.;.;.;.;.:.:.;.:.=.*.;.;.1.3.>.:.,.<.;.;.;.;.;.;.;.;.x X & :.:.;.;.;.s . [ ,.,.,.;.;.;.*.*.%.*.*.;.=.,.:.",
":.;.;.<.<.:.,.:.:.<.-.;.:.;.;.;.*.:.*.;.:.;.;.;.=.-.:.<.<.<.;.;.;.-.:.:.*.s . . = ;.;.;.*.u . . k <.,.:.,.:.:.;.:.;.;.;.;.;.,.<.",
",.:.;.:.1.<.:.:.>.,.:.>.3.;.;.;.<.4.%.;.;.;.;.;.;.:.;.4.<.;.;.;.:.:.<.:.y X X . u ;.;.;.u X X . f :.,.,.,.:.,.:.,.:.;.:.:.:.;.:.",
":.:.;.;.:.,.,.,.:.,.:.<.:.;.;.:.,.<.=.;.:.>.*.;.;.;.*.:.;.;.;.;.-.1.,.f . O r . p ;.;.l . > J . t :.<.,.,.,.:.,.,.:.;.,.,.,.:.,.",
";.;.;.:.<.:.:.:.:.,.:.,.;.;.;.;.:.<.:.1.1.:.*.;.;.;.:.;.:.;.;.<.<.<. .. X D K . p ;.&.; . L e.> o >.>.:.<.>.*.,.,.,.:.>.<.,.,.;.",
";.;.;.;.;.;.;.*.*.:.*.:.;.;.;.;.:.<.<.1.:.>.1.<.*.;.;.;.*.;.;.*.:.&.; . c ! E X t O.h . 5 7.y.b . { *.1.>.*.;.<.,.,.:.<.<.<.,.:.",
";.;.;.*.%.%.%.%.%.%.%.%.%.%.%.*.*.:.<.,.,.,.<.4.>.;.*.%.%.*.&.:.;.h . 1 J 5.` O . . . X U 7.y.] . t >. .z $.*.<.<.:.-.<.,.<.<.:.",
";.;.:.;.*.%.%.%.%.%.%.%.%.%.} y O.:.,.,.,.<.<.<.-.*.*.*.*.*.=.:.$.% . B E 7.' 4 X # > X K 7.e.b.1 . ; . . , l X.1.:.*.<.,.>.:.;.",
":.<.,.,.,.:.:.,.>.=.%.*.{ = . & ;.;.:.:.:.:.<.3.<.%.%.%.%.%.%.=.f . < J E m < X . . X X . 4 E b.m X . 4 X . . X [ ;.;.%.=.*.=.;.",
"3.1.<.,.,.,.,.:.<.<.x : . . . k :.;.;.;.;.:.:.;.:.%.%.%.%.#.k - . . v J r . . 2 N n 2 X 4 X X e . X ^ e.C Y 9 . t :.:.;.;.:.:.:.",
">.1.:.:.:.:.,.<.{ & . . O . o +.;.;.;.;.;.;.;.;.;.*.%.%.X.* . o 4 V J K 7 . O 8 ! H.J.f.G.^ O . X i.J.J.J.] X . d <.<.:.:.,.:.,.",
"<.-.:.,.*.:.%.p . . > B V . p <.<.,.;.,.:.;.;.;.:.;.*.z % . > v J J J P 6 . 4 r.V.Z.B.V.H.J.i.X X b.H.B.z.r.c . y <.,.,.;.:.,.,.",
":.*.:.<.=.X.; . X r J ` 4 . | <.<.,.,.,.,.:.;.*.=.*.k o . 4 F J J J E W . < / H 5 < + # 4 n ] G . r 9 O X X O . = ,.:.<.=.<.<.:.",
";.;.;.,. .o . 1 Z J ` ' . - &.3.<.,.,.,.,.<.:.*.%.d . . e J J J L ! 7.E . . . . . O 2 < X . . . . . . > b 9 O . k >.1.*.%.>.:.;.",
",.;.:.+.- . 5 J J W 7.F . u :.:.1.<.,.>.1.,.,.;.h . O n J J J L ` 7.7.7.v . . ~ A.Y.R.R.K.T A . X H M.T.T I ~ . X k %.%.*.;.:.:.",
",.,.;.y . 4 J J J 5.7.e o [ ;.$.*.:.1.<.:.>.,.o.o X v J L J J P W 7.7.7.7.> . M.F.T.R.R.S   0.X 3 I.R.T.G O H X . X d *.:.;.;.,.",
">.,.X.. # J J J E 7.7.# . +.&.y &.-.:.:.%.1.:.* . 7 J J J J J J J P ` 7.7.2 . j.F.I.R.R.S . 9.. 9 I.U.T.K.a.X X ^ O . l ;.;.;.:.",
"*.;.p . e L J J ` 7.` . - &.t o *.;.;.;.-.%.j . . X O 2 e J J J L _ 7.7.7.m . M D.I.U.T.P.S.T . 3 m.F.L.k.1 . 8 U 3 . X { ;.;.:.",
";.;., . C K J J 5.7.U . = a . o ;.;.=.,.:.#.u o . . # c J J J L ` 7.7.8.7.` < . A A.F.F.D.~ . . . . 3 3 . . . . . . . o ; +.;.;.",
"<.<.; . Z K J L 7.7.J . . . o + :.:.1.>.:.:.p . X 7 F J J J J ! 7.7.7.7.e.n.p.O . > M M > . X D b O . . < 2 . X j | O.+.$.;.:.,.",
",.,., X m J J L 7.7.F . . o . - ;.>.3.<.:.p . O n J J L J J J L E Q 5.e.Z.G.G.v.c . . . . 6 E 7.7.' W W d.f.< X f ;.;.;.;.;.,.,.",
",.:.f X 8 K J K 7.7.J . . v . - *.;.,.:.g . O B J J J J J J J J J J L l.Z.G.G.G.G.b.u.r.z.G.Z.d.7.7.7.0.q.b.r.% o u &.;.;.:.,.:.",
":. .z . > J J J ' 7.E . > ` O o *.;.:.[ . . . O + # 1 7 v Z J J J J ! c.c.t.R C.G.G.G.G.G.G.G.G.h.8.7.8.7.8.z.i.1 . : ..;.:.:.,.",
"-.O.- . . v J J E 7.` . e 7.> . ..;.| o . . . . X . . . # v J J J J q.c.c.N . 6.G.G.G.G.G.G.G.G.G.n.e.7.8.7.8.d.y.1 . o h $.;.:.",
":.:.f . . > F J L 5.7.B v 7.r . h ;.f o . . e F Z > . > Z J J J J J e.c.c.0.. < x.G.G.G.G.G.G.G.G.G.Z.h.7.7._ r # . . . . & [ ;.",
";.;.%.- . . 4 J J W 7.` C 7.E X % +.t . O Z J J 8 . o v v v B V J J ^ c.c.c.H . O 0.G.G.G.G.G.G.G.G.G.G.V.h.2 . X @ $ $ . . . s ",
";.;.;.{ . . # > D J ` 7.7.7.8.8 . ; . O Z J J V X . . . . . . X o 3 c q.x.c.c.L X . 6 / N.G.G.G.G.G.G.G.G.C.O . q w ( ) w X . ..",
";.;.;.;.t . 4 Z Z J P ` 7.7.7.! X o o N J J J 1 # # > 3 2 4 2 > . . . . < 7 c M 1 . . . < B 6.s.N.G.G.G.G.G.N . + 0 w 0 X X u :.",
";.;.;.;.O.o . e J J ! 5.7.7.7.7.7 . 7 J J L J Z J J J J J J J J Z v 3 # . . . . . . X . . . . . O 3 8 m D H N X . . + . . = %.;.",
"3.:.;.;.:.{ o . 4 Z P ! 5.7.7.5.O . > 8 J J J J J J J J J J J J J J J J J C B ~ 9.q.s.L . p h u ; o . . . . . . . . . ; k :.,.;.",
":.<.;.;.;.:.| ; . . 4 n Z L Y J . . . 5 J J P L J J J J J J L J J J J J J J J e.c.c.c.6.. s ,.:.;.;.$.O...| | | ..O.#.;.*.%.<.,.",
",.,.;.;.;.;.<.%.i o . . . O O O . o c J J J _ Z Z J J J J J J J J J J J J J J t.c.c.c.u.. = ;.;.;.;.;.;.;.;.;.;.;.;.:.<.3.<.:.:.",
",.,.;.;.:.;.:.;.:.@.j y - . . . O D J J J J W # > J J L J L J J J K J J J J m ] c.c.c.l.. ; <.,.;.;.:.;.;.;.;.;.;.;.:.*.=.:.:.,.",
":.:.;.;.*.*.*.*.:.;.;.;.:.k . . . B J J J L ! > X J J J J J J J J J J J J J X # p.c.c.l.X % :.,.:.:.<.;.;.1.;.;.;.;.;.;.-.:.:.:.",
":.,.;.*.*.%.%.*.;.;.;.;.:.:.* . 1 J J J P Y W O 2 u.p.s.g.l.l.s.c n J J J L v . N c.s.G . * ,.,.:.,.,.:.<.<.;.;.;.;.;.;.<.<.,.<.",
",.:.;.;.;.*.;.;.;.;.;.:.,.O.o . Z L J J E 5.D . M c.c.c.c.c.c.0.. 1 J J J J E O O x.t.X . d <.:.;.:.,.:.,.:.;.;.;.;.;.;.1.2.>.,.",
"1.:.;.;.;.=.:.;.:.;.*.*.:.x . . 8 L J J ! 5.> . C 6.0.6.0.0.w.C . r J J J E ` 4 . p.R . . [ ;.;.;.:.;.:.:.;.;.;.;.;.:.*.-.*.*.<.",
":.;.;.;.>.>.,.,.>.:.=.1.:.l o . 1 J E P ' Z . . . . . . . . . . . r J J J U 7.v . ~ 1 . . $.;.;.:.;.;.;.;.:.*.*.%.%.*.%.*.*.:.3.",
";.;.;.,.=.<.,.,.:.,.,.,.:.;.$.- . J W 7.! O . 4 3 . . u s p u o . # J J J K 5.V . O . . X *.:.:.,.,.=.;.:.;.;.%.%.%.%.%.%.*.:.;.",
";.;.-.:.,.,.,.,.:.:.:.:.,.;.;.y . B ! 7.6 . 1 v 3 . s ;.;.;.*.z - X v J L _ 5.D . . O < . o.,.,.:.,.<.:.;.*.*.*.*.*.&.*.-.:.;.;.",
";.;.;.;.;.;.*.<.:.;.;.:.;.;.;.j . 7 ` J . X 7 r . - #.;.;.;.:.<.p . . > Z W 7.K . O v 2 . [ ,.,.,.>.>.,.%.%.%.&.*.;.;.;.;.;.;.;.",
";.;.:.:.:.;.*.,.<.*.*.;.;.;.:.... . 1 < . . O O . k *.%.*.:.:.<.z . . . # n ^ P . . O X . j :.,.<.=.;.;.;.;.:.:.;.:.:.;.;.;.;.;.",
";.;.=.<.,.,.*.:.,.*.<.;.;.;.;.;.{ , . . u , . . & %.*.*.;.:.:.1.*.s ..d . . < O . . . o f O.:.,.<.<.*.:.;.;.;.*.4.<.:.,.,.,.:.;.",
";.;.,.>.,.,.:.,.:.<.3.;.;.;.;.;.;.*.} d >.=.| d #.=.:.;.;.*.1.<.,.<.;.<.{ % . % t l { *.>.=.;.;.;.:.*.*.*.*.;.;.:.<.<.,.,.,.,.;.",
":.<.<.,.,.,.:.,.<.1.3.,.;.;.;.;.;.:.<.,.<.,.*.<.<.:.:.;.*.=.1.:.4.:.;.,.,.O...$.;.;.;.;.<.-.;.;.;.;.*.%.%.%.&.*.4.3.,.,.,.,.,.,.",
";.:.>.,.,.:.:.,.,.,.,.:.;.:.;.;.:.,.,.<.<.,.;.<.<.>.*.-.<.:.=.>.;.:.;.;.;.;.;.:.,.:.;.:.:.<.:.,.*.;.;.*.*.*.=.;.=.1.<.,.,.3.:.,.",
";.;.:.;.:.*.%.=.=.;.;.;.;.;.;.;.;.:.,.<.,.,.:.,.,.:.-.<.<.:.<.,.;.*.;.;.;.;.;.,.:.<.:.:.,.,.<.>.<.=.*.;.;.;.;.;.:.;.*.>.3.,.,.,.",
";.;.;.;.;.*.%.%.*.;.;.;.;.;.;.;.;.;.,.,.,.,.;.,.,.:.>.,.,.<.<.*.:.;.:.;.;.;.;.:.<.:.<.:.:.:.>.<.%.%.%.;.;.;.;.;.;.*.>.,.:.%.<.,.",
";.;.;.;.;.;.;.;.;.;.;.;.;.;.;.;.;.;.:.:.;.;.;.,.,.:.,.,.,.:.,.>.*.%.;.;.;.;.;.;.-.=.%.>.=.:.>.=.%.%.%.*.*.*.*.*.*.*.*.;.;.*.>.4.",
";.;.;.%.%.%.%.;.;.*.*.*.;.;.;.;.;.;.;.:.;.;.;.:.:.:.,.,.:.,.<.<.1.,.;.;.;.;.;.*.*.=.%.%.%.%.=.%.%.%.*.*.%.%.%.%.%.%.*.*.;.*.%.,.",
"*.>.,.:.*.*.:.;.;.*.%.%.&.*.;.*.:.&.3.*.;.;.;.;.;.;.;.;.:.<.,.<.<.;.,.;.;.;.;.*.*.;.*.%.%.%.%.&.%.*.*.:.:.*.*.;.;.;.;.;.;.;.;.:.",
">.=.<.>.1.:.=.<.;.;.;.:.:.;.:.*.,.=.1.:.,.:.;.;.;.;.;.:.,.,.,.,.;.;.<.:.;.;.;.;.;.;.;.:.*.-.-.*.:.:.;.*.&.*.:.;.;.;.;.;.;.;.;.;.",
":.<.,.:.<.1.<.<.,.;.;.*.;.;.;.=.<.:.<.1.<.4.;.;.;.;.;.;.;.:.;.;.;.;.,.:.;.;.;.;.;.;.;.:.:.<.,.;.,.:.:.;.;.:.,.<.;.;.;.;.;.;.;.;.",
"<.<.:.,.:.:.<.:.<.:.;.<.4.<.;.>.<.:.<.<.3.<.,.;.;.;.;.;.;.;.;.<.<.:.:.,.:.;.;.;.;.;.;.:.1.:.1.:.<.3.1.,.;.3.3.<.1.:.;.,.,.;.;.3."
};
